M48
; DRILL file KiCad 10.0.3 date 2026-07-16T17:49:29
; FORMAT={-:-/ absolute / metric / decimal}
; #@! TF.CreationDate,2026-07-16T17:49:29-06:00
; #@! TF.GenerationSoftware,Kicad,Pcbnew,10.0.3
; #@! TF.FileFunction,Plated,1,2,PTH
FMAT,2
METRIC
; #@! TA.AperFunction,Plated,PTH,ViaDrill
T1C0.305
; #@! TA.AperFunction,Plated,PTH,ComponentDrill
T2C0.500
; #@! TA.AperFunction,Plated,PTH,ComponentDrill
T3C0.750
; #@! TA.AperFunction,Plated,PTH,ComponentDrill
T4C0.800
; #@! TA.AperFunction,Plated,PTH,ComponentDrill
T5C0.950
; #@! TA.AperFunction,Plated,PTH,ComponentDrill
T6C1.300
%
G90
G05
T1
X114.92Y-95.82
X115.506Y-50.92
X116.795Y-73.213
X117.102Y-71.782
X117.11Y-86.42
X117.117Y-75.344
X117.463Y-79.671
X118.907Y-64.91
X119.735Y-74.364
X122.078Y-100.58
X122.463Y-76.273
X123.223Y-54.902
X123.878Y-78.882
X124.376Y-76.44
X124.995Y-79.476
X125.052Y-94.235
X126.183Y-61.119
X127.078Y-67.433
X127.635Y-86.526
X127.885Y-76.21
X128.333Y-73.636
X128.819Y-100.58
X129.083Y-75.966
X129.715Y-66.275
X129.784Y-53.157
X131.051Y-62.974
X131.893Y-64.456
X132.643Y-81.48
X132.915Y-90.026
X135.515Y-70.274
X135.561Y-100.58
X137.843Y-76.65
X138.635Y-64.456
X139.164Y-85.411
X139.567Y-53.176
X140.581Y-70.936
X142.302Y-100.58
X142.463Y-80.626
X143.75Y-93.007
X144.05Y-77.791
X144.892Y-80.684
X145.905Y-85.411
X148.651Y-53.892
X149.043Y-100.58
X149.702Y-64.054
X151.288Y-79.82
X152.139Y-92.565
X154.828Y-80.824
X155.228Y-72.127
X155.784Y-100.58
X157.05Y-54.711
X157.831Y-84.279
X158.062Y-65.37
X160.763Y-76.767
X161.141Y-91.137
X162.525Y-100.58
X165.134Y-61.233
X165.528Y-81.722
X166.787Y-53.139
X167.349Y-89.483
X167.563Y-81.803
X167.922Y-75.709
X169.164Y-69.222
X169.266Y-100.58
X170.219Y-75.589
X172.612Y-58.342
X172.921Y-92.866
X175.152Y-84.227
X175.673Y-52.776
X176.007Y-100.58
X177.544Y-77.21
X178.227Y-60.64
X178.582Y-70.146
X179.476Y-93.517
X180.12Y-60.028
X182.391Y-52.901
X182.749Y-100.58
X182.861Y-87.754
X185.557Y-82.115
X186.217Y-73.996
X186.593Y-65.889
X186.854Y-59.256
X188.281Y-91.493
X189.49Y-100.58
X192.346Y-63.071
X192.839Y-77.48
X192.859Y-56.608
X199.58Y-50.92
X199.58Y-63.483
X199.58Y-70.224
X199.58Y-76.965
X199.58Y-83.706
X199.58Y-90.447
X199.58Y-97.188
T2
X118.0Y-84.4
X118.0Y-87.45
X118.0Y-90.5
X118.0Y-93.55
T3
X122.73Y-63.36
X124.0Y-63.36
X125.27Y-63.36
T4
X121.5Y-54.0
X121.5Y-58.5
X126.5Y-54.0
X126.5Y-58.5
X129.0Y-82.5
X130.95Y-86.92
X130.95Y-97.08
X131.0Y-82.5
X131.34Y-66.5
X132.525Y-72.47
X134.525Y-72.47
X135.0Y-78.5
X135.0Y-86.92
X135.0Y-97.08
X137.0Y-78.5
X140.07Y-72.47
X141.5Y-66.5
X142.0Y-78.5
X142.0Y-83.5
X142.07Y-72.47
X146.5Y-78.5
X146.5Y-83.5
X147.5Y-72.5
X149.5Y-72.5
X150.95Y-78.29
X150.95Y-83.29
X156.042Y-78.29
X156.042Y-83.29
X156.75Y-67.5
X156.75Y-72.5
X161.133Y-78.29
X161.133Y-83.29
X164.0Y-67.5
X164.0Y-72.5
X166.225Y-78.29
X166.225Y-83.29
X171.25Y-67.5
X171.25Y-72.5
X171.317Y-78.29
X171.317Y-83.29
X176.408Y-78.29
X176.408Y-83.29
X178.5Y-67.5
X178.5Y-72.5
X181.5Y-78.29
X181.5Y-83.29
X185.75Y-67.5
X185.75Y-72.5
T5
X123.5Y-85.0
X123.5Y-87.5
X123.5Y-90.0
X123.5Y-92.5
X123.5Y-95.0
X123.5Y-97.5
T6
X134.22Y-54.927
X140.57Y-54.927
X141.87Y-91.5
X146.87Y-91.5
X146.92Y-54.927
X153.3Y-55.0
X154.153Y-91.5
X159.153Y-91.5
X159.65Y-55.0
X166.0Y-55.0
X166.435Y-91.5
X171.435Y-91.5
X172.423Y-55.04
X178.718Y-91.5
X178.803Y-55.113
X183.718Y-91.5
X185.153Y-55.113
X191.0Y-91.367
X191.503Y-55.113
X196.0Y-91.367
M30
