%TF.GenerationSoftware,KiCad,Pcbnew,10.0.3*%
%TF.CreationDate,2026-07-16T17:49:25-06:00*%
%TF.ProjectId,DC2209A1,44433232-3039-4413-912e-6b696361645f,rev?*%
%TF.SameCoordinates,Original*%
%TF.FileFunction,Soldermask,Bot*%
%TF.FilePolarity,Negative*%
%FSLAX46Y46*%
G04 Gerber Fmt 4.6, Leading zero omitted, Abs format (unit mm)*
G04 Created by KiCad (PCBNEW 10.0.3) date 2026-07-16 17:49:25*
%MOMM*%
%LPD*%
G01*
G04 APERTURE LIST*
G04 APERTURE END LIST*
G36*
X116756790Y-97930393D02*
G01*
X116920952Y-97983733D01*
X117074748Y-98062096D01*
X117214393Y-98163553D01*
X117336447Y-98285607D01*
X117437904Y-98425252D01*
X117516267Y-98579048D01*
X117569607Y-98743210D01*
X117596609Y-98913695D01*
X117596609Y-99086305D01*
X117569607Y-99256790D01*
X117516267Y-99420952D01*
X117437904Y-99574748D01*
X117336447Y-99714393D01*
X117214393Y-99836447D01*
X117074748Y-99937904D01*
X116920952Y-100016267D01*
X116756790Y-100069607D01*
X116586305Y-100096609D01*
X116413695Y-100096609D01*
X116243210Y-100069607D01*
X116079048Y-100016267D01*
X115925252Y-99937904D01*
X115785607Y-99836447D01*
X115663553Y-99714393D01*
X115562096Y-99574748D01*
X115483733Y-99420952D01*
X115430393Y-99256790D01*
X115403391Y-99086305D01*
X115403391Y-98913695D01*
X115430393Y-98743210D01*
X115483733Y-98579048D01*
X115562096Y-98425252D01*
X115663553Y-98285607D01*
X115785607Y-98163553D01*
X115925252Y-98062096D01*
X116079048Y-97983733D01*
X116243210Y-97930393D01*
X116413695Y-97903391D01*
X116586305Y-97903391D01*
X116756790Y-97930393D01*
G37*
G36*
X197756790Y-97430393D02*
G01*
X197920952Y-97483733D01*
X198074748Y-97562096D01*
X198214393Y-97663553D01*
X198336447Y-97785607D01*
X198437904Y-97925252D01*
X198516267Y-98079048D01*
X198569607Y-98243210D01*
X198596609Y-98413695D01*
X198596609Y-98586305D01*
X198569607Y-98756790D01*
X198516267Y-98920952D01*
X198437904Y-99074748D01*
X198336447Y-99214393D01*
X198214393Y-99336447D01*
X198074748Y-99437904D01*
X197920952Y-99516267D01*
X197756790Y-99569607D01*
X197586305Y-99596609D01*
X197413695Y-99596609D01*
X197243210Y-99569607D01*
X197079048Y-99516267D01*
X196925252Y-99437904D01*
X196785607Y-99336447D01*
X196663553Y-99214393D01*
X196562096Y-99074748D01*
X196483733Y-98920952D01*
X196430393Y-98756790D01*
X196403391Y-98586305D01*
X196403391Y-98413695D01*
X196430393Y-98243210D01*
X196483733Y-98079048D01*
X196562096Y-97925252D01*
X196663553Y-97785607D01*
X196785607Y-97663553D01*
X196925252Y-97562096D01*
X197079048Y-97483733D01*
X197243210Y-97430393D01*
X197413695Y-97403391D01*
X197586305Y-97403391D01*
X197756790Y-97430393D01*
G37*
G36*
X123708315Y-96654093D02*
G01*
X123871742Y-96686601D01*
X124025687Y-96750367D01*
X124164234Y-96842941D01*
X124282059Y-96960766D01*
X124374633Y-97099313D01*
X124438399Y-97253258D01*
X124470907Y-97416685D01*
X124470907Y-97583315D01*
X124438399Y-97746742D01*
X124374633Y-97900687D01*
X124282059Y-98039234D01*
X124164234Y-98157059D01*
X124025687Y-98249633D01*
X123871742Y-98313399D01*
X123708315Y-98345907D01*
X123625000Y-98350000D01*
X123623768Y-98350000D01*
X123376232Y-98350000D01*
X123375000Y-98350000D01*
X123291685Y-98345907D01*
X123128258Y-98313399D01*
X122974313Y-98249633D01*
X122835766Y-98157059D01*
X122717941Y-98039234D01*
X122625367Y-97900687D01*
X122561601Y-97746742D01*
X122529093Y-97583315D01*
X122529093Y-97416685D01*
X122561601Y-97253258D01*
X122625367Y-97099313D01*
X122717941Y-96960766D01*
X122835766Y-96842941D01*
X122974313Y-96750367D01*
X123128258Y-96686601D01*
X123291685Y-96654093D01*
X123375000Y-96650000D01*
X123625000Y-96650000D01*
X123708315Y-96654093D01*
G37*
G36*
X131182228Y-96314448D02*
G01*
X131327117Y-96374463D01*
X131457515Y-96461592D01*
X131568408Y-96572485D01*
X131655537Y-96702883D01*
X131715552Y-96847772D01*
X131746148Y-97001586D01*
X131746148Y-97158414D01*
X131715552Y-97312228D01*
X131655537Y-97457117D01*
X131568408Y-97587515D01*
X131457515Y-97698408D01*
X131327117Y-97785537D01*
X131182228Y-97845552D01*
X131028414Y-97876148D01*
X130871586Y-97876148D01*
X130717772Y-97845552D01*
X130572883Y-97785537D01*
X130442485Y-97698408D01*
X130331592Y-97587515D01*
X130244463Y-97457117D01*
X130184448Y-97312228D01*
X130153852Y-97158414D01*
X130153852Y-97001586D01*
X130184448Y-96847772D01*
X130244463Y-96702883D01*
X130331592Y-96572485D01*
X130442485Y-96461592D01*
X130572883Y-96374463D01*
X130717772Y-96314448D01*
X130871586Y-96283852D01*
X131028414Y-96283852D01*
X131182228Y-96314448D01*
G37*
G36*
X135232228Y-96314448D02*
G01*
X135377117Y-96374463D01*
X135507515Y-96461592D01*
X135618408Y-96572485D01*
X135705537Y-96702883D01*
X135765552Y-96847772D01*
X135796148Y-97001586D01*
X135796148Y-97158414D01*
X135765552Y-97312228D01*
X135705537Y-97457117D01*
X135618408Y-97587515D01*
X135507515Y-97698408D01*
X135377117Y-97785537D01*
X135232228Y-97845552D01*
X135078414Y-97876148D01*
X134921586Y-97876148D01*
X134767772Y-97845552D01*
X134622883Y-97785537D01*
X134492485Y-97698408D01*
X134381592Y-97587515D01*
X134294463Y-97457117D01*
X134234448Y-97312228D01*
X134203852Y-97158414D01*
X134203852Y-97001586D01*
X134234448Y-96847772D01*
X134294463Y-96702883D01*
X134381592Y-96572485D01*
X134492485Y-96461592D01*
X134622883Y-96374463D01*
X134767772Y-96314448D01*
X134921586Y-96283852D01*
X135078414Y-96283852D01*
X135232228Y-96314448D01*
G37*
G36*
X123708315Y-94154093D02*
G01*
X123871742Y-94186601D01*
X124025687Y-94250367D01*
X124164234Y-94342941D01*
X124282059Y-94460766D01*
X124374633Y-94599313D01*
X124438399Y-94753258D01*
X124470907Y-94916685D01*
X124470907Y-95083315D01*
X124438399Y-95246742D01*
X124374633Y-95400687D01*
X124282059Y-95539234D01*
X124164234Y-95657059D01*
X124025687Y-95749633D01*
X123871742Y-95813399D01*
X123708315Y-95845907D01*
X123625000Y-95850000D01*
X123623768Y-95850000D01*
X123376232Y-95850000D01*
X123375000Y-95850000D01*
X123291685Y-95845907D01*
X123128258Y-95813399D01*
X122974313Y-95749633D01*
X122835766Y-95657059D01*
X122717941Y-95539234D01*
X122625367Y-95400687D01*
X122561601Y-95246742D01*
X122529093Y-95083315D01*
X122529093Y-94916685D01*
X122561601Y-94753258D01*
X122625367Y-94599313D01*
X122717941Y-94460766D01*
X122835766Y-94342941D01*
X122974313Y-94250367D01*
X123128258Y-94186601D01*
X123291685Y-94154093D01*
X123375000Y-94150000D01*
X123625000Y-94150000D01*
X123708315Y-94154093D01*
G37*
G36*
X118191342Y-93088060D02*
G01*
X118304381Y-93153323D01*
X118396677Y-93245619D01*
X118461940Y-93358658D01*
X118495722Y-93484737D01*
X118495722Y-93615263D01*
X118461940Y-93741342D01*
X118396677Y-93854381D01*
X118304381Y-93946677D01*
X118191342Y-94011940D01*
X118065263Y-94045722D01*
X117934737Y-94045722D01*
X117808658Y-94011940D01*
X117695619Y-93946677D01*
X117603323Y-93854381D01*
X117538060Y-93741342D01*
X117504278Y-93615263D01*
X117504278Y-93484737D01*
X117538060Y-93358658D01*
X117603323Y-93245619D01*
X117695619Y-93153323D01*
X117808658Y-93088060D01*
X117934737Y-93054278D01*
X118065263Y-93054278D01*
X118191342Y-93088060D01*
G37*
G36*
X123708315Y-91654093D02*
G01*
X123871742Y-91686601D01*
X124025687Y-91750367D01*
X124164234Y-91842941D01*
X124282059Y-91960766D01*
X124374633Y-92099313D01*
X124438399Y-92253258D01*
X124470907Y-92416685D01*
X124470907Y-92583315D01*
X124438399Y-92746742D01*
X124374633Y-92900687D01*
X124282059Y-93039234D01*
X124164234Y-93157059D01*
X124025687Y-93249633D01*
X123871742Y-93313399D01*
X123708315Y-93345907D01*
X123625000Y-93350000D01*
X123623768Y-93350000D01*
X123376232Y-93350000D01*
X123375000Y-93350000D01*
X123291685Y-93345907D01*
X123128258Y-93313399D01*
X122974313Y-93249633D01*
X122835766Y-93157059D01*
X122717941Y-93039234D01*
X122625367Y-92900687D01*
X122561601Y-92746742D01*
X122529093Y-92583315D01*
X122529093Y-92416685D01*
X122561601Y-92253258D01*
X122625367Y-92099313D01*
X122717941Y-91960766D01*
X122835766Y-91842941D01*
X122974313Y-91750367D01*
X123128258Y-91686601D01*
X123291685Y-91654093D01*
X123375000Y-91650000D01*
X123625000Y-91650000D01*
X123708315Y-91654093D01*
G37*
G36*
X142874047Y-90250805D02*
G01*
X142925408Y-90256764D01*
X142942954Y-90264511D01*
X142965671Y-90269030D01*
X142989991Y-90285280D01*
X143010793Y-90294465D01*
X143025000Y-90308672D01*
X143046777Y-90323223D01*
X143061327Y-90344999D01*
X143075534Y-90359206D01*
X143084718Y-90380006D01*
X143100970Y-90404329D01*
X143105489Y-90427048D01*
X143113235Y-90444591D01*
X143119192Y-90495940D01*
X143120000Y-90500000D01*
X143120000Y-92500000D01*
X143119192Y-92504059D01*
X143113235Y-92555408D01*
X143105489Y-92572950D01*
X143100970Y-92595671D01*
X143084716Y-92619995D01*
X143075534Y-92640793D01*
X143061329Y-92654997D01*
X143046777Y-92676777D01*
X143024997Y-92691329D01*
X143010793Y-92705534D01*
X142989995Y-92714716D01*
X142965671Y-92730970D01*
X142942950Y-92735489D01*
X142925408Y-92743235D01*
X142874061Y-92749192D01*
X142870000Y-92750000D01*
X140870000Y-92750000D01*
X140865941Y-92749192D01*
X140814591Y-92743235D01*
X140797048Y-92735489D01*
X140774329Y-92730970D01*
X140750006Y-92714718D01*
X140729206Y-92705534D01*
X140714999Y-92691327D01*
X140693223Y-92676777D01*
X140678672Y-92655000D01*
X140664465Y-92640793D01*
X140655280Y-92619991D01*
X140639030Y-92595671D01*
X140634511Y-92572954D01*
X140626764Y-92555408D01*
X140620805Y-92504049D01*
X140620000Y-92500000D01*
X140620000Y-90500000D01*
X140620804Y-90495953D01*
X140626764Y-90444591D01*
X140634511Y-90427043D01*
X140639030Y-90404329D01*
X140655278Y-90380010D01*
X140664465Y-90359206D01*
X140678674Y-90344996D01*
X140693223Y-90323223D01*
X140714996Y-90308674D01*
X140729206Y-90294465D01*
X140750010Y-90285278D01*
X140774329Y-90269030D01*
X140797043Y-90264511D01*
X140814591Y-90256764D01*
X140865952Y-90250805D01*
X140870000Y-90250000D01*
X142870000Y-90250000D01*
X142874047Y-90250805D01*
G37*
G36*
X155156547Y-90250805D02*
G01*
X155207908Y-90256764D01*
X155225454Y-90264511D01*
X155248171Y-90269030D01*
X155272491Y-90285280D01*
X155293293Y-90294465D01*
X155307500Y-90308672D01*
X155329277Y-90323223D01*
X155343827Y-90344999D01*
X155358034Y-90359206D01*
X155367218Y-90380006D01*
X155383470Y-90404329D01*
X155387989Y-90427048D01*
X155395735Y-90444591D01*
X155401692Y-90495940D01*
X155402500Y-90500000D01*
X155402500Y-92500000D01*
X155401692Y-92504059D01*
X155395735Y-92555408D01*
X155387989Y-92572950D01*
X155383470Y-92595671D01*
X155367216Y-92619995D01*
X155358034Y-92640793D01*
X155343829Y-92654997D01*
X155329277Y-92676777D01*
X155307497Y-92691329D01*
X155293293Y-92705534D01*
X155272495Y-92714716D01*
X155248171Y-92730970D01*
X155225450Y-92735489D01*
X155207908Y-92743235D01*
X155156561Y-92749192D01*
X155152500Y-92750000D01*
X153152500Y-92750000D01*
X153148441Y-92749192D01*
X153097091Y-92743235D01*
X153079548Y-92735489D01*
X153056829Y-92730970D01*
X153032506Y-92714718D01*
X153011706Y-92705534D01*
X152997499Y-92691327D01*
X152975723Y-92676777D01*
X152961172Y-92655000D01*
X152946965Y-92640793D01*
X152937780Y-92619991D01*
X152921530Y-92595671D01*
X152917011Y-92572954D01*
X152909264Y-92555408D01*
X152903305Y-92504049D01*
X152902500Y-92500000D01*
X152902500Y-90500000D01*
X152903304Y-90495953D01*
X152909264Y-90444591D01*
X152917011Y-90427043D01*
X152921530Y-90404329D01*
X152937778Y-90380010D01*
X152946965Y-90359206D01*
X152961174Y-90344996D01*
X152975723Y-90323223D01*
X152997496Y-90308674D01*
X153011706Y-90294465D01*
X153032510Y-90285278D01*
X153056829Y-90269030D01*
X153079543Y-90264511D01*
X153097091Y-90256764D01*
X153148452Y-90250805D01*
X153152500Y-90250000D01*
X155152500Y-90250000D01*
X155156547Y-90250805D01*
G37*
G36*
X167439047Y-90250805D02*
G01*
X167490408Y-90256764D01*
X167507954Y-90264511D01*
X167530671Y-90269030D01*
X167554991Y-90285280D01*
X167575793Y-90294465D01*
X167590000Y-90308672D01*
X167611777Y-90323223D01*
X167626327Y-90344999D01*
X167640534Y-90359206D01*
X167649718Y-90380006D01*
X167665970Y-90404329D01*
X167670489Y-90427048D01*
X167678235Y-90444591D01*
X167684192Y-90495940D01*
X167685000Y-90500000D01*
X167685000Y-92500000D01*
X167684192Y-92504059D01*
X167678235Y-92555408D01*
X167670489Y-92572950D01*
X167665970Y-92595671D01*
X167649716Y-92619995D01*
X167640534Y-92640793D01*
X167626329Y-92654997D01*
X167611777Y-92676777D01*
X167589997Y-92691329D01*
X167575793Y-92705534D01*
X167554995Y-92714716D01*
X167530671Y-92730970D01*
X167507950Y-92735489D01*
X167490408Y-92743235D01*
X167439061Y-92749192D01*
X167435000Y-92750000D01*
X165435000Y-92750000D01*
X165430941Y-92749192D01*
X165379591Y-92743235D01*
X165362048Y-92735489D01*
X165339329Y-92730970D01*
X165315006Y-92714718D01*
X165294206Y-92705534D01*
X165279999Y-92691327D01*
X165258223Y-92676777D01*
X165243672Y-92655000D01*
X165229465Y-92640793D01*
X165220280Y-92619991D01*
X165204030Y-92595671D01*
X165199511Y-92572954D01*
X165191764Y-92555408D01*
X165185805Y-92504049D01*
X165185000Y-92500000D01*
X165185000Y-90500000D01*
X165185804Y-90495953D01*
X165191764Y-90444591D01*
X165199511Y-90427043D01*
X165204030Y-90404329D01*
X165220278Y-90380010D01*
X165229465Y-90359206D01*
X165243674Y-90344996D01*
X165258223Y-90323223D01*
X165279996Y-90308674D01*
X165294206Y-90294465D01*
X165315010Y-90285278D01*
X165339329Y-90269030D01*
X165362043Y-90264511D01*
X165379591Y-90256764D01*
X165430952Y-90250805D01*
X165435000Y-90250000D01*
X167435000Y-90250000D01*
X167439047Y-90250805D01*
G37*
G36*
X179721547Y-90250805D02*
G01*
X179772908Y-90256764D01*
X179790454Y-90264511D01*
X179813171Y-90269030D01*
X179837491Y-90285280D01*
X179858293Y-90294465D01*
X179872500Y-90308672D01*
X179894277Y-90323223D01*
X179908827Y-90344999D01*
X179923034Y-90359206D01*
X179932218Y-90380006D01*
X179948470Y-90404329D01*
X179952989Y-90427048D01*
X179960735Y-90444591D01*
X179966692Y-90495940D01*
X179967500Y-90500000D01*
X179967500Y-92500000D01*
X179966692Y-92504059D01*
X179960735Y-92555408D01*
X179952989Y-92572950D01*
X179948470Y-92595671D01*
X179932216Y-92619995D01*
X179923034Y-92640793D01*
X179908829Y-92654997D01*
X179894277Y-92676777D01*
X179872497Y-92691329D01*
X179858293Y-92705534D01*
X179837495Y-92714716D01*
X179813171Y-92730970D01*
X179790450Y-92735489D01*
X179772908Y-92743235D01*
X179721561Y-92749192D01*
X179717500Y-92750000D01*
X177717500Y-92750000D01*
X177713441Y-92749192D01*
X177662091Y-92743235D01*
X177644548Y-92735489D01*
X177621829Y-92730970D01*
X177597506Y-92714718D01*
X177576706Y-92705534D01*
X177562499Y-92691327D01*
X177540723Y-92676777D01*
X177526172Y-92655000D01*
X177511965Y-92640793D01*
X177502780Y-92619991D01*
X177486530Y-92595671D01*
X177482011Y-92572954D01*
X177474264Y-92555408D01*
X177468305Y-92504049D01*
X177467500Y-92500000D01*
X177467500Y-90500000D01*
X177468304Y-90495953D01*
X177474264Y-90444591D01*
X177482011Y-90427043D01*
X177486530Y-90404329D01*
X177502778Y-90380010D01*
X177511965Y-90359206D01*
X177526174Y-90344996D01*
X177540723Y-90323223D01*
X177562496Y-90308674D01*
X177576706Y-90294465D01*
X177597510Y-90285278D01*
X177621829Y-90269030D01*
X177644543Y-90264511D01*
X177662091Y-90256764D01*
X177713452Y-90250805D01*
X177717500Y-90250000D01*
X179717500Y-90250000D01*
X179721547Y-90250805D01*
G37*
G36*
X147161807Y-90284538D02*
G01*
X147348354Y-90345151D01*
X147523123Y-90434200D01*
X147681810Y-90549493D01*
X147820507Y-90688190D01*
X147935800Y-90846877D01*
X148024849Y-91021646D01*
X148085462Y-91208193D01*
X148116147Y-91401926D01*
X148116147Y-91598074D01*
X148085462Y-91791807D01*
X148024849Y-91978354D01*
X147935800Y-92153123D01*
X147820507Y-92311810D01*
X147681810Y-92450507D01*
X147523123Y-92565800D01*
X147348354Y-92654849D01*
X147161807Y-92715462D01*
X146968074Y-92746147D01*
X146771926Y-92746147D01*
X146578193Y-92715462D01*
X146391646Y-92654849D01*
X146216877Y-92565800D01*
X146058190Y-92450507D01*
X145919493Y-92311810D01*
X145804200Y-92153123D01*
X145715151Y-91978354D01*
X145654538Y-91791807D01*
X145623853Y-91598074D01*
X145623853Y-91401926D01*
X145654538Y-91208193D01*
X145715151Y-91021646D01*
X145804200Y-90846877D01*
X145919493Y-90688190D01*
X146058190Y-90549493D01*
X146216877Y-90434200D01*
X146391646Y-90345151D01*
X146578193Y-90284538D01*
X146771926Y-90253853D01*
X146968074Y-90253853D01*
X147161807Y-90284538D01*
G37*
G36*
X159444307Y-90284538D02*
G01*
X159630854Y-90345151D01*
X159805623Y-90434200D01*
X159964310Y-90549493D01*
X160103007Y-90688190D01*
X160218300Y-90846877D01*
X160307349Y-91021646D01*
X160367962Y-91208193D01*
X160398647Y-91401926D01*
X160398647Y-91598074D01*
X160367962Y-91791807D01*
X160307349Y-91978354D01*
X160218300Y-92153123D01*
X160103007Y-92311810D01*
X159964310Y-92450507D01*
X159805623Y-92565800D01*
X159630854Y-92654849D01*
X159444307Y-92715462D01*
X159250574Y-92746147D01*
X159054426Y-92746147D01*
X158860693Y-92715462D01*
X158674146Y-92654849D01*
X158499377Y-92565800D01*
X158340690Y-92450507D01*
X158201993Y-92311810D01*
X158086700Y-92153123D01*
X157997651Y-91978354D01*
X157937038Y-91791807D01*
X157906353Y-91598074D01*
X157906353Y-91401926D01*
X157937038Y-91208193D01*
X157997651Y-91021646D01*
X158086700Y-90846877D01*
X158201993Y-90688190D01*
X158340690Y-90549493D01*
X158499377Y-90434200D01*
X158674146Y-90345151D01*
X158860693Y-90284538D01*
X159054426Y-90253853D01*
X159250574Y-90253853D01*
X159444307Y-90284538D01*
G37*
G36*
X171726807Y-90284538D02*
G01*
X171913354Y-90345151D01*
X172088123Y-90434200D01*
X172246810Y-90549493D01*
X172385507Y-90688190D01*
X172500800Y-90846877D01*
X172589849Y-91021646D01*
X172650462Y-91208193D01*
X172681147Y-91401926D01*
X172681147Y-91598074D01*
X172650462Y-91791807D01*
X172589849Y-91978354D01*
X172500800Y-92153123D01*
X172385507Y-92311810D01*
X172246810Y-92450507D01*
X172088123Y-92565800D01*
X171913354Y-92654849D01*
X171726807Y-92715462D01*
X171533074Y-92746147D01*
X171336926Y-92746147D01*
X171143193Y-92715462D01*
X170956646Y-92654849D01*
X170781877Y-92565800D01*
X170623190Y-92450507D01*
X170484493Y-92311810D01*
X170369200Y-92153123D01*
X170280151Y-91978354D01*
X170219538Y-91791807D01*
X170188853Y-91598074D01*
X170188853Y-91401926D01*
X170219538Y-91208193D01*
X170280151Y-91021646D01*
X170369200Y-90846877D01*
X170484493Y-90688190D01*
X170623190Y-90549493D01*
X170781877Y-90434200D01*
X170956646Y-90345151D01*
X171143193Y-90284538D01*
X171336926Y-90253853D01*
X171533074Y-90253853D01*
X171726807Y-90284538D01*
G37*
G36*
X184009307Y-90284538D02*
G01*
X184195854Y-90345151D01*
X184370623Y-90434200D01*
X184529310Y-90549493D01*
X184668007Y-90688190D01*
X184783300Y-90846877D01*
X184872349Y-91021646D01*
X184932962Y-91208193D01*
X184963647Y-91401926D01*
X184963647Y-91598074D01*
X184932962Y-91791807D01*
X184872349Y-91978354D01*
X184783300Y-92153123D01*
X184668007Y-92311810D01*
X184529310Y-92450507D01*
X184370623Y-92565800D01*
X184195854Y-92654849D01*
X184009307Y-92715462D01*
X183815574Y-92746147D01*
X183619426Y-92746147D01*
X183425693Y-92715462D01*
X183239146Y-92654849D01*
X183064377Y-92565800D01*
X182905690Y-92450507D01*
X182766993Y-92311810D01*
X182651700Y-92153123D01*
X182562651Y-91978354D01*
X182502038Y-91791807D01*
X182471353Y-91598074D01*
X182471353Y-91401926D01*
X182502038Y-91208193D01*
X182562651Y-91021646D01*
X182651700Y-90846877D01*
X182766993Y-90688190D01*
X182905690Y-90549493D01*
X183064377Y-90434200D01*
X183239146Y-90345151D01*
X183425693Y-90284538D01*
X183619426Y-90253853D01*
X183815574Y-90253853D01*
X184009307Y-90284538D01*
G37*
G36*
X192004047Y-90118305D02*
G01*
X192055408Y-90124264D01*
X192072954Y-90132011D01*
X192095671Y-90136530D01*
X192119991Y-90152780D01*
X192140793Y-90161965D01*
X192155000Y-90176172D01*
X192176777Y-90190723D01*
X192191327Y-90212499D01*
X192205534Y-90226706D01*
X192214718Y-90247506D01*
X192230970Y-90271829D01*
X192235489Y-90294548D01*
X192243235Y-90312091D01*
X192249192Y-90363440D01*
X192250000Y-90367500D01*
X192250000Y-92367500D01*
X192249192Y-92371559D01*
X192243235Y-92422908D01*
X192235489Y-92440450D01*
X192230970Y-92463171D01*
X192214716Y-92487495D01*
X192205534Y-92508293D01*
X192191329Y-92522497D01*
X192176777Y-92544277D01*
X192154997Y-92558829D01*
X192140793Y-92573034D01*
X192119995Y-92582216D01*
X192095671Y-92598470D01*
X192072950Y-92602989D01*
X192055408Y-92610735D01*
X192004061Y-92616692D01*
X192000000Y-92617500D01*
X190000000Y-92617500D01*
X189995941Y-92616692D01*
X189944591Y-92610735D01*
X189927048Y-92602989D01*
X189904329Y-92598470D01*
X189880006Y-92582218D01*
X189859206Y-92573034D01*
X189844999Y-92558827D01*
X189823223Y-92544277D01*
X189808672Y-92522500D01*
X189794465Y-92508293D01*
X189785280Y-92487491D01*
X189769030Y-92463171D01*
X189764511Y-92440454D01*
X189756764Y-92422908D01*
X189750805Y-92371549D01*
X189750000Y-92367500D01*
X189750000Y-90367500D01*
X189750804Y-90363453D01*
X189756764Y-90312091D01*
X189764511Y-90294543D01*
X189769030Y-90271829D01*
X189785278Y-90247510D01*
X189794465Y-90226706D01*
X189808674Y-90212496D01*
X189823223Y-90190723D01*
X189844996Y-90176174D01*
X189859206Y-90161965D01*
X189880010Y-90152778D01*
X189904329Y-90136530D01*
X189927043Y-90132011D01*
X189944591Y-90124264D01*
X189995952Y-90118305D01*
X190000000Y-90117500D01*
X192000000Y-90117500D01*
X192004047Y-90118305D01*
G37*
G36*
X196291807Y-90152038D02*
G01*
X196478354Y-90212651D01*
X196653123Y-90301700D01*
X196811810Y-90416993D01*
X196950507Y-90555690D01*
X197065800Y-90714377D01*
X197154849Y-90889146D01*
X197215462Y-91075693D01*
X197246147Y-91269426D01*
X197246147Y-91465574D01*
X197215462Y-91659307D01*
X197154849Y-91845854D01*
X197065800Y-92020623D01*
X196950507Y-92179310D01*
X196811810Y-92318007D01*
X196653123Y-92433300D01*
X196478354Y-92522349D01*
X196291807Y-92582962D01*
X196098074Y-92613647D01*
X195901926Y-92613647D01*
X195708193Y-92582962D01*
X195521646Y-92522349D01*
X195346877Y-92433300D01*
X195188190Y-92318007D01*
X195049493Y-92179310D01*
X194934200Y-92020623D01*
X194845151Y-91845854D01*
X194784538Y-91659307D01*
X194753853Y-91465574D01*
X194753853Y-91269426D01*
X194784538Y-91075693D01*
X194845151Y-90889146D01*
X194934200Y-90714377D01*
X195049493Y-90555690D01*
X195188190Y-90416993D01*
X195346877Y-90301700D01*
X195521646Y-90212651D01*
X195708193Y-90152038D01*
X195901926Y-90121353D01*
X196098074Y-90121353D01*
X196291807Y-90152038D01*
G37*
G36*
X118191342Y-90038060D02*
G01*
X118304381Y-90103323D01*
X118396677Y-90195619D01*
X118461940Y-90308658D01*
X118495722Y-90434737D01*
X118495722Y-90565263D01*
X118461940Y-90691342D01*
X118396677Y-90804381D01*
X118304381Y-90896677D01*
X118191342Y-90961940D01*
X118065263Y-90995722D01*
X117934737Y-90995722D01*
X117808658Y-90961940D01*
X117695619Y-90896677D01*
X117603323Y-90804381D01*
X117538060Y-90691342D01*
X117504278Y-90565263D01*
X117504278Y-90434737D01*
X117538060Y-90308658D01*
X117603323Y-90195619D01*
X117695619Y-90103323D01*
X117808658Y-90038060D01*
X117934737Y-90004278D01*
X118065263Y-90004278D01*
X118191342Y-90038060D01*
G37*
G36*
X123708315Y-89154093D02*
G01*
X123871742Y-89186601D01*
X124025687Y-89250367D01*
X124164234Y-89342941D01*
X124282059Y-89460766D01*
X124374633Y-89599313D01*
X124438399Y-89753258D01*
X124470907Y-89916685D01*
X124470907Y-90083315D01*
X124438399Y-90246742D01*
X124374633Y-90400687D01*
X124282059Y-90539234D01*
X124164234Y-90657059D01*
X124025687Y-90749633D01*
X123871742Y-90813399D01*
X123708315Y-90845907D01*
X123625000Y-90850000D01*
X123623768Y-90850000D01*
X123376232Y-90850000D01*
X123375000Y-90850000D01*
X123291685Y-90845907D01*
X123128258Y-90813399D01*
X122974313Y-90749633D01*
X122835766Y-90657059D01*
X122717941Y-90539234D01*
X122625367Y-90400687D01*
X122561601Y-90246742D01*
X122529093Y-90083315D01*
X122529093Y-89916685D01*
X122561601Y-89753258D01*
X122625367Y-89599313D01*
X122717941Y-89460766D01*
X122835766Y-89342941D01*
X122974313Y-89250367D01*
X123128258Y-89186601D01*
X123291685Y-89154093D01*
X123375000Y-89150000D01*
X123625000Y-89150000D01*
X123708315Y-89154093D01*
G37*
G36*
X123708315Y-86654093D02*
G01*
X123871742Y-86686601D01*
X124025687Y-86750367D01*
X124164234Y-86842941D01*
X124282059Y-86960766D01*
X124374633Y-87099313D01*
X124438399Y-87253258D01*
X124470907Y-87416685D01*
X124470907Y-87583315D01*
X124438399Y-87746742D01*
X124374633Y-87900687D01*
X124282059Y-88039234D01*
X124164234Y-88157059D01*
X124025687Y-88249633D01*
X123871742Y-88313399D01*
X123708315Y-88345907D01*
X123625000Y-88350000D01*
X123623768Y-88350000D01*
X123376232Y-88350000D01*
X123375000Y-88350000D01*
X123291685Y-88345907D01*
X123128258Y-88313399D01*
X122974313Y-88249633D01*
X122835766Y-88157059D01*
X122717941Y-88039234D01*
X122625367Y-87900687D01*
X122561601Y-87746742D01*
X122529093Y-87583315D01*
X122529093Y-87416685D01*
X122561601Y-87253258D01*
X122625367Y-87099313D01*
X122717941Y-86960766D01*
X122835766Y-86842941D01*
X122974313Y-86750367D01*
X123128258Y-86686601D01*
X123291685Y-86654093D01*
X123375000Y-86650000D01*
X123625000Y-86650000D01*
X123708315Y-86654093D01*
G37*
G36*
X118191342Y-86988060D02*
G01*
X118304381Y-87053323D01*
X118396677Y-87145619D01*
X118461940Y-87258658D01*
X118495722Y-87384737D01*
X118495722Y-87515263D01*
X118461940Y-87641342D01*
X118396677Y-87754381D01*
X118304381Y-87846677D01*
X118191342Y-87911940D01*
X118065263Y-87945722D01*
X117934737Y-87945722D01*
X117808658Y-87911940D01*
X117695619Y-87846677D01*
X117603323Y-87754381D01*
X117538060Y-87641342D01*
X117504278Y-87515263D01*
X117504278Y-87384737D01*
X117538060Y-87258658D01*
X117603323Y-87145619D01*
X117695619Y-87053323D01*
X117808658Y-86988060D01*
X117934737Y-86954278D01*
X118065263Y-86954278D01*
X118191342Y-86988060D01*
G37*
G36*
X131182228Y-86154448D02*
G01*
X131327117Y-86214463D01*
X131457515Y-86301592D01*
X131568408Y-86412485D01*
X131655537Y-86542883D01*
X131715552Y-86687772D01*
X131746148Y-86841586D01*
X131746148Y-86998414D01*
X131715552Y-87152228D01*
X131655537Y-87297117D01*
X131568408Y-87427515D01*
X131457515Y-87538408D01*
X131327117Y-87625537D01*
X131182228Y-87685552D01*
X131028414Y-87716148D01*
X130871586Y-87716148D01*
X130717772Y-87685552D01*
X130572883Y-87625537D01*
X130442485Y-87538408D01*
X130331592Y-87427515D01*
X130244463Y-87297117D01*
X130184448Y-87152228D01*
X130153852Y-86998414D01*
X130153852Y-86841586D01*
X130184448Y-86687772D01*
X130244463Y-86542883D01*
X130331592Y-86412485D01*
X130442485Y-86301592D01*
X130572883Y-86214463D01*
X130717772Y-86154448D01*
X130871586Y-86123852D01*
X131028414Y-86123852D01*
X131182228Y-86154448D01*
G37*
G36*
X135232228Y-86154448D02*
G01*
X135377117Y-86214463D01*
X135507515Y-86301592D01*
X135618408Y-86412485D01*
X135705537Y-86542883D01*
X135765552Y-86687772D01*
X135796148Y-86841586D01*
X135796148Y-86998414D01*
X135765552Y-87152228D01*
X135705537Y-87297117D01*
X135618408Y-87427515D01*
X135507515Y-87538408D01*
X135377117Y-87625537D01*
X135232228Y-87685552D01*
X135078414Y-87716148D01*
X134921586Y-87716148D01*
X134767772Y-87685552D01*
X134622883Y-87625537D01*
X134492485Y-87538408D01*
X134381592Y-87427515D01*
X134294463Y-87297117D01*
X134234448Y-87152228D01*
X134203852Y-86998414D01*
X134203852Y-86841586D01*
X134234448Y-86687772D01*
X134294463Y-86542883D01*
X134381592Y-86412485D01*
X134492485Y-86301592D01*
X134622883Y-86214463D01*
X134767772Y-86154448D01*
X134921586Y-86123852D01*
X135078414Y-86123852D01*
X135232228Y-86154448D01*
G37*
G36*
X124229047Y-84150805D02*
G01*
X124280408Y-84156764D01*
X124297954Y-84164511D01*
X124320671Y-84169030D01*
X124344991Y-84185280D01*
X124365793Y-84194465D01*
X124380000Y-84208672D01*
X124401777Y-84223223D01*
X124416327Y-84244999D01*
X124430534Y-84259206D01*
X124439718Y-84280006D01*
X124455970Y-84304329D01*
X124460489Y-84327048D01*
X124468235Y-84344591D01*
X124474192Y-84395940D01*
X124475000Y-84400000D01*
X124475000Y-85600000D01*
X124474192Y-85604059D01*
X124468235Y-85655408D01*
X124460489Y-85672950D01*
X124455970Y-85695671D01*
X124439716Y-85719995D01*
X124430534Y-85740793D01*
X124416329Y-85754997D01*
X124401777Y-85776777D01*
X124379997Y-85791329D01*
X124365793Y-85805534D01*
X124344995Y-85814716D01*
X124320671Y-85830970D01*
X124297950Y-85835489D01*
X124280408Y-85843235D01*
X124229061Y-85849192D01*
X124225000Y-85850000D01*
X122775000Y-85850000D01*
X122770941Y-85849192D01*
X122719591Y-85843235D01*
X122702048Y-85835489D01*
X122679329Y-85830970D01*
X122655006Y-85814718D01*
X122634206Y-85805534D01*
X122619999Y-85791327D01*
X122598223Y-85776777D01*
X122583672Y-85755000D01*
X122569465Y-85740793D01*
X122560280Y-85719991D01*
X122544030Y-85695671D01*
X122539511Y-85672954D01*
X122531764Y-85655408D01*
X122525805Y-85604049D01*
X122525000Y-85600000D01*
X122525000Y-84400000D01*
X122525804Y-84395953D01*
X122531764Y-84344591D01*
X122539511Y-84327043D01*
X122544030Y-84304329D01*
X122560278Y-84280010D01*
X122569465Y-84259206D01*
X122583674Y-84244996D01*
X122598223Y-84223223D01*
X122619996Y-84208674D01*
X122634206Y-84194465D01*
X122655010Y-84185278D01*
X122679329Y-84169030D01*
X122702043Y-84164511D01*
X122719591Y-84156764D01*
X122770952Y-84150805D01*
X122775000Y-84150000D01*
X124225000Y-84150000D01*
X124229047Y-84150805D01*
G37*
G36*
X118191342Y-83938060D02*
G01*
X118304381Y-84003323D01*
X118396677Y-84095619D01*
X118461940Y-84208658D01*
X118495722Y-84334737D01*
X118495722Y-84465263D01*
X118461940Y-84591342D01*
X118396677Y-84704381D01*
X118304381Y-84796677D01*
X118191342Y-84861940D01*
X118065263Y-84895722D01*
X117934737Y-84895722D01*
X117808658Y-84861940D01*
X117695619Y-84796677D01*
X117603323Y-84704381D01*
X117538060Y-84591342D01*
X117504278Y-84465263D01*
X117504278Y-84334737D01*
X117538060Y-84208658D01*
X117603323Y-84095619D01*
X117695619Y-84003323D01*
X117808658Y-83938060D01*
X117934737Y-83904278D01*
X118065263Y-83904278D01*
X118191342Y-83938060D01*
G37*
G36*
X142232228Y-82734448D02*
G01*
X142377117Y-82794463D01*
X142507515Y-82881592D01*
X142618408Y-82992485D01*
X142705537Y-83122883D01*
X142765552Y-83267772D01*
X142796148Y-83421586D01*
X142796148Y-83578414D01*
X142765552Y-83732228D01*
X142705537Y-83877117D01*
X142618408Y-84007515D01*
X142507515Y-84118408D01*
X142377117Y-84205537D01*
X142232228Y-84265552D01*
X142078414Y-84296148D01*
X141921586Y-84296148D01*
X141767772Y-84265552D01*
X141622883Y-84205537D01*
X141492485Y-84118408D01*
X141381592Y-84007515D01*
X141294463Y-83877117D01*
X141234448Y-83732228D01*
X141203852Y-83578414D01*
X141203852Y-83421586D01*
X141234448Y-83267772D01*
X141294463Y-83122883D01*
X141381592Y-82992485D01*
X141492485Y-82881592D01*
X141622883Y-82794463D01*
X141767772Y-82734448D01*
X141921586Y-82703852D01*
X142078414Y-82703852D01*
X142232228Y-82734448D01*
G37*
G36*
X146732228Y-82734448D02*
G01*
X146877117Y-82794463D01*
X147007515Y-82881592D01*
X147118408Y-82992485D01*
X147205537Y-83122883D01*
X147265552Y-83267772D01*
X147296148Y-83421586D01*
X147296148Y-83578414D01*
X147265552Y-83732228D01*
X147205537Y-83877117D01*
X147118408Y-84007515D01*
X147007515Y-84118408D01*
X146877117Y-84205537D01*
X146732228Y-84265552D01*
X146578414Y-84296148D01*
X146421586Y-84296148D01*
X146267772Y-84265552D01*
X146122883Y-84205537D01*
X145992485Y-84118408D01*
X145881592Y-84007515D01*
X145794463Y-83877117D01*
X145734448Y-83732228D01*
X145703852Y-83578414D01*
X145703852Y-83421586D01*
X145734448Y-83267772D01*
X145794463Y-83122883D01*
X145881592Y-82992485D01*
X145992485Y-82881592D01*
X146122883Y-82794463D01*
X146267772Y-82734448D01*
X146421586Y-82703852D01*
X146578414Y-82703852D01*
X146732228Y-82734448D01*
G37*
G36*
X151182228Y-82524223D02*
G01*
X151327117Y-82584238D01*
X151457515Y-82671367D01*
X151568408Y-82782260D01*
X151655537Y-82912658D01*
X151715552Y-83057547D01*
X151746148Y-83211361D01*
X151746148Y-83368189D01*
X151715552Y-83522003D01*
X151655537Y-83666892D01*
X151568408Y-83797290D01*
X151457515Y-83908183D01*
X151327117Y-83995312D01*
X151182228Y-84055327D01*
X151028414Y-84085923D01*
X150871586Y-84085923D01*
X150717772Y-84055327D01*
X150572883Y-83995312D01*
X150442485Y-83908183D01*
X150331592Y-83797290D01*
X150244463Y-83666892D01*
X150184448Y-83522003D01*
X150153852Y-83368189D01*
X150153852Y-83211361D01*
X150184448Y-83057547D01*
X150244463Y-82912658D01*
X150331592Y-82782260D01*
X150442485Y-82671367D01*
X150572883Y-82584238D01*
X150717772Y-82524223D01*
X150871586Y-82493627D01*
X151028414Y-82493627D01*
X151182228Y-82524223D01*
G37*
G36*
X156273895Y-82524223D02*
G01*
X156418784Y-82584238D01*
X156549182Y-82671367D01*
X156660075Y-82782260D01*
X156747204Y-82912658D01*
X156807219Y-83057547D01*
X156837815Y-83211361D01*
X156837815Y-83368189D01*
X156807219Y-83522003D01*
X156747204Y-83666892D01*
X156660075Y-83797290D01*
X156549182Y-83908183D01*
X156418784Y-83995312D01*
X156273895Y-84055327D01*
X156120081Y-84085923D01*
X155963253Y-84085923D01*
X155809439Y-84055327D01*
X155664550Y-83995312D01*
X155534152Y-83908183D01*
X155423259Y-83797290D01*
X155336130Y-83666892D01*
X155276115Y-83522003D01*
X155245519Y-83368189D01*
X155245519Y-83211361D01*
X155276115Y-83057547D01*
X155336130Y-82912658D01*
X155423259Y-82782260D01*
X155534152Y-82671367D01*
X155664550Y-82584238D01*
X155809439Y-82524223D01*
X155963253Y-82493627D01*
X156120081Y-82493627D01*
X156273895Y-82524223D01*
G37*
G36*
X161365561Y-82524223D02*
G01*
X161510450Y-82584238D01*
X161640848Y-82671367D01*
X161751741Y-82782260D01*
X161838870Y-82912658D01*
X161898885Y-83057547D01*
X161929481Y-83211361D01*
X161929481Y-83368189D01*
X161898885Y-83522003D01*
X161838870Y-83666892D01*
X161751741Y-83797290D01*
X161640848Y-83908183D01*
X161510450Y-83995312D01*
X161365561Y-84055327D01*
X161211747Y-84085923D01*
X161054919Y-84085923D01*
X160901105Y-84055327D01*
X160756216Y-83995312D01*
X160625818Y-83908183D01*
X160514925Y-83797290D01*
X160427796Y-83666892D01*
X160367781Y-83522003D01*
X160337185Y-83368189D01*
X160337185Y-83211361D01*
X160367781Y-83057547D01*
X160427796Y-82912658D01*
X160514925Y-82782260D01*
X160625818Y-82671367D01*
X160756216Y-82584238D01*
X160901105Y-82524223D01*
X161054919Y-82493627D01*
X161211747Y-82493627D01*
X161365561Y-82524223D01*
G37*
G36*
X166457228Y-82524223D02*
G01*
X166602117Y-82584238D01*
X166732515Y-82671367D01*
X166843408Y-82782260D01*
X166930537Y-82912658D01*
X166990552Y-83057547D01*
X167021148Y-83211361D01*
X167021148Y-83368189D01*
X166990552Y-83522003D01*
X166930537Y-83666892D01*
X166843408Y-83797290D01*
X166732515Y-83908183D01*
X166602117Y-83995312D01*
X166457228Y-84055327D01*
X166303414Y-84085923D01*
X166146586Y-84085923D01*
X165992772Y-84055327D01*
X165847883Y-83995312D01*
X165717485Y-83908183D01*
X165606592Y-83797290D01*
X165519463Y-83666892D01*
X165459448Y-83522003D01*
X165428852Y-83368189D01*
X165428852Y-83211361D01*
X165459448Y-83057547D01*
X165519463Y-82912658D01*
X165606592Y-82782260D01*
X165717485Y-82671367D01*
X165847883Y-82584238D01*
X165992772Y-82524223D01*
X166146586Y-82493627D01*
X166303414Y-82493627D01*
X166457228Y-82524223D01*
G37*
G36*
X171548895Y-82524223D02*
G01*
X171693784Y-82584238D01*
X171824182Y-82671367D01*
X171935075Y-82782260D01*
X172022204Y-82912658D01*
X172082219Y-83057547D01*
X172112815Y-83211361D01*
X172112815Y-83368189D01*
X172082219Y-83522003D01*
X172022204Y-83666892D01*
X171935075Y-83797290D01*
X171824182Y-83908183D01*
X171693784Y-83995312D01*
X171548895Y-84055327D01*
X171395081Y-84085923D01*
X171238253Y-84085923D01*
X171084439Y-84055327D01*
X170939550Y-83995312D01*
X170809152Y-83908183D01*
X170698259Y-83797290D01*
X170611130Y-83666892D01*
X170551115Y-83522003D01*
X170520519Y-83368189D01*
X170520519Y-83211361D01*
X170551115Y-83057547D01*
X170611130Y-82912658D01*
X170698259Y-82782260D01*
X170809152Y-82671367D01*
X170939550Y-82584238D01*
X171084439Y-82524223D01*
X171238253Y-82493627D01*
X171395081Y-82493627D01*
X171548895Y-82524223D01*
G37*
G36*
X176640561Y-82524223D02*
G01*
X176785450Y-82584238D01*
X176915848Y-82671367D01*
X177026741Y-82782260D01*
X177113870Y-82912658D01*
X177173885Y-83057547D01*
X177204481Y-83211361D01*
X177204481Y-83368189D01*
X177173885Y-83522003D01*
X177113870Y-83666892D01*
X177026741Y-83797290D01*
X176915848Y-83908183D01*
X176785450Y-83995312D01*
X176640561Y-84055327D01*
X176486747Y-84085923D01*
X176329919Y-84085923D01*
X176176105Y-84055327D01*
X176031216Y-83995312D01*
X175900818Y-83908183D01*
X175789925Y-83797290D01*
X175702796Y-83666892D01*
X175642781Y-83522003D01*
X175612185Y-83368189D01*
X175612185Y-83211361D01*
X175642781Y-83057547D01*
X175702796Y-82912658D01*
X175789925Y-82782260D01*
X175900818Y-82671367D01*
X176031216Y-82584238D01*
X176176105Y-82524223D01*
X176329919Y-82493627D01*
X176486747Y-82493627D01*
X176640561Y-82524223D01*
G37*
G36*
X181732228Y-82524223D02*
G01*
X181877117Y-82584238D01*
X182007515Y-82671367D01*
X182118408Y-82782260D01*
X182205537Y-82912658D01*
X182265552Y-83057547D01*
X182296148Y-83211361D01*
X182296148Y-83368189D01*
X182265552Y-83522003D01*
X182205537Y-83666892D01*
X182118408Y-83797290D01*
X182007515Y-83908183D01*
X181877117Y-83995312D01*
X181732228Y-84055327D01*
X181578414Y-84085923D01*
X181421586Y-84085923D01*
X181267772Y-84055327D01*
X181122883Y-83995312D01*
X180992485Y-83908183D01*
X180881592Y-83797290D01*
X180794463Y-83666892D01*
X180734448Y-83522003D01*
X180703852Y-83368189D01*
X180703852Y-83211361D01*
X180734448Y-83057547D01*
X180794463Y-82912658D01*
X180881592Y-82782260D01*
X180992485Y-82671367D01*
X181122883Y-82584238D01*
X181267772Y-82524223D01*
X181421586Y-82493627D01*
X181578414Y-82493627D01*
X181732228Y-82524223D01*
G37*
G36*
X129554047Y-81700805D02*
G01*
X129605408Y-81706764D01*
X129622954Y-81714511D01*
X129645671Y-81719030D01*
X129669991Y-81735280D01*
X129690793Y-81744465D01*
X129705000Y-81758672D01*
X129726777Y-81773223D01*
X129741327Y-81794999D01*
X129755534Y-81809206D01*
X129764718Y-81830006D01*
X129780970Y-81854329D01*
X129785489Y-81877048D01*
X129793235Y-81894591D01*
X129799192Y-81945940D01*
X129800000Y-81950000D01*
X129800000Y-83050000D01*
X129799192Y-83054059D01*
X129793235Y-83105408D01*
X129785489Y-83122950D01*
X129780970Y-83145671D01*
X129764716Y-83169995D01*
X129755534Y-83190793D01*
X129741329Y-83204997D01*
X129726777Y-83226777D01*
X129704997Y-83241329D01*
X129690793Y-83255534D01*
X129669995Y-83264716D01*
X129645671Y-83280970D01*
X129622950Y-83285489D01*
X129605408Y-83293235D01*
X129554061Y-83299192D01*
X129550000Y-83300000D01*
X128450000Y-83300000D01*
X128445941Y-83299192D01*
X128394591Y-83293235D01*
X128377048Y-83285489D01*
X128354329Y-83280970D01*
X128330006Y-83264718D01*
X128309206Y-83255534D01*
X128294999Y-83241327D01*
X128273223Y-83226777D01*
X128258672Y-83205000D01*
X128244465Y-83190793D01*
X128235280Y-83169991D01*
X128219030Y-83145671D01*
X128214511Y-83122954D01*
X128206764Y-83105408D01*
X128200805Y-83054049D01*
X128200000Y-83050000D01*
X128200000Y-81950000D01*
X128200804Y-81945953D01*
X128206764Y-81894591D01*
X128214511Y-81877043D01*
X128219030Y-81854329D01*
X128235278Y-81830010D01*
X128244465Y-81809206D01*
X128258674Y-81794996D01*
X128273223Y-81773223D01*
X128294996Y-81758674D01*
X128309206Y-81744465D01*
X128330010Y-81735278D01*
X128354329Y-81719030D01*
X128377043Y-81714511D01*
X128394591Y-81706764D01*
X128445952Y-81700805D01*
X128450000Y-81700000D01*
X129550000Y-81700000D01*
X129554047Y-81700805D01*
G37*
G36*
X131232228Y-81734448D02*
G01*
X131377117Y-81794463D01*
X131507515Y-81881592D01*
X131618408Y-81992485D01*
X131705537Y-82122883D01*
X131765552Y-82267772D01*
X131796148Y-82421586D01*
X131796148Y-82578414D01*
X131765552Y-82732228D01*
X131705537Y-82877117D01*
X131618408Y-83007515D01*
X131507515Y-83118408D01*
X131377117Y-83205537D01*
X131232228Y-83265552D01*
X131078414Y-83296148D01*
X130921586Y-83296148D01*
X130767772Y-83265552D01*
X130622883Y-83205537D01*
X130492485Y-83118408D01*
X130381592Y-83007515D01*
X130294463Y-82877117D01*
X130234448Y-82732228D01*
X130203852Y-82578414D01*
X130203852Y-82421586D01*
X130234448Y-82267772D01*
X130294463Y-82122883D01*
X130381592Y-81992485D01*
X130492485Y-81881592D01*
X130622883Y-81794463D01*
X130767772Y-81734448D01*
X130921586Y-81703852D01*
X131078414Y-81703852D01*
X131232228Y-81734448D01*
G37*
G36*
X135554047Y-77700805D02*
G01*
X135605408Y-77706764D01*
X135622954Y-77714511D01*
X135645671Y-77719030D01*
X135669991Y-77735280D01*
X135690793Y-77744465D01*
X135705000Y-77758672D01*
X135726777Y-77773223D01*
X135741327Y-77794999D01*
X135755534Y-77809206D01*
X135764718Y-77830006D01*
X135780970Y-77854329D01*
X135785489Y-77877048D01*
X135793235Y-77894591D01*
X135799192Y-77945940D01*
X135800000Y-77950000D01*
X135800000Y-79050000D01*
X135799192Y-79054059D01*
X135793235Y-79105408D01*
X135785489Y-79122950D01*
X135780970Y-79145671D01*
X135764716Y-79169995D01*
X135755534Y-79190793D01*
X135741329Y-79204997D01*
X135726777Y-79226777D01*
X135704997Y-79241329D01*
X135690793Y-79255534D01*
X135669995Y-79264716D01*
X135645671Y-79280970D01*
X135622950Y-79285489D01*
X135605408Y-79293235D01*
X135554061Y-79299192D01*
X135550000Y-79300000D01*
X134450000Y-79300000D01*
X134445941Y-79299192D01*
X134394591Y-79293235D01*
X134377048Y-79285489D01*
X134354329Y-79280970D01*
X134330006Y-79264718D01*
X134309206Y-79255534D01*
X134294999Y-79241327D01*
X134273223Y-79226777D01*
X134258672Y-79205000D01*
X134244465Y-79190793D01*
X134235280Y-79169991D01*
X134219030Y-79145671D01*
X134214511Y-79122954D01*
X134206764Y-79105408D01*
X134200805Y-79054049D01*
X134200000Y-79050000D01*
X134200000Y-77950000D01*
X134200804Y-77945953D01*
X134206764Y-77894591D01*
X134214511Y-77877043D01*
X134219030Y-77854329D01*
X134235278Y-77830010D01*
X134244465Y-77809206D01*
X134258674Y-77794996D01*
X134273223Y-77773223D01*
X134294996Y-77758674D01*
X134309206Y-77744465D01*
X134330010Y-77735278D01*
X134354329Y-77719030D01*
X134377043Y-77714511D01*
X134394591Y-77706764D01*
X134445952Y-77700805D01*
X134450000Y-77700000D01*
X135550000Y-77700000D01*
X135554047Y-77700805D01*
G37*
G36*
X137232228Y-77734448D02*
G01*
X137377117Y-77794463D01*
X137507515Y-77881592D01*
X137618408Y-77992485D01*
X137705537Y-78122883D01*
X137765552Y-78267772D01*
X137796148Y-78421586D01*
X137796148Y-78578414D01*
X137765552Y-78732228D01*
X137705537Y-78877117D01*
X137618408Y-79007515D01*
X137507515Y-79118408D01*
X137377117Y-79205537D01*
X137232228Y-79265552D01*
X137078414Y-79296148D01*
X136921586Y-79296148D01*
X136767772Y-79265552D01*
X136622883Y-79205537D01*
X136492485Y-79118408D01*
X136381592Y-79007515D01*
X136294463Y-78877117D01*
X136234448Y-78732228D01*
X136203852Y-78578414D01*
X136203852Y-78421586D01*
X136234448Y-78267772D01*
X136294463Y-78122883D01*
X136381592Y-77992485D01*
X136492485Y-77881592D01*
X136622883Y-77794463D01*
X136767772Y-77734448D01*
X136921586Y-77703852D01*
X137078414Y-77703852D01*
X137232228Y-77734448D01*
G37*
G36*
X142232228Y-77734448D02*
G01*
X142377117Y-77794463D01*
X142507515Y-77881592D01*
X142618408Y-77992485D01*
X142705537Y-78122883D01*
X142765552Y-78267772D01*
X142796148Y-78421586D01*
X142796148Y-78578414D01*
X142765552Y-78732228D01*
X142705537Y-78877117D01*
X142618408Y-79007515D01*
X142507515Y-79118408D01*
X142377117Y-79205537D01*
X142232228Y-79265552D01*
X142078414Y-79296148D01*
X141921586Y-79296148D01*
X141767772Y-79265552D01*
X141622883Y-79205537D01*
X141492485Y-79118408D01*
X141381592Y-79007515D01*
X141294463Y-78877117D01*
X141234448Y-78732228D01*
X141203852Y-78578414D01*
X141203852Y-78421586D01*
X141234448Y-78267772D01*
X141294463Y-78122883D01*
X141381592Y-77992485D01*
X141492485Y-77881592D01*
X141622883Y-77794463D01*
X141767772Y-77734448D01*
X141921586Y-77703852D01*
X142078414Y-77703852D01*
X142232228Y-77734448D01*
G37*
G36*
X146732228Y-77734448D02*
G01*
X146877117Y-77794463D01*
X147007515Y-77881592D01*
X147118408Y-77992485D01*
X147205537Y-78122883D01*
X147265552Y-78267772D01*
X147296148Y-78421586D01*
X147296148Y-78578414D01*
X147265552Y-78732228D01*
X147205537Y-78877117D01*
X147118408Y-79007515D01*
X147007515Y-79118408D01*
X146877117Y-79205537D01*
X146732228Y-79265552D01*
X146578414Y-79296148D01*
X146421586Y-79296148D01*
X146267772Y-79265552D01*
X146122883Y-79205537D01*
X145992485Y-79118408D01*
X145881592Y-79007515D01*
X145794463Y-78877117D01*
X145734448Y-78732228D01*
X145703852Y-78578414D01*
X145703852Y-78421586D01*
X145734448Y-78267772D01*
X145794463Y-78122883D01*
X145881592Y-77992485D01*
X145992485Y-77881592D01*
X146122883Y-77794463D01*
X146267772Y-77734448D01*
X146421586Y-77703852D01*
X146578414Y-77703852D01*
X146732228Y-77734448D01*
G37*
G36*
X151182228Y-77524223D02*
G01*
X151327117Y-77584238D01*
X151457515Y-77671367D01*
X151568408Y-77782260D01*
X151655537Y-77912658D01*
X151715552Y-78057547D01*
X151746148Y-78211361D01*
X151746148Y-78368189D01*
X151715552Y-78522003D01*
X151655537Y-78666892D01*
X151568408Y-78797290D01*
X151457515Y-78908183D01*
X151327117Y-78995312D01*
X151182228Y-79055327D01*
X151028414Y-79085923D01*
X150871586Y-79085923D01*
X150717772Y-79055327D01*
X150572883Y-78995312D01*
X150442485Y-78908183D01*
X150331592Y-78797290D01*
X150244463Y-78666892D01*
X150184448Y-78522003D01*
X150153852Y-78368189D01*
X150153852Y-78211361D01*
X150184448Y-78057547D01*
X150244463Y-77912658D01*
X150331592Y-77782260D01*
X150442485Y-77671367D01*
X150572883Y-77584238D01*
X150717772Y-77524223D01*
X150871586Y-77493627D01*
X151028414Y-77493627D01*
X151182228Y-77524223D01*
G37*
G36*
X156273895Y-77524223D02*
G01*
X156418784Y-77584238D01*
X156549182Y-77671367D01*
X156660075Y-77782260D01*
X156747204Y-77912658D01*
X156807219Y-78057547D01*
X156837815Y-78211361D01*
X156837815Y-78368189D01*
X156807219Y-78522003D01*
X156747204Y-78666892D01*
X156660075Y-78797290D01*
X156549182Y-78908183D01*
X156418784Y-78995312D01*
X156273895Y-79055327D01*
X156120081Y-79085923D01*
X155963253Y-79085923D01*
X155809439Y-79055327D01*
X155664550Y-78995312D01*
X155534152Y-78908183D01*
X155423259Y-78797290D01*
X155336130Y-78666892D01*
X155276115Y-78522003D01*
X155245519Y-78368189D01*
X155245519Y-78211361D01*
X155276115Y-78057547D01*
X155336130Y-77912658D01*
X155423259Y-77782260D01*
X155534152Y-77671367D01*
X155664550Y-77584238D01*
X155809439Y-77524223D01*
X155963253Y-77493627D01*
X156120081Y-77493627D01*
X156273895Y-77524223D01*
G37*
G36*
X161365561Y-77524223D02*
G01*
X161510450Y-77584238D01*
X161640848Y-77671367D01*
X161751741Y-77782260D01*
X161838870Y-77912658D01*
X161898885Y-78057547D01*
X161929481Y-78211361D01*
X161929481Y-78368189D01*
X161898885Y-78522003D01*
X161838870Y-78666892D01*
X161751741Y-78797290D01*
X161640848Y-78908183D01*
X161510450Y-78995312D01*
X161365561Y-79055327D01*
X161211747Y-79085923D01*
X161054919Y-79085923D01*
X160901105Y-79055327D01*
X160756216Y-78995312D01*
X160625818Y-78908183D01*
X160514925Y-78797290D01*
X160427796Y-78666892D01*
X160367781Y-78522003D01*
X160337185Y-78368189D01*
X160337185Y-78211361D01*
X160367781Y-78057547D01*
X160427796Y-77912658D01*
X160514925Y-77782260D01*
X160625818Y-77671367D01*
X160756216Y-77584238D01*
X160901105Y-77524223D01*
X161054919Y-77493627D01*
X161211747Y-77493627D01*
X161365561Y-77524223D01*
G37*
G36*
X166457228Y-77524223D02*
G01*
X166602117Y-77584238D01*
X166732515Y-77671367D01*
X166843408Y-77782260D01*
X166930537Y-77912658D01*
X166990552Y-78057547D01*
X167021148Y-78211361D01*
X167021148Y-78368189D01*
X166990552Y-78522003D01*
X166930537Y-78666892D01*
X166843408Y-78797290D01*
X166732515Y-78908183D01*
X166602117Y-78995312D01*
X166457228Y-79055327D01*
X166303414Y-79085923D01*
X166146586Y-79085923D01*
X165992772Y-79055327D01*
X165847883Y-78995312D01*
X165717485Y-78908183D01*
X165606592Y-78797290D01*
X165519463Y-78666892D01*
X165459448Y-78522003D01*
X165428852Y-78368189D01*
X165428852Y-78211361D01*
X165459448Y-78057547D01*
X165519463Y-77912658D01*
X165606592Y-77782260D01*
X165717485Y-77671367D01*
X165847883Y-77584238D01*
X165992772Y-77524223D01*
X166146586Y-77493627D01*
X166303414Y-77493627D01*
X166457228Y-77524223D01*
G37*
G36*
X171548895Y-77524223D02*
G01*
X171693784Y-77584238D01*
X171824182Y-77671367D01*
X171935075Y-77782260D01*
X172022204Y-77912658D01*
X172082219Y-78057547D01*
X172112815Y-78211361D01*
X172112815Y-78368189D01*
X172082219Y-78522003D01*
X172022204Y-78666892D01*
X171935075Y-78797290D01*
X171824182Y-78908183D01*
X171693784Y-78995312D01*
X171548895Y-79055327D01*
X171395081Y-79085923D01*
X171238253Y-79085923D01*
X171084439Y-79055327D01*
X170939550Y-78995312D01*
X170809152Y-78908183D01*
X170698259Y-78797290D01*
X170611130Y-78666892D01*
X170551115Y-78522003D01*
X170520519Y-78368189D01*
X170520519Y-78211361D01*
X170551115Y-78057547D01*
X170611130Y-77912658D01*
X170698259Y-77782260D01*
X170809152Y-77671367D01*
X170939550Y-77584238D01*
X171084439Y-77524223D01*
X171238253Y-77493627D01*
X171395081Y-77493627D01*
X171548895Y-77524223D01*
G37*
G36*
X176640561Y-77524223D02*
G01*
X176785450Y-77584238D01*
X176915848Y-77671367D01*
X177026741Y-77782260D01*
X177113870Y-77912658D01*
X177173885Y-78057547D01*
X177204481Y-78211361D01*
X177204481Y-78368189D01*
X177173885Y-78522003D01*
X177113870Y-78666892D01*
X177026741Y-78797290D01*
X176915848Y-78908183D01*
X176785450Y-78995312D01*
X176640561Y-79055327D01*
X176486747Y-79085923D01*
X176329919Y-79085923D01*
X176176105Y-79055327D01*
X176031216Y-78995312D01*
X175900818Y-78908183D01*
X175789925Y-78797290D01*
X175702796Y-78666892D01*
X175642781Y-78522003D01*
X175612185Y-78368189D01*
X175612185Y-78211361D01*
X175642781Y-78057547D01*
X175702796Y-77912658D01*
X175789925Y-77782260D01*
X175900818Y-77671367D01*
X176031216Y-77584238D01*
X176176105Y-77524223D01*
X176329919Y-77493627D01*
X176486747Y-77493627D01*
X176640561Y-77524223D01*
G37*
G36*
X181732228Y-77524223D02*
G01*
X181877117Y-77584238D01*
X182007515Y-77671367D01*
X182118408Y-77782260D01*
X182205537Y-77912658D01*
X182265552Y-78057547D01*
X182296148Y-78211361D01*
X182296148Y-78368189D01*
X182265552Y-78522003D01*
X182205537Y-78666892D01*
X182118408Y-78797290D01*
X182007515Y-78908183D01*
X181877117Y-78995312D01*
X181732228Y-79055327D01*
X181578414Y-79085923D01*
X181421586Y-79085923D01*
X181267772Y-79055327D01*
X181122883Y-78995312D01*
X180992485Y-78908183D01*
X180881592Y-78797290D01*
X180794463Y-78666892D01*
X180734448Y-78522003D01*
X180703852Y-78368189D01*
X180703852Y-78211361D01*
X180734448Y-78057547D01*
X180794463Y-77912658D01*
X180881592Y-77782260D01*
X180992485Y-77671367D01*
X181122883Y-77584238D01*
X181267772Y-77524223D01*
X181421586Y-77493627D01*
X181578414Y-77493627D01*
X181732228Y-77524223D01*
G37*
G36*
X148054047Y-71700805D02*
G01*
X148105408Y-71706764D01*
X148122954Y-71714511D01*
X148145671Y-71719030D01*
X148169991Y-71735280D01*
X148190793Y-71744465D01*
X148205000Y-71758672D01*
X148226777Y-71773223D01*
X148241327Y-71794999D01*
X148255534Y-71809206D01*
X148264718Y-71830006D01*
X148280970Y-71854329D01*
X148285489Y-71877048D01*
X148293235Y-71894591D01*
X148299192Y-71945940D01*
X148300000Y-71950000D01*
X148300000Y-73050000D01*
X148299192Y-73054059D01*
X148293235Y-73105408D01*
X148285489Y-73122950D01*
X148280970Y-73145671D01*
X148264716Y-73169995D01*
X148255534Y-73190793D01*
X148241329Y-73204997D01*
X148226777Y-73226777D01*
X148204997Y-73241329D01*
X148190793Y-73255534D01*
X148169995Y-73264716D01*
X148145671Y-73280970D01*
X148122950Y-73285489D01*
X148105408Y-73293235D01*
X148054061Y-73299192D01*
X148050000Y-73300000D01*
X146950000Y-73300000D01*
X146945941Y-73299192D01*
X146894591Y-73293235D01*
X146877048Y-73285489D01*
X146854329Y-73280970D01*
X146830006Y-73264718D01*
X146809206Y-73255534D01*
X146794999Y-73241327D01*
X146773223Y-73226777D01*
X146758672Y-73205000D01*
X146744465Y-73190793D01*
X146735280Y-73169991D01*
X146719030Y-73145671D01*
X146714511Y-73122954D01*
X146706764Y-73105408D01*
X146700805Y-73054049D01*
X146700000Y-73050000D01*
X146700000Y-71950000D01*
X146700804Y-71945953D01*
X146706764Y-71894591D01*
X146714511Y-71877043D01*
X146719030Y-71854329D01*
X146735278Y-71830010D01*
X146744465Y-71809206D01*
X146758674Y-71794996D01*
X146773223Y-71773223D01*
X146794996Y-71758674D01*
X146809206Y-71744465D01*
X146830010Y-71735278D01*
X146854329Y-71719030D01*
X146877043Y-71714511D01*
X146894591Y-71706764D01*
X146945952Y-71700805D01*
X146950000Y-71700000D01*
X148050000Y-71700000D01*
X148054047Y-71700805D01*
G37*
G36*
X149732228Y-71734448D02*
G01*
X149877117Y-71794463D01*
X150007515Y-71881592D01*
X150118408Y-71992485D01*
X150205537Y-72122883D01*
X150265552Y-72267772D01*
X150296148Y-72421586D01*
X150296148Y-72578414D01*
X150265552Y-72732228D01*
X150205537Y-72877117D01*
X150118408Y-73007515D01*
X150007515Y-73118408D01*
X149877117Y-73205537D01*
X149732228Y-73265552D01*
X149578414Y-73296148D01*
X149421586Y-73296148D01*
X149267772Y-73265552D01*
X149122883Y-73205537D01*
X148992485Y-73118408D01*
X148881592Y-73007515D01*
X148794463Y-72877117D01*
X148734448Y-72732228D01*
X148703852Y-72578414D01*
X148703852Y-72421586D01*
X148734448Y-72267772D01*
X148794463Y-72122883D01*
X148881592Y-71992485D01*
X148992485Y-71881592D01*
X149122883Y-71794463D01*
X149267772Y-71734448D01*
X149421586Y-71703852D01*
X149578414Y-71703852D01*
X149732228Y-71734448D01*
G37*
G36*
X156982228Y-71734448D02*
G01*
X157127117Y-71794463D01*
X157257515Y-71881592D01*
X157368408Y-71992485D01*
X157455537Y-72122883D01*
X157515552Y-72267772D01*
X157546148Y-72421586D01*
X157546148Y-72578414D01*
X157515552Y-72732228D01*
X157455537Y-72877117D01*
X157368408Y-73007515D01*
X157257515Y-73118408D01*
X157127117Y-73205537D01*
X156982228Y-73265552D01*
X156828414Y-73296148D01*
X156671586Y-73296148D01*
X156517772Y-73265552D01*
X156372883Y-73205537D01*
X156242485Y-73118408D01*
X156131592Y-73007515D01*
X156044463Y-72877117D01*
X155984448Y-72732228D01*
X155953852Y-72578414D01*
X155953852Y-72421586D01*
X155984448Y-72267772D01*
X156044463Y-72122883D01*
X156131592Y-71992485D01*
X156242485Y-71881592D01*
X156372883Y-71794463D01*
X156517772Y-71734448D01*
X156671586Y-71703852D01*
X156828414Y-71703852D01*
X156982228Y-71734448D01*
G37*
G36*
X164232228Y-71734448D02*
G01*
X164377117Y-71794463D01*
X164507515Y-71881592D01*
X164618408Y-71992485D01*
X164705537Y-72122883D01*
X164765552Y-72267772D01*
X164796148Y-72421586D01*
X164796148Y-72578414D01*
X164765552Y-72732228D01*
X164705537Y-72877117D01*
X164618408Y-73007515D01*
X164507515Y-73118408D01*
X164377117Y-73205537D01*
X164232228Y-73265552D01*
X164078414Y-73296148D01*
X163921586Y-73296148D01*
X163767772Y-73265552D01*
X163622883Y-73205537D01*
X163492485Y-73118408D01*
X163381592Y-73007515D01*
X163294463Y-72877117D01*
X163234448Y-72732228D01*
X163203852Y-72578414D01*
X163203852Y-72421586D01*
X163234448Y-72267772D01*
X163294463Y-72122883D01*
X163381592Y-71992485D01*
X163492485Y-71881592D01*
X163622883Y-71794463D01*
X163767772Y-71734448D01*
X163921586Y-71703852D01*
X164078414Y-71703852D01*
X164232228Y-71734448D01*
G37*
G36*
X171482228Y-71734448D02*
G01*
X171627117Y-71794463D01*
X171757515Y-71881592D01*
X171868408Y-71992485D01*
X171955537Y-72122883D01*
X172015552Y-72267772D01*
X172046148Y-72421586D01*
X172046148Y-72578414D01*
X172015552Y-72732228D01*
X171955537Y-72877117D01*
X171868408Y-73007515D01*
X171757515Y-73118408D01*
X171627117Y-73205537D01*
X171482228Y-73265552D01*
X171328414Y-73296148D01*
X171171586Y-73296148D01*
X171017772Y-73265552D01*
X170872883Y-73205537D01*
X170742485Y-73118408D01*
X170631592Y-73007515D01*
X170544463Y-72877117D01*
X170484448Y-72732228D01*
X170453852Y-72578414D01*
X170453852Y-72421586D01*
X170484448Y-72267772D01*
X170544463Y-72122883D01*
X170631592Y-71992485D01*
X170742485Y-71881592D01*
X170872883Y-71794463D01*
X171017772Y-71734448D01*
X171171586Y-71703852D01*
X171328414Y-71703852D01*
X171482228Y-71734448D01*
G37*
G36*
X178732228Y-71734448D02*
G01*
X178877117Y-71794463D01*
X179007515Y-71881592D01*
X179118408Y-71992485D01*
X179205537Y-72122883D01*
X179265552Y-72267772D01*
X179296148Y-72421586D01*
X179296148Y-72578414D01*
X179265552Y-72732228D01*
X179205537Y-72877117D01*
X179118408Y-73007515D01*
X179007515Y-73118408D01*
X178877117Y-73205537D01*
X178732228Y-73265552D01*
X178578414Y-73296148D01*
X178421586Y-73296148D01*
X178267772Y-73265552D01*
X178122883Y-73205537D01*
X177992485Y-73118408D01*
X177881592Y-73007515D01*
X177794463Y-72877117D01*
X177734448Y-72732228D01*
X177703852Y-72578414D01*
X177703852Y-72421586D01*
X177734448Y-72267772D01*
X177794463Y-72122883D01*
X177881592Y-71992485D01*
X177992485Y-71881592D01*
X178122883Y-71794463D01*
X178267772Y-71734448D01*
X178421586Y-71703852D01*
X178578414Y-71703852D01*
X178732228Y-71734448D01*
G37*
G36*
X185982228Y-71734448D02*
G01*
X186127117Y-71794463D01*
X186257515Y-71881592D01*
X186368408Y-71992485D01*
X186455537Y-72122883D01*
X186515552Y-72267772D01*
X186546148Y-72421586D01*
X186546148Y-72578414D01*
X186515552Y-72732228D01*
X186455537Y-72877117D01*
X186368408Y-73007515D01*
X186257515Y-73118408D01*
X186127117Y-73205537D01*
X185982228Y-73265552D01*
X185828414Y-73296148D01*
X185671586Y-73296148D01*
X185517772Y-73265552D01*
X185372883Y-73205537D01*
X185242485Y-73118408D01*
X185131592Y-73007515D01*
X185044463Y-72877117D01*
X184984448Y-72732228D01*
X184953852Y-72578414D01*
X184953852Y-72421586D01*
X184984448Y-72267772D01*
X185044463Y-72122883D01*
X185131592Y-71992485D01*
X185242485Y-71881592D01*
X185372883Y-71794463D01*
X185517772Y-71734448D01*
X185671586Y-71703852D01*
X185828414Y-71703852D01*
X185982228Y-71734448D01*
G37*
G36*
X133078935Y-71670805D02*
G01*
X133130296Y-71676764D01*
X133147842Y-71684511D01*
X133170559Y-71689030D01*
X133194879Y-71705280D01*
X133215681Y-71714465D01*
X133229888Y-71728672D01*
X133251665Y-71743223D01*
X133266215Y-71764999D01*
X133280422Y-71779206D01*
X133289606Y-71800006D01*
X133305858Y-71824329D01*
X133310377Y-71847048D01*
X133318123Y-71864591D01*
X133324080Y-71915940D01*
X133324888Y-71920000D01*
X133324888Y-73020000D01*
X133324080Y-73024059D01*
X133318123Y-73075408D01*
X133310377Y-73092950D01*
X133305858Y-73115671D01*
X133289604Y-73139995D01*
X133280422Y-73160793D01*
X133266217Y-73174997D01*
X133251665Y-73196777D01*
X133229885Y-73211329D01*
X133215681Y-73225534D01*
X133194883Y-73234716D01*
X133170559Y-73250970D01*
X133147838Y-73255489D01*
X133130296Y-73263235D01*
X133078949Y-73269192D01*
X133074888Y-73270000D01*
X131974888Y-73270000D01*
X131970829Y-73269192D01*
X131919479Y-73263235D01*
X131901936Y-73255489D01*
X131879217Y-73250970D01*
X131854894Y-73234718D01*
X131834094Y-73225534D01*
X131819887Y-73211327D01*
X131798111Y-73196777D01*
X131783560Y-73175000D01*
X131769353Y-73160793D01*
X131760168Y-73139991D01*
X131743918Y-73115671D01*
X131739399Y-73092954D01*
X131731652Y-73075408D01*
X131725693Y-73024049D01*
X131724888Y-73020000D01*
X131724888Y-71920000D01*
X131725692Y-71915953D01*
X131731652Y-71864591D01*
X131739399Y-71847043D01*
X131743918Y-71824329D01*
X131760166Y-71800010D01*
X131769353Y-71779206D01*
X131783562Y-71764996D01*
X131798111Y-71743223D01*
X131819884Y-71728674D01*
X131834094Y-71714465D01*
X131854898Y-71705278D01*
X131879217Y-71689030D01*
X131901931Y-71684511D01*
X131919479Y-71676764D01*
X131970840Y-71670805D01*
X131974888Y-71670000D01*
X133074888Y-71670000D01*
X133078935Y-71670805D01*
G37*
G36*
X140623823Y-71670805D02*
G01*
X140675184Y-71676764D01*
X140692730Y-71684511D01*
X140715447Y-71689030D01*
X140739767Y-71705280D01*
X140760569Y-71714465D01*
X140774776Y-71728672D01*
X140796553Y-71743223D01*
X140811103Y-71764999D01*
X140825310Y-71779206D01*
X140834494Y-71800006D01*
X140850746Y-71824329D01*
X140855265Y-71847048D01*
X140863011Y-71864591D01*
X140868968Y-71915940D01*
X140869776Y-71920000D01*
X140869776Y-73020000D01*
X140868968Y-73024059D01*
X140863011Y-73075408D01*
X140855265Y-73092950D01*
X140850746Y-73115671D01*
X140834492Y-73139995D01*
X140825310Y-73160793D01*
X140811105Y-73174997D01*
X140796553Y-73196777D01*
X140774773Y-73211329D01*
X140760569Y-73225534D01*
X140739771Y-73234716D01*
X140715447Y-73250970D01*
X140692726Y-73255489D01*
X140675184Y-73263235D01*
X140623837Y-73269192D01*
X140619776Y-73270000D01*
X139519776Y-73270000D01*
X139515717Y-73269192D01*
X139464367Y-73263235D01*
X139446824Y-73255489D01*
X139424105Y-73250970D01*
X139399782Y-73234718D01*
X139378982Y-73225534D01*
X139364775Y-73211327D01*
X139342999Y-73196777D01*
X139328448Y-73175000D01*
X139314241Y-73160793D01*
X139305056Y-73139991D01*
X139288806Y-73115671D01*
X139284287Y-73092954D01*
X139276540Y-73075408D01*
X139270581Y-73024049D01*
X139269776Y-73020000D01*
X139269776Y-71920000D01*
X139270580Y-71915953D01*
X139276540Y-71864591D01*
X139284287Y-71847043D01*
X139288806Y-71824329D01*
X139305054Y-71800010D01*
X139314241Y-71779206D01*
X139328450Y-71764996D01*
X139342999Y-71743223D01*
X139364772Y-71728674D01*
X139378982Y-71714465D01*
X139399786Y-71705278D01*
X139424105Y-71689030D01*
X139446819Y-71684511D01*
X139464367Y-71676764D01*
X139515728Y-71670805D01*
X139519776Y-71670000D01*
X140619776Y-71670000D01*
X140623823Y-71670805D01*
G37*
G36*
X134757116Y-71704448D02*
G01*
X134902005Y-71764463D01*
X135032403Y-71851592D01*
X135143296Y-71962485D01*
X135230425Y-72092883D01*
X135290440Y-72237772D01*
X135321036Y-72391586D01*
X135321036Y-72548414D01*
X135290440Y-72702228D01*
X135230425Y-72847117D01*
X135143296Y-72977515D01*
X135032403Y-73088408D01*
X134902005Y-73175537D01*
X134757116Y-73235552D01*
X134603302Y-73266148D01*
X134446474Y-73266148D01*
X134292660Y-73235552D01*
X134147771Y-73175537D01*
X134017373Y-73088408D01*
X133906480Y-72977515D01*
X133819351Y-72847117D01*
X133759336Y-72702228D01*
X133728740Y-72548414D01*
X133728740Y-72391586D01*
X133759336Y-72237772D01*
X133819351Y-72092883D01*
X133906480Y-71962485D01*
X134017373Y-71851592D01*
X134147771Y-71764463D01*
X134292660Y-71704448D01*
X134446474Y-71673852D01*
X134603302Y-71673852D01*
X134757116Y-71704448D01*
G37*
G36*
X142302004Y-71704448D02*
G01*
X142446893Y-71764463D01*
X142577291Y-71851592D01*
X142688184Y-71962485D01*
X142775313Y-72092883D01*
X142835328Y-72237772D01*
X142865924Y-72391586D01*
X142865924Y-72548414D01*
X142835328Y-72702228D01*
X142775313Y-72847117D01*
X142688184Y-72977515D01*
X142577291Y-73088408D01*
X142446893Y-73175537D01*
X142302004Y-73235552D01*
X142148190Y-73266148D01*
X141991362Y-73266148D01*
X141837548Y-73235552D01*
X141692659Y-73175537D01*
X141562261Y-73088408D01*
X141451368Y-72977515D01*
X141364239Y-72847117D01*
X141304224Y-72702228D01*
X141273628Y-72548414D01*
X141273628Y-72391586D01*
X141304224Y-72237772D01*
X141364239Y-72092883D01*
X141451368Y-71962485D01*
X141562261Y-71851592D01*
X141692659Y-71764463D01*
X141837548Y-71704448D01*
X141991362Y-71673852D01*
X142148190Y-71673852D01*
X142302004Y-71704448D01*
G37*
G36*
X156982228Y-66734448D02*
G01*
X157127117Y-66794463D01*
X157257515Y-66881592D01*
X157368408Y-66992485D01*
X157455537Y-67122883D01*
X157515552Y-67267772D01*
X157546148Y-67421586D01*
X157546148Y-67578414D01*
X157515552Y-67732228D01*
X157455537Y-67877117D01*
X157368408Y-68007515D01*
X157257515Y-68118408D01*
X157127117Y-68205537D01*
X156982228Y-68265552D01*
X156828414Y-68296148D01*
X156671586Y-68296148D01*
X156517772Y-68265552D01*
X156372883Y-68205537D01*
X156242485Y-68118408D01*
X156131592Y-68007515D01*
X156044463Y-67877117D01*
X155984448Y-67732228D01*
X155953852Y-67578414D01*
X155953852Y-67421586D01*
X155984448Y-67267772D01*
X156044463Y-67122883D01*
X156131592Y-66992485D01*
X156242485Y-66881592D01*
X156372883Y-66794463D01*
X156517772Y-66734448D01*
X156671586Y-66703852D01*
X156828414Y-66703852D01*
X156982228Y-66734448D01*
G37*
G36*
X164232228Y-66734448D02*
G01*
X164377117Y-66794463D01*
X164507515Y-66881592D01*
X164618408Y-66992485D01*
X164705537Y-67122883D01*
X164765552Y-67267772D01*
X164796148Y-67421586D01*
X164796148Y-67578414D01*
X164765552Y-67732228D01*
X164705537Y-67877117D01*
X164618408Y-68007515D01*
X164507515Y-68118408D01*
X164377117Y-68205537D01*
X164232228Y-68265552D01*
X164078414Y-68296148D01*
X163921586Y-68296148D01*
X163767772Y-68265552D01*
X163622883Y-68205537D01*
X163492485Y-68118408D01*
X163381592Y-68007515D01*
X163294463Y-67877117D01*
X163234448Y-67732228D01*
X163203852Y-67578414D01*
X163203852Y-67421586D01*
X163234448Y-67267772D01*
X163294463Y-67122883D01*
X163381592Y-66992485D01*
X163492485Y-66881592D01*
X163622883Y-66794463D01*
X163767772Y-66734448D01*
X163921586Y-66703852D01*
X164078414Y-66703852D01*
X164232228Y-66734448D01*
G37*
G36*
X171482228Y-66734448D02*
G01*
X171627117Y-66794463D01*
X171757515Y-66881592D01*
X171868408Y-66992485D01*
X171955537Y-67122883D01*
X172015552Y-67267772D01*
X172046148Y-67421586D01*
X172046148Y-67578414D01*
X172015552Y-67732228D01*
X171955537Y-67877117D01*
X171868408Y-68007515D01*
X171757515Y-68118408D01*
X171627117Y-68205537D01*
X171482228Y-68265552D01*
X171328414Y-68296148D01*
X171171586Y-68296148D01*
X171017772Y-68265552D01*
X170872883Y-68205537D01*
X170742485Y-68118408D01*
X170631592Y-68007515D01*
X170544463Y-67877117D01*
X170484448Y-67732228D01*
X170453852Y-67578414D01*
X170453852Y-67421586D01*
X170484448Y-67267772D01*
X170544463Y-67122883D01*
X170631592Y-66992485D01*
X170742485Y-66881592D01*
X170872883Y-66794463D01*
X171017772Y-66734448D01*
X171171586Y-66703852D01*
X171328414Y-66703852D01*
X171482228Y-66734448D01*
G37*
G36*
X178732228Y-66734448D02*
G01*
X178877117Y-66794463D01*
X179007515Y-66881592D01*
X179118408Y-66992485D01*
X179205537Y-67122883D01*
X179265552Y-67267772D01*
X179296148Y-67421586D01*
X179296148Y-67578414D01*
X179265552Y-67732228D01*
X179205537Y-67877117D01*
X179118408Y-68007515D01*
X179007515Y-68118408D01*
X178877117Y-68205537D01*
X178732228Y-68265552D01*
X178578414Y-68296148D01*
X178421586Y-68296148D01*
X178267772Y-68265552D01*
X178122883Y-68205537D01*
X177992485Y-68118408D01*
X177881592Y-68007515D01*
X177794463Y-67877117D01*
X177734448Y-67732228D01*
X177703852Y-67578414D01*
X177703852Y-67421586D01*
X177734448Y-67267772D01*
X177794463Y-67122883D01*
X177881592Y-66992485D01*
X177992485Y-66881592D01*
X178122883Y-66794463D01*
X178267772Y-66734448D01*
X178421586Y-66703852D01*
X178578414Y-66703852D01*
X178732228Y-66734448D01*
G37*
G36*
X185982228Y-66734448D02*
G01*
X186127117Y-66794463D01*
X186257515Y-66881592D01*
X186368408Y-66992485D01*
X186455537Y-67122883D01*
X186515552Y-67267772D01*
X186546148Y-67421586D01*
X186546148Y-67578414D01*
X186515552Y-67732228D01*
X186455537Y-67877117D01*
X186368408Y-68007515D01*
X186257515Y-68118408D01*
X186127117Y-68205537D01*
X185982228Y-68265552D01*
X185828414Y-68296148D01*
X185671586Y-68296148D01*
X185517772Y-68265552D01*
X185372883Y-68205537D01*
X185242485Y-68118408D01*
X185131592Y-68007515D01*
X185044463Y-67877117D01*
X184984448Y-67732228D01*
X184953852Y-67578414D01*
X184953852Y-67421586D01*
X184984448Y-67267772D01*
X185044463Y-67122883D01*
X185131592Y-66992485D01*
X185242485Y-66881592D01*
X185372883Y-66794463D01*
X185517772Y-66734448D01*
X185671586Y-66703852D01*
X185828414Y-66703852D01*
X185982228Y-66734448D01*
G37*
G36*
X131572228Y-65734448D02*
G01*
X131717117Y-65794463D01*
X131847515Y-65881592D01*
X131958408Y-65992485D01*
X132045537Y-66122883D01*
X132105552Y-66267772D01*
X132136148Y-66421586D01*
X132136148Y-66578414D01*
X132105552Y-66732228D01*
X132045537Y-66877117D01*
X131958408Y-67007515D01*
X131847515Y-67118408D01*
X131717117Y-67205537D01*
X131572228Y-67265552D01*
X131418414Y-67296148D01*
X131261586Y-67296148D01*
X131107772Y-67265552D01*
X130962883Y-67205537D01*
X130832485Y-67118408D01*
X130721592Y-67007515D01*
X130634463Y-66877117D01*
X130574448Y-66732228D01*
X130543852Y-66578414D01*
X130543852Y-66421586D01*
X130574448Y-66267772D01*
X130634463Y-66122883D01*
X130721592Y-65992485D01*
X130832485Y-65881592D01*
X130962883Y-65794463D01*
X131107772Y-65734448D01*
X131261586Y-65703852D01*
X131418414Y-65703852D01*
X131572228Y-65734448D01*
G37*
G36*
X141732228Y-65734448D02*
G01*
X141877117Y-65794463D01*
X142007515Y-65881592D01*
X142118408Y-65992485D01*
X142205537Y-66122883D01*
X142265552Y-66267772D01*
X142296148Y-66421586D01*
X142296148Y-66578414D01*
X142265552Y-66732228D01*
X142205537Y-66877117D01*
X142118408Y-67007515D01*
X142007515Y-67118408D01*
X141877117Y-67205537D01*
X141732228Y-67265552D01*
X141578414Y-67296148D01*
X141421586Y-67296148D01*
X141267772Y-67265552D01*
X141122883Y-67205537D01*
X140992485Y-67118408D01*
X140881592Y-67007515D01*
X140794463Y-66877117D01*
X140734448Y-66732228D01*
X140703852Y-66578414D01*
X140703852Y-66421586D01*
X140734448Y-66267772D01*
X140794463Y-66122883D01*
X140881592Y-65992485D01*
X140992485Y-65881592D01*
X141122883Y-65794463D01*
X141267772Y-65734448D01*
X141421586Y-65703852D01*
X141578414Y-65703852D01*
X141732228Y-65734448D01*
G37*
G36*
X123255000Y-64110000D02*
G01*
X122205000Y-64110000D01*
X122205000Y-62610000D01*
X123255000Y-62610000D01*
X123255000Y-64110000D01*
G37*
G36*
X124200909Y-62649963D02*
G01*
X124319600Y-62718489D01*
X124416511Y-62815400D01*
X124485037Y-62934091D01*
X124520509Y-63066474D01*
X124525000Y-63135000D01*
X124525000Y-63585000D01*
X124520509Y-63653526D01*
X124485037Y-63785909D01*
X124416511Y-63904600D01*
X124319600Y-64001511D01*
X124200909Y-64070037D01*
X124068526Y-64105509D01*
X123931474Y-64105509D01*
X123799091Y-64070037D01*
X123680400Y-64001511D01*
X123583489Y-63904600D01*
X123514963Y-63785909D01*
X123479491Y-63653526D01*
X123475000Y-63585000D01*
X123475000Y-63135000D01*
X123479491Y-63066474D01*
X123514963Y-62934091D01*
X123583489Y-62815400D01*
X123680400Y-62718489D01*
X123799091Y-62649963D01*
X123931474Y-62614491D01*
X124068526Y-62614491D01*
X124200909Y-62649963D01*
G37*
G36*
X125470909Y-62649963D02*
G01*
X125589600Y-62718489D01*
X125686511Y-62815400D01*
X125755037Y-62934091D01*
X125790509Y-63066474D01*
X125795000Y-63135000D01*
X125795000Y-63585000D01*
X125790509Y-63653526D01*
X125755037Y-63785909D01*
X125686511Y-63904600D01*
X125589600Y-64001511D01*
X125470909Y-64070037D01*
X125338526Y-64105509D01*
X125201474Y-64105509D01*
X125069091Y-64070037D01*
X124950400Y-64001511D01*
X124853489Y-63904600D01*
X124784963Y-63785909D01*
X124749491Y-63653526D01*
X124745000Y-63585000D01*
X124745000Y-63135000D01*
X124749491Y-63066474D01*
X124784963Y-62934091D01*
X124853489Y-62815400D01*
X124950400Y-62718489D01*
X125069091Y-62649963D01*
X125201474Y-62614491D01*
X125338526Y-62614491D01*
X125470909Y-62649963D01*
G37*
G36*
X121732228Y-57734448D02*
G01*
X121877117Y-57794463D01*
X122007515Y-57881592D01*
X122118408Y-57992485D01*
X122205537Y-58122883D01*
X122265552Y-58267772D01*
X122296148Y-58421586D01*
X122296148Y-58578414D01*
X122265552Y-58732228D01*
X122205537Y-58877117D01*
X122118408Y-59007515D01*
X122007515Y-59118408D01*
X121877117Y-59205537D01*
X121732228Y-59265552D01*
X121578414Y-59296148D01*
X121421586Y-59296148D01*
X121267772Y-59265552D01*
X121122883Y-59205537D01*
X120992485Y-59118408D01*
X120881592Y-59007515D01*
X120794463Y-58877117D01*
X120734448Y-58732228D01*
X120703852Y-58578414D01*
X120703852Y-58421586D01*
X120734448Y-58267772D01*
X120794463Y-58122883D01*
X120881592Y-57992485D01*
X120992485Y-57881592D01*
X121122883Y-57794463D01*
X121267772Y-57734448D01*
X121421586Y-57703852D01*
X121578414Y-57703852D01*
X121732228Y-57734448D01*
G37*
G36*
X126732228Y-57734448D02*
G01*
X126877117Y-57794463D01*
X127007515Y-57881592D01*
X127118408Y-57992485D01*
X127205537Y-58122883D01*
X127265552Y-58267772D01*
X127296148Y-58421586D01*
X127296148Y-58578414D01*
X127265552Y-58732228D01*
X127205537Y-58877117D01*
X127118408Y-59007515D01*
X127007515Y-59118408D01*
X126877117Y-59205537D01*
X126732228Y-59265552D01*
X126578414Y-59296148D01*
X126421586Y-59296148D01*
X126267772Y-59265552D01*
X126122883Y-59205537D01*
X125992485Y-59118408D01*
X125881592Y-59007515D01*
X125794463Y-58877117D01*
X125734448Y-58732228D01*
X125703852Y-58578414D01*
X125703852Y-58421586D01*
X125734448Y-58267772D01*
X125794463Y-58122883D01*
X125881592Y-57992485D01*
X125992485Y-57881592D01*
X126122883Y-57794463D01*
X126267772Y-57734448D01*
X126421586Y-57703852D01*
X126578414Y-57703852D01*
X126732228Y-57734448D01*
G37*
G36*
X179094807Y-53897538D02*
G01*
X179281354Y-53958151D01*
X179456123Y-54047200D01*
X179614810Y-54162493D01*
X179753507Y-54301190D01*
X179868800Y-54459877D01*
X179957849Y-54634646D01*
X180018462Y-54821193D01*
X180049147Y-55014926D01*
X180049147Y-55211074D01*
X180018462Y-55404807D01*
X179957849Y-55591354D01*
X179868800Y-55766123D01*
X179753507Y-55924810D01*
X179614810Y-56063507D01*
X179456123Y-56178800D01*
X179281354Y-56267849D01*
X179094807Y-56328462D01*
X178901074Y-56359147D01*
X178704926Y-56359147D01*
X178511193Y-56328462D01*
X178324646Y-56267849D01*
X178149877Y-56178800D01*
X177991190Y-56063507D01*
X177852493Y-55924810D01*
X177737200Y-55766123D01*
X177648151Y-55591354D01*
X177587538Y-55404807D01*
X177556853Y-55211074D01*
X177556853Y-55014926D01*
X177587538Y-54821193D01*
X177648151Y-54634646D01*
X177737200Y-54459877D01*
X177852493Y-54301190D01*
X177991190Y-54162493D01*
X178149877Y-54047200D01*
X178324646Y-53958151D01*
X178511193Y-53897538D01*
X178704926Y-53866853D01*
X178901074Y-53866853D01*
X179094807Y-53897538D01*
G37*
G36*
X185444807Y-53897538D02*
G01*
X185631354Y-53958151D01*
X185806123Y-54047200D01*
X185964810Y-54162493D01*
X186103507Y-54301190D01*
X186218800Y-54459877D01*
X186307849Y-54634646D01*
X186368462Y-54821193D01*
X186399147Y-55014926D01*
X186399147Y-55211074D01*
X186368462Y-55404807D01*
X186307849Y-55591354D01*
X186218800Y-55766123D01*
X186103507Y-55924810D01*
X185964810Y-56063507D01*
X185806123Y-56178800D01*
X185631354Y-56267849D01*
X185444807Y-56328462D01*
X185251074Y-56359147D01*
X185054926Y-56359147D01*
X184861193Y-56328462D01*
X184674646Y-56267849D01*
X184499877Y-56178800D01*
X184341190Y-56063507D01*
X184202493Y-55924810D01*
X184087200Y-55766123D01*
X183998151Y-55591354D01*
X183937538Y-55404807D01*
X183906853Y-55211074D01*
X183906853Y-55014926D01*
X183937538Y-54821193D01*
X183998151Y-54634646D01*
X184087200Y-54459877D01*
X184202493Y-54301190D01*
X184341190Y-54162493D01*
X184499877Y-54047200D01*
X184674646Y-53958151D01*
X184861193Y-53897538D01*
X185054926Y-53866853D01*
X185251074Y-53866853D01*
X185444807Y-53897538D01*
G37*
G36*
X191794807Y-53897538D02*
G01*
X191981354Y-53958151D01*
X192156123Y-54047200D01*
X192314810Y-54162493D01*
X192453507Y-54301190D01*
X192568800Y-54459877D01*
X192657849Y-54634646D01*
X192718462Y-54821193D01*
X192749147Y-55014926D01*
X192749147Y-55211074D01*
X192718462Y-55404807D01*
X192657849Y-55591354D01*
X192568800Y-55766123D01*
X192453507Y-55924810D01*
X192314810Y-56063507D01*
X192156123Y-56178800D01*
X191981354Y-56267849D01*
X191794807Y-56328462D01*
X191601074Y-56359147D01*
X191404926Y-56359147D01*
X191211193Y-56328462D01*
X191024646Y-56267849D01*
X190849877Y-56178800D01*
X190691190Y-56063507D01*
X190552493Y-55924810D01*
X190437200Y-55766123D01*
X190348151Y-55591354D01*
X190287538Y-55404807D01*
X190256853Y-55211074D01*
X190256853Y-55014926D01*
X190287538Y-54821193D01*
X190348151Y-54634646D01*
X190437200Y-54459877D01*
X190552493Y-54301190D01*
X190691190Y-54162493D01*
X190849877Y-54047200D01*
X191024646Y-53958151D01*
X191211193Y-53897538D01*
X191404926Y-53866853D01*
X191601074Y-53866853D01*
X191794807Y-53897538D01*
G37*
G36*
X172714807Y-53824538D02*
G01*
X172901354Y-53885151D01*
X173076123Y-53974200D01*
X173234810Y-54089493D01*
X173373507Y-54228190D01*
X173488800Y-54386877D01*
X173577849Y-54561646D01*
X173638462Y-54748193D01*
X173669147Y-54941926D01*
X173669147Y-55138074D01*
X173638462Y-55331807D01*
X173577849Y-55518354D01*
X173488800Y-55693123D01*
X173373507Y-55851810D01*
X173234810Y-55990507D01*
X173076123Y-56105800D01*
X172901354Y-56194849D01*
X172714807Y-56255462D01*
X172521074Y-56286147D01*
X172324926Y-56286147D01*
X172131193Y-56255462D01*
X171944646Y-56194849D01*
X171769877Y-56105800D01*
X171611190Y-55990507D01*
X171472493Y-55851810D01*
X171357200Y-55693123D01*
X171268151Y-55518354D01*
X171207538Y-55331807D01*
X171176853Y-55138074D01*
X171176853Y-54941926D01*
X171207538Y-54748193D01*
X171268151Y-54561646D01*
X171357200Y-54386877D01*
X171472493Y-54228190D01*
X171611190Y-54089493D01*
X171769877Y-53974200D01*
X171944646Y-53885151D01*
X172131193Y-53824538D01*
X172324926Y-53793853D01*
X172521074Y-53793853D01*
X172714807Y-53824538D01*
G37*
G36*
X153591807Y-53784538D02*
G01*
X153778354Y-53845151D01*
X153953123Y-53934200D01*
X154111810Y-54049493D01*
X154250507Y-54188190D01*
X154365800Y-54346877D01*
X154454849Y-54521646D01*
X154515462Y-54708193D01*
X154546147Y-54901926D01*
X154546147Y-55098074D01*
X154515462Y-55291807D01*
X154454849Y-55478354D01*
X154365800Y-55653123D01*
X154250507Y-55811810D01*
X154111810Y-55950507D01*
X153953123Y-56065800D01*
X153778354Y-56154849D01*
X153591807Y-56215462D01*
X153398074Y-56246147D01*
X153201926Y-56246147D01*
X153008193Y-56215462D01*
X152821646Y-56154849D01*
X152646877Y-56065800D01*
X152488190Y-55950507D01*
X152349493Y-55811810D01*
X152234200Y-55653123D01*
X152145151Y-55478354D01*
X152084538Y-55291807D01*
X152053853Y-55098074D01*
X152053853Y-54901926D01*
X152084538Y-54708193D01*
X152145151Y-54521646D01*
X152234200Y-54346877D01*
X152349493Y-54188190D01*
X152488190Y-54049493D01*
X152646877Y-53934200D01*
X152821646Y-53845151D01*
X153008193Y-53784538D01*
X153201926Y-53753853D01*
X153398074Y-53753853D01*
X153591807Y-53784538D01*
G37*
G36*
X159941807Y-53784538D02*
G01*
X160128354Y-53845151D01*
X160303123Y-53934200D01*
X160461810Y-54049493D01*
X160600507Y-54188190D01*
X160715800Y-54346877D01*
X160804849Y-54521646D01*
X160865462Y-54708193D01*
X160896147Y-54901926D01*
X160896147Y-55098074D01*
X160865462Y-55291807D01*
X160804849Y-55478354D01*
X160715800Y-55653123D01*
X160600507Y-55811810D01*
X160461810Y-55950507D01*
X160303123Y-56065800D01*
X160128354Y-56154849D01*
X159941807Y-56215462D01*
X159748074Y-56246147D01*
X159551926Y-56246147D01*
X159358193Y-56215462D01*
X159171646Y-56154849D01*
X158996877Y-56065800D01*
X158838190Y-55950507D01*
X158699493Y-55811810D01*
X158584200Y-55653123D01*
X158495151Y-55478354D01*
X158434538Y-55291807D01*
X158403853Y-55098074D01*
X158403853Y-54901926D01*
X158434538Y-54708193D01*
X158495151Y-54521646D01*
X158584200Y-54346877D01*
X158699493Y-54188190D01*
X158838190Y-54049493D01*
X158996877Y-53934200D01*
X159171646Y-53845151D01*
X159358193Y-53784538D01*
X159551926Y-53753853D01*
X159748074Y-53753853D01*
X159941807Y-53784538D01*
G37*
G36*
X166291807Y-53784538D02*
G01*
X166478354Y-53845151D01*
X166653123Y-53934200D01*
X166811810Y-54049493D01*
X166950507Y-54188190D01*
X167065800Y-54346877D01*
X167154849Y-54521646D01*
X167215462Y-54708193D01*
X167246147Y-54901926D01*
X167246147Y-55098074D01*
X167215462Y-55291807D01*
X167154849Y-55478354D01*
X167065800Y-55653123D01*
X166950507Y-55811810D01*
X166811810Y-55950507D01*
X166653123Y-56065800D01*
X166478354Y-56154849D01*
X166291807Y-56215462D01*
X166098074Y-56246147D01*
X165901926Y-56246147D01*
X165708193Y-56215462D01*
X165521646Y-56154849D01*
X165346877Y-56065800D01*
X165188190Y-55950507D01*
X165049493Y-55811810D01*
X164934200Y-55653123D01*
X164845151Y-55478354D01*
X164784538Y-55291807D01*
X164753853Y-55098074D01*
X164753853Y-54901926D01*
X164784538Y-54708193D01*
X164845151Y-54521646D01*
X164934200Y-54346877D01*
X165049493Y-54188190D01*
X165188190Y-54049493D01*
X165346877Y-53934200D01*
X165521646Y-53845151D01*
X165708193Y-53784538D01*
X165901926Y-53753853D01*
X166098074Y-53753853D01*
X166291807Y-53784538D01*
G37*
G36*
X135224047Y-53677805D02*
G01*
X135275408Y-53683764D01*
X135292954Y-53691511D01*
X135315671Y-53696030D01*
X135339991Y-53712280D01*
X135360793Y-53721465D01*
X135375000Y-53735672D01*
X135396777Y-53750223D01*
X135411327Y-53771999D01*
X135425534Y-53786206D01*
X135434718Y-53807006D01*
X135450970Y-53831329D01*
X135455489Y-53854048D01*
X135463235Y-53871591D01*
X135469192Y-53922940D01*
X135470000Y-53927000D01*
X135470000Y-55927000D01*
X135469192Y-55931059D01*
X135463235Y-55982408D01*
X135455489Y-55999950D01*
X135450970Y-56022671D01*
X135434716Y-56046995D01*
X135425534Y-56067793D01*
X135411329Y-56081997D01*
X135396777Y-56103777D01*
X135374997Y-56118329D01*
X135360793Y-56132534D01*
X135339995Y-56141716D01*
X135315671Y-56157970D01*
X135292950Y-56162489D01*
X135275408Y-56170235D01*
X135224061Y-56176192D01*
X135220000Y-56177000D01*
X133220000Y-56177000D01*
X133215941Y-56176192D01*
X133164591Y-56170235D01*
X133147048Y-56162489D01*
X133124329Y-56157970D01*
X133100006Y-56141718D01*
X133079206Y-56132534D01*
X133064999Y-56118327D01*
X133043223Y-56103777D01*
X133028672Y-56082000D01*
X133014465Y-56067793D01*
X133005280Y-56046991D01*
X132989030Y-56022671D01*
X132984511Y-55999954D01*
X132976764Y-55982408D01*
X132970805Y-55931049D01*
X132970000Y-55927000D01*
X132970000Y-53927000D01*
X132970804Y-53922953D01*
X132976764Y-53871591D01*
X132984511Y-53854043D01*
X132989030Y-53831329D01*
X133005278Y-53807010D01*
X133014465Y-53786206D01*
X133028674Y-53771996D01*
X133043223Y-53750223D01*
X133064996Y-53735674D01*
X133079206Y-53721465D01*
X133100010Y-53712278D01*
X133124329Y-53696030D01*
X133147043Y-53691511D01*
X133164591Y-53683764D01*
X133215952Y-53677805D01*
X133220000Y-53677000D01*
X135220000Y-53677000D01*
X135224047Y-53677805D01*
G37*
G36*
X140861807Y-53711538D02*
G01*
X141048354Y-53772151D01*
X141223123Y-53861200D01*
X141381810Y-53976493D01*
X141520507Y-54115190D01*
X141635800Y-54273877D01*
X141724849Y-54448646D01*
X141785462Y-54635193D01*
X141816147Y-54828926D01*
X141816147Y-55025074D01*
X141785462Y-55218807D01*
X141724849Y-55405354D01*
X141635800Y-55580123D01*
X141520507Y-55738810D01*
X141381810Y-55877507D01*
X141223123Y-55992800D01*
X141048354Y-56081849D01*
X140861807Y-56142462D01*
X140668074Y-56173147D01*
X140471926Y-56173147D01*
X140278193Y-56142462D01*
X140091646Y-56081849D01*
X139916877Y-55992800D01*
X139758190Y-55877507D01*
X139619493Y-55738810D01*
X139504200Y-55580123D01*
X139415151Y-55405354D01*
X139354538Y-55218807D01*
X139323853Y-55025074D01*
X139323853Y-54828926D01*
X139354538Y-54635193D01*
X139415151Y-54448646D01*
X139504200Y-54273877D01*
X139619493Y-54115190D01*
X139758190Y-53976493D01*
X139916877Y-53861200D01*
X140091646Y-53772151D01*
X140278193Y-53711538D01*
X140471926Y-53680853D01*
X140668074Y-53680853D01*
X140861807Y-53711538D01*
G37*
G36*
X147211807Y-53711538D02*
G01*
X147398354Y-53772151D01*
X147573123Y-53861200D01*
X147731810Y-53976493D01*
X147870507Y-54115190D01*
X147985800Y-54273877D01*
X148074849Y-54448646D01*
X148135462Y-54635193D01*
X148166147Y-54828926D01*
X148166147Y-55025074D01*
X148135462Y-55218807D01*
X148074849Y-55405354D01*
X147985800Y-55580123D01*
X147870507Y-55738810D01*
X147731810Y-55877507D01*
X147573123Y-55992800D01*
X147398354Y-56081849D01*
X147211807Y-56142462D01*
X147018074Y-56173147D01*
X146821926Y-56173147D01*
X146628193Y-56142462D01*
X146441646Y-56081849D01*
X146266877Y-55992800D01*
X146108190Y-55877507D01*
X145969493Y-55738810D01*
X145854200Y-55580123D01*
X145765151Y-55405354D01*
X145704538Y-55218807D01*
X145673853Y-55025074D01*
X145673853Y-54828926D01*
X145704538Y-54635193D01*
X145765151Y-54448646D01*
X145854200Y-54273877D01*
X145969493Y-54115190D01*
X146108190Y-53976493D01*
X146266877Y-53861200D01*
X146441646Y-53772151D01*
X146628193Y-53711538D01*
X146821926Y-53680853D01*
X147018074Y-53680853D01*
X147211807Y-53711538D01*
G37*
G36*
X121732228Y-53234448D02*
G01*
X121877117Y-53294463D01*
X122007515Y-53381592D01*
X122118408Y-53492485D01*
X122205537Y-53622883D01*
X122265552Y-53767772D01*
X122296148Y-53921586D01*
X122296148Y-54078414D01*
X122265552Y-54232228D01*
X122205537Y-54377117D01*
X122118408Y-54507515D01*
X122007515Y-54618408D01*
X121877117Y-54705537D01*
X121732228Y-54765552D01*
X121578414Y-54796148D01*
X121421586Y-54796148D01*
X121267772Y-54765552D01*
X121122883Y-54705537D01*
X120992485Y-54618408D01*
X120881592Y-54507515D01*
X120794463Y-54377117D01*
X120734448Y-54232228D01*
X120703852Y-54078414D01*
X120703852Y-53921586D01*
X120734448Y-53767772D01*
X120794463Y-53622883D01*
X120881592Y-53492485D01*
X120992485Y-53381592D01*
X121122883Y-53294463D01*
X121267772Y-53234448D01*
X121421586Y-53203852D01*
X121578414Y-53203852D01*
X121732228Y-53234448D01*
G37*
G36*
X126732228Y-53234448D02*
G01*
X126877117Y-53294463D01*
X127007515Y-53381592D01*
X127118408Y-53492485D01*
X127205537Y-53622883D01*
X127265552Y-53767772D01*
X127296148Y-53921586D01*
X127296148Y-54078414D01*
X127265552Y-54232228D01*
X127205537Y-54377117D01*
X127118408Y-54507515D01*
X127007515Y-54618408D01*
X126877117Y-54705537D01*
X126732228Y-54765552D01*
X126578414Y-54796148D01*
X126421586Y-54796148D01*
X126267772Y-54765552D01*
X126122883Y-54705537D01*
X125992485Y-54618408D01*
X125881592Y-54507515D01*
X125794463Y-54377117D01*
X125734448Y-54232228D01*
X125703852Y-54078414D01*
X125703852Y-53921586D01*
X125734448Y-53767772D01*
X125794463Y-53622883D01*
X125881592Y-53492485D01*
X125992485Y-53381592D01*
X126122883Y-53294463D01*
X126267772Y-53234448D01*
X126421586Y-53203852D01*
X126578414Y-53203852D01*
X126732228Y-53234448D01*
G37*
G36*
X198256790Y-51930393D02*
G01*
X198420952Y-51983733D01*
X198574748Y-52062096D01*
X198714393Y-52163553D01*
X198836447Y-52285607D01*
X198937904Y-52425252D01*
X199016267Y-52579048D01*
X199069607Y-52743210D01*
X199096609Y-52913695D01*
X199096609Y-53086305D01*
X199069607Y-53256790D01*
X199016267Y-53420952D01*
X198937904Y-53574748D01*
X198836447Y-53714393D01*
X198714393Y-53836447D01*
X198574748Y-53937904D01*
X198420952Y-54016267D01*
X198256790Y-54069607D01*
X198086305Y-54096609D01*
X197913695Y-54096609D01*
X197743210Y-54069607D01*
X197579048Y-54016267D01*
X197425252Y-53937904D01*
X197285607Y-53836447D01*
X197163553Y-53714393D01*
X197062096Y-53574748D01*
X196983733Y-53420952D01*
X196930393Y-53256790D01*
X196903391Y-53086305D01*
X196903391Y-52913695D01*
X196930393Y-52743210D01*
X196983733Y-52579048D01*
X197062096Y-52425252D01*
X197163553Y-52285607D01*
X197285607Y-52163553D01*
X197425252Y-52062096D01*
X197579048Y-51983733D01*
X197743210Y-51930393D01*
X197913695Y-51903391D01*
X198086305Y-51903391D01*
X198256790Y-51930393D01*
G37*
G36*
X116756790Y-51430393D02*
G01*
X116920952Y-51483733D01*
X117074748Y-51562096D01*
X117214393Y-51663553D01*
X117336447Y-51785607D01*
X117437904Y-51925252D01*
X117516267Y-52079048D01*
X117569607Y-52243210D01*
X117596609Y-52413695D01*
X117596609Y-52586305D01*
X117569607Y-52756790D01*
X117516267Y-52920952D01*
X117437904Y-53074748D01*
X117336447Y-53214393D01*
X117214393Y-53336447D01*
X117074748Y-53437904D01*
X116920952Y-53516267D01*
X116756790Y-53569607D01*
X116586305Y-53596609D01*
X116413695Y-53596609D01*
X116243210Y-53569607D01*
X116079048Y-53516267D01*
X115925252Y-53437904D01*
X115785607Y-53336447D01*
X115663553Y-53214393D01*
X115562096Y-53074748D01*
X115483733Y-52920952D01*
X115430393Y-52756790D01*
X115403391Y-52586305D01*
X115403391Y-52413695D01*
X115430393Y-52243210D01*
X115483733Y-52079048D01*
X115562096Y-51925252D01*
X115663553Y-51785607D01*
X115785607Y-51663553D01*
X115925252Y-51562096D01*
X116079048Y-51483733D01*
X116243210Y-51430393D01*
X116413695Y-51403391D01*
X116586305Y-51403391D01*
X116756790Y-51430393D01*
G37*
M02*
