%TF.GenerationSoftware,KiCad,Pcbnew,10.0.3*%
%TF.CreationDate,2026-07-16T17:49:25-06:00*%
%TF.ProjectId,DC2209A1,44433232-3039-4413-912e-6b696361645f,rev?*%
%TF.SameCoordinates,Original*%
%TF.FileFunction,Paste,Top*%
%TF.FilePolarity,Positive*%
%FSLAX46Y46*%
G04 Gerber Fmt 4.6, Leading zero omitted, Abs format (unit mm)*
G04 Created by KiCad (PCBNEW 10.0.3) date 2026-07-16 17:49:25*
%MOMM*%
%LPD*%
G01*
G04 APERTURE LIST*
G04 Aperture macros list*
%AMRoundRect*
0 Rectangle with rounded corners*
0 $1 Rounding radius*
0 $2 $3 $4 $5 $6 $7 $8 $9 X,Y pos of 4 corners*
0 Add a 4 corners polygon primitive as box body*
4,1,4,$2,$3,$4,$5,$6,$7,$8,$9,$2,$3,0*
0 Add four circle primitives for the rounded corners*
1,1,$1+$1,$2,$3*
1,1,$1+$1,$4,$5*
1,1,$1+$1,$6,$7*
1,1,$1+$1,$8,$9*
0 Add four rect primitives between the rounded corners*
20,1,$1+$1,$2,$3,$4,$5,0*
20,1,$1+$1,$4,$5,$6,$7,0*
20,1,$1+$1,$6,$7,$8,$9,0*
20,1,$1+$1,$8,$9,$2,$3,0*%
G04 Aperture macros list end*
%ADD10RoundRect,0.242500X0.242500X-0.242500X0.242500X0.242500X-0.242500X0.242500X-0.242500X-0.242500X0*%
%ADD11RoundRect,0.075000X0.075000X-0.662500X0.075000X0.662500X-0.075000X0.662500X-0.075000X-0.662500X0*%
%ADD12RoundRect,0.075000X0.662500X-0.075000X0.662500X0.075000X-0.662500X0.075000X-0.662500X-0.075000X0*%
G04 APERTURE END LIST*
D10*
%TO.C,U1*%
X121300000Y-74700000D03*
X122500000Y-74700000D03*
X123700000Y-74700000D03*
X121300000Y-73500000D03*
X122500000Y-73500000D03*
X123700000Y-73500000D03*
X121300000Y-72300000D03*
X122500000Y-72300000D03*
X123700000Y-72300000D03*
D11*
X119750000Y-77662500D03*
X120250000Y-77662500D03*
X120750000Y-77662500D03*
X121250000Y-77662500D03*
X121750000Y-77662500D03*
X122250000Y-77662500D03*
X122750000Y-77662500D03*
X123250000Y-77662500D03*
X123750000Y-77662500D03*
X124250000Y-77662500D03*
X124750000Y-77662500D03*
X125250000Y-77662500D03*
D12*
X126662500Y-76250000D03*
X126662500Y-75750000D03*
X126662500Y-75250000D03*
X126662500Y-74750000D03*
X126662500Y-74250000D03*
X126662500Y-73750000D03*
X126662500Y-73250000D03*
X126662500Y-72750000D03*
X126662500Y-72250000D03*
X126662500Y-71750000D03*
X126662500Y-71250000D03*
X126662500Y-70750000D03*
D11*
X125250000Y-69337500D03*
X124750000Y-69337500D03*
X124250000Y-69337500D03*
X123750000Y-69337500D03*
X123250000Y-69337500D03*
X122750000Y-69337500D03*
X122250000Y-69337500D03*
X121750000Y-69337500D03*
X121250000Y-69337500D03*
X120750000Y-69337500D03*
X120250000Y-69337500D03*
X119750000Y-69337500D03*
D12*
X118337500Y-70750000D03*
X118337500Y-71250000D03*
X118337500Y-71750000D03*
X118337500Y-72250000D03*
X118337500Y-72750000D03*
X118337500Y-73250000D03*
X118337500Y-73750000D03*
X118337500Y-74250000D03*
X118337500Y-74750000D03*
X118337500Y-75250000D03*
X118337500Y-75750000D03*
X118337500Y-76250000D03*
%TD*%
M02*
