%TF.GenerationSoftware,KiCad,Pcbnew,10.0.3*%
%TF.CreationDate,2026-07-16T17:49:25-06:00*%
%TF.ProjectId,DC2209A1,44433232-3039-4413-912e-6b696361645f,rev?*%
%TF.SameCoordinates,Original*%
%TF.FileFunction,Profile,NP*%
%FSLAX46Y46*%
G04 Gerber Fmt 4.6, Leading zero omitted, Abs format (unit mm)*
G04 Created by KiCad (PCBNEW 10.0.3) date 2026-07-16 17:49:25*
%MOMM*%
%LPD*%
G01*
G04 APERTURE LIST*
%ADD10C,0.150000*%
%TA.AperFunction,Profile*%
%ADD11C,0.100000*%
%TD*%
G04 APERTURE END LIST*
D10*
X131924874Y-49913152D02*
X131924874Y-48484580D01*
X143734874Y-49783152D02*
X143734874Y-48354580D01*
X156464874Y-49823152D02*
X156464874Y-48394580D01*
X169234874Y-49733152D02*
X169234874Y-48304580D01*
X181874874Y-49693152D02*
X181874874Y-48264580D01*
X186988207Y-49174580D02*
X186940588Y-49222200D01*
X186940588Y-49222200D02*
X186797731Y-49269819D01*
X186797731Y-49269819D02*
X186702493Y-49269819D01*
X186702493Y-49269819D02*
X186559636Y-49222200D01*
X186559636Y-49222200D02*
X186464398Y-49126961D01*
X186464398Y-49126961D02*
X186416779Y-49031723D01*
X186416779Y-49031723D02*
X186369160Y-48841247D01*
X186369160Y-48841247D02*
X186369160Y-48698390D01*
X186369160Y-48698390D02*
X186416779Y-48507914D01*
X186416779Y-48507914D02*
X186464398Y-48412676D01*
X186464398Y-48412676D02*
X186559636Y-48317438D01*
X186559636Y-48317438D02*
X186702493Y-48269819D01*
X186702493Y-48269819D02*
X186797731Y-48269819D01*
X186797731Y-48269819D02*
X186940588Y-48317438D01*
X186940588Y-48317438D02*
X186988207Y-48365057D01*
X187416779Y-49269819D02*
X187416779Y-48269819D01*
X187416779Y-48746009D02*
X187988207Y-48746009D01*
X187988207Y-49269819D02*
X187988207Y-48269819D01*
X188988207Y-49269819D02*
X188416779Y-49269819D01*
X188702493Y-49269819D02*
X188702493Y-48269819D01*
X188702493Y-48269819D02*
X188607255Y-48412676D01*
X188607255Y-48412676D02*
X188512017Y-48507914D01*
X188512017Y-48507914D02*
X188416779Y-48555533D01*
X189321541Y-48269819D02*
X189988207Y-48269819D01*
X189988207Y-48269819D02*
X189559636Y-49269819D01*
X174178207Y-49304580D02*
X174130588Y-49352200D01*
X174130588Y-49352200D02*
X173987731Y-49399819D01*
X173987731Y-49399819D02*
X173892493Y-49399819D01*
X173892493Y-49399819D02*
X173749636Y-49352200D01*
X173749636Y-49352200D02*
X173654398Y-49256961D01*
X173654398Y-49256961D02*
X173606779Y-49161723D01*
X173606779Y-49161723D02*
X173559160Y-48971247D01*
X173559160Y-48971247D02*
X173559160Y-48828390D01*
X173559160Y-48828390D02*
X173606779Y-48637914D01*
X173606779Y-48637914D02*
X173654398Y-48542676D01*
X173654398Y-48542676D02*
X173749636Y-48447438D01*
X173749636Y-48447438D02*
X173892493Y-48399819D01*
X173892493Y-48399819D02*
X173987731Y-48399819D01*
X173987731Y-48399819D02*
X174130588Y-48447438D01*
X174130588Y-48447438D02*
X174178207Y-48495057D01*
X174606779Y-49399819D02*
X174606779Y-48399819D01*
X174606779Y-48876009D02*
X175178207Y-48876009D01*
X175178207Y-49399819D02*
X175178207Y-48399819D01*
X176178207Y-49399819D02*
X175606779Y-49399819D01*
X175892493Y-49399819D02*
X175892493Y-48399819D01*
X175892493Y-48399819D02*
X175797255Y-48542676D01*
X175797255Y-48542676D02*
X175702017Y-48637914D01*
X175702017Y-48637914D02*
X175606779Y-48685533D01*
X177035350Y-48399819D02*
X176844874Y-48399819D01*
X176844874Y-48399819D02*
X176749636Y-48447438D01*
X176749636Y-48447438D02*
X176702017Y-48495057D01*
X176702017Y-48495057D02*
X176606779Y-48637914D01*
X176606779Y-48637914D02*
X176559160Y-48828390D01*
X176559160Y-48828390D02*
X176559160Y-49209342D01*
X176559160Y-49209342D02*
X176606779Y-49304580D01*
X176606779Y-49304580D02*
X176654398Y-49352200D01*
X176654398Y-49352200D02*
X176749636Y-49399819D01*
X176749636Y-49399819D02*
X176940112Y-49399819D01*
X176940112Y-49399819D02*
X177035350Y-49352200D01*
X177035350Y-49352200D02*
X177082969Y-49304580D01*
X177082969Y-49304580D02*
X177130588Y-49209342D01*
X177130588Y-49209342D02*
X177130588Y-48971247D01*
X177130588Y-48971247D02*
X177082969Y-48876009D01*
X177082969Y-48876009D02*
X177035350Y-48828390D01*
X177035350Y-48828390D02*
X176940112Y-48780771D01*
X176940112Y-48780771D02*
X176749636Y-48780771D01*
X176749636Y-48780771D02*
X176654398Y-48828390D01*
X176654398Y-48828390D02*
X176606779Y-48876009D01*
X176606779Y-48876009D02*
X176559160Y-48971247D01*
X161798207Y-49344580D02*
X161750588Y-49392200D01*
X161750588Y-49392200D02*
X161607731Y-49439819D01*
X161607731Y-49439819D02*
X161512493Y-49439819D01*
X161512493Y-49439819D02*
X161369636Y-49392200D01*
X161369636Y-49392200D02*
X161274398Y-49296961D01*
X161274398Y-49296961D02*
X161226779Y-49201723D01*
X161226779Y-49201723D02*
X161179160Y-49011247D01*
X161179160Y-49011247D02*
X161179160Y-48868390D01*
X161179160Y-48868390D02*
X161226779Y-48677914D01*
X161226779Y-48677914D02*
X161274398Y-48582676D01*
X161274398Y-48582676D02*
X161369636Y-48487438D01*
X161369636Y-48487438D02*
X161512493Y-48439819D01*
X161512493Y-48439819D02*
X161607731Y-48439819D01*
X161607731Y-48439819D02*
X161750588Y-48487438D01*
X161750588Y-48487438D02*
X161798207Y-48535057D01*
X162226779Y-49439819D02*
X162226779Y-48439819D01*
X162226779Y-48916009D02*
X162798207Y-48916009D01*
X162798207Y-49439819D02*
X162798207Y-48439819D01*
X163798207Y-49439819D02*
X163226779Y-49439819D01*
X163512493Y-49439819D02*
X163512493Y-48439819D01*
X163512493Y-48439819D02*
X163417255Y-48582676D01*
X163417255Y-48582676D02*
X163322017Y-48677914D01*
X163322017Y-48677914D02*
X163226779Y-48725533D01*
X164702969Y-48439819D02*
X164226779Y-48439819D01*
X164226779Y-48439819D02*
X164179160Y-48916009D01*
X164179160Y-48916009D02*
X164226779Y-48868390D01*
X164226779Y-48868390D02*
X164322017Y-48820771D01*
X164322017Y-48820771D02*
X164560112Y-48820771D01*
X164560112Y-48820771D02*
X164655350Y-48868390D01*
X164655350Y-48868390D02*
X164702969Y-48916009D01*
X164702969Y-48916009D02*
X164750588Y-49011247D01*
X164750588Y-49011247D02*
X164750588Y-49249342D01*
X164750588Y-49249342D02*
X164702969Y-49344580D01*
X164702969Y-49344580D02*
X164655350Y-49392200D01*
X164655350Y-49392200D02*
X164560112Y-49439819D01*
X164560112Y-49439819D02*
X164322017Y-49439819D01*
X164322017Y-49439819D02*
X164226779Y-49392200D01*
X164226779Y-49392200D02*
X164179160Y-49344580D01*
X148278207Y-49394580D02*
X148230588Y-49442200D01*
X148230588Y-49442200D02*
X148087731Y-49489819D01*
X148087731Y-49489819D02*
X147992493Y-49489819D01*
X147992493Y-49489819D02*
X147849636Y-49442200D01*
X147849636Y-49442200D02*
X147754398Y-49346961D01*
X147754398Y-49346961D02*
X147706779Y-49251723D01*
X147706779Y-49251723D02*
X147659160Y-49061247D01*
X147659160Y-49061247D02*
X147659160Y-48918390D01*
X147659160Y-48918390D02*
X147706779Y-48727914D01*
X147706779Y-48727914D02*
X147754398Y-48632676D01*
X147754398Y-48632676D02*
X147849636Y-48537438D01*
X147849636Y-48537438D02*
X147992493Y-48489819D01*
X147992493Y-48489819D02*
X148087731Y-48489819D01*
X148087731Y-48489819D02*
X148230588Y-48537438D01*
X148230588Y-48537438D02*
X148278207Y-48585057D01*
X148706779Y-49489819D02*
X148706779Y-48489819D01*
X148706779Y-48966009D02*
X149278207Y-48966009D01*
X149278207Y-49489819D02*
X149278207Y-48489819D01*
X150278207Y-49489819D02*
X149706779Y-49489819D01*
X149992493Y-49489819D02*
X149992493Y-48489819D01*
X149992493Y-48489819D02*
X149897255Y-48632676D01*
X149897255Y-48632676D02*
X149802017Y-48727914D01*
X149802017Y-48727914D02*
X149706779Y-48775533D01*
X151135350Y-48823152D02*
X151135350Y-49489819D01*
X150897255Y-48442200D02*
X150659160Y-49156485D01*
X150659160Y-49156485D02*
X151278207Y-49156485D01*
X136258207Y-49434580D02*
X136210588Y-49482200D01*
X136210588Y-49482200D02*
X136067731Y-49529819D01*
X136067731Y-49529819D02*
X135972493Y-49529819D01*
X135972493Y-49529819D02*
X135829636Y-49482200D01*
X135829636Y-49482200D02*
X135734398Y-49386961D01*
X135734398Y-49386961D02*
X135686779Y-49291723D01*
X135686779Y-49291723D02*
X135639160Y-49101247D01*
X135639160Y-49101247D02*
X135639160Y-48958390D01*
X135639160Y-48958390D02*
X135686779Y-48767914D01*
X135686779Y-48767914D02*
X135734398Y-48672676D01*
X135734398Y-48672676D02*
X135829636Y-48577438D01*
X135829636Y-48577438D02*
X135972493Y-48529819D01*
X135972493Y-48529819D02*
X136067731Y-48529819D01*
X136067731Y-48529819D02*
X136210588Y-48577438D01*
X136210588Y-48577438D02*
X136258207Y-48625057D01*
X136686779Y-49529819D02*
X136686779Y-48529819D01*
X136686779Y-49006009D02*
X137258207Y-49006009D01*
X137258207Y-49529819D02*
X137258207Y-48529819D01*
X138258207Y-49529819D02*
X137686779Y-49529819D01*
X137972493Y-49529819D02*
X137972493Y-48529819D01*
X137972493Y-48529819D02*
X137877255Y-48672676D01*
X137877255Y-48672676D02*
X137782017Y-48767914D01*
X137782017Y-48767914D02*
X137686779Y-48815533D01*
X138591541Y-48529819D02*
X139210588Y-48529819D01*
X139210588Y-48529819D02*
X138877255Y-48910771D01*
X138877255Y-48910771D02*
X139020112Y-48910771D01*
X139020112Y-48910771D02*
X139115350Y-48958390D01*
X139115350Y-48958390D02*
X139162969Y-49006009D01*
X139162969Y-49006009D02*
X139210588Y-49101247D01*
X139210588Y-49101247D02*
X139210588Y-49339342D01*
X139210588Y-49339342D02*
X139162969Y-49434580D01*
X139162969Y-49434580D02*
X139115350Y-49482200D01*
X139115350Y-49482200D02*
X139020112Y-49529819D01*
X139020112Y-49529819D02*
X138734398Y-49529819D01*
X138734398Y-49529819D02*
X138639160Y-49482200D01*
X138639160Y-49482200D02*
X138591541Y-49434580D01*
D11*
X114000000Y-48080000D02*
X200500000Y-48080000D01*
X200500000Y-101500000D01*
X114000000Y-101500000D01*
X114000000Y-48080000D01*
D10*
X217304819Y-76702380D02*
X217304819Y-77178570D01*
X217304819Y-77178570D02*
X217781009Y-77226189D01*
X217781009Y-77226189D02*
X217733390Y-77178570D01*
X217733390Y-77178570D02*
X217685771Y-77083332D01*
X217685771Y-77083332D02*
X217685771Y-76845237D01*
X217685771Y-76845237D02*
X217733390Y-76749999D01*
X217733390Y-76749999D02*
X217781009Y-76702380D01*
X217781009Y-76702380D02*
X217876247Y-76654761D01*
X217876247Y-76654761D02*
X218114342Y-76654761D01*
X218114342Y-76654761D02*
X218209580Y-76702380D01*
X218209580Y-76702380D02*
X218257200Y-76749999D01*
X218257200Y-76749999D02*
X218304819Y-76845237D01*
X218304819Y-76845237D02*
X218304819Y-77083332D01*
X218304819Y-77083332D02*
X218257200Y-77178570D01*
X218257200Y-77178570D02*
X218209580Y-77226189D01*
X218304819Y-75702380D02*
X218304819Y-76273808D01*
X218304819Y-75988094D02*
X217304819Y-75988094D01*
X217304819Y-75988094D02*
X217447676Y-76083332D01*
X217447676Y-76083332D02*
X217542914Y-76178570D01*
X217542914Y-76178570D02*
X217590533Y-76273808D01*
X218209580Y-75273808D02*
X218257200Y-75226189D01*
X218257200Y-75226189D02*
X218304819Y-75273808D01*
X218304819Y-75273808D02*
X218257200Y-75321427D01*
X218257200Y-75321427D02*
X218209580Y-75273808D01*
X218209580Y-75273808D02*
X218304819Y-75273808D01*
X217304819Y-74321428D02*
X217304819Y-74797618D01*
X217304819Y-74797618D02*
X217781009Y-74845237D01*
X217781009Y-74845237D02*
X217733390Y-74797618D01*
X217733390Y-74797618D02*
X217685771Y-74702380D01*
X217685771Y-74702380D02*
X217685771Y-74464285D01*
X217685771Y-74464285D02*
X217733390Y-74369047D01*
X217733390Y-74369047D02*
X217781009Y-74321428D01*
X217781009Y-74321428D02*
X217876247Y-74273809D01*
X217876247Y-74273809D02*
X218114342Y-74273809D01*
X218114342Y-74273809D02*
X218209580Y-74321428D01*
X218209580Y-74321428D02*
X218257200Y-74369047D01*
X218257200Y-74369047D02*
X218304819Y-74464285D01*
X218304819Y-74464285D02*
X218304819Y-74702380D01*
X218304819Y-74702380D02*
X218257200Y-74797618D01*
X218257200Y-74797618D02*
X218209580Y-74845237D01*
D11*
X201000000Y-50000000D02*
X219586420Y-50000000D01*
X219586420Y-101500000D02*
X201000000Y-101500000D01*
X219000000Y-50000000D02*
X219000000Y-101500000D01*
X219000000Y-50000000D02*
X219586421Y-51126504D01*
X219000000Y-50000000D02*
X218413579Y-51126504D01*
X219000000Y-101500000D02*
X218413579Y-100373496D01*
X219000000Y-101500000D02*
X219586421Y-100373496D01*
D10*
X156607053Y-102883390D02*
X156511815Y-102835771D01*
X156511815Y-102835771D02*
X156464196Y-102788152D01*
X156464196Y-102788152D02*
X156416577Y-102692914D01*
X156416577Y-102692914D02*
X156416577Y-102645295D01*
X156416577Y-102645295D02*
X156464196Y-102550057D01*
X156464196Y-102550057D02*
X156511815Y-102502438D01*
X156511815Y-102502438D02*
X156607053Y-102454819D01*
X156607053Y-102454819D02*
X156797529Y-102454819D01*
X156797529Y-102454819D02*
X156892767Y-102502438D01*
X156892767Y-102502438D02*
X156940386Y-102550057D01*
X156940386Y-102550057D02*
X156988005Y-102645295D01*
X156988005Y-102645295D02*
X156988005Y-102692914D01*
X156988005Y-102692914D02*
X156940386Y-102788152D01*
X156940386Y-102788152D02*
X156892767Y-102835771D01*
X156892767Y-102835771D02*
X156797529Y-102883390D01*
X156797529Y-102883390D02*
X156607053Y-102883390D01*
X156607053Y-102883390D02*
X156511815Y-102931009D01*
X156511815Y-102931009D02*
X156464196Y-102978628D01*
X156464196Y-102978628D02*
X156416577Y-103073866D01*
X156416577Y-103073866D02*
X156416577Y-103264342D01*
X156416577Y-103264342D02*
X156464196Y-103359580D01*
X156464196Y-103359580D02*
X156511815Y-103407200D01*
X156511815Y-103407200D02*
X156607053Y-103454819D01*
X156607053Y-103454819D02*
X156797529Y-103454819D01*
X156797529Y-103454819D02*
X156892767Y-103407200D01*
X156892767Y-103407200D02*
X156940386Y-103359580D01*
X156940386Y-103359580D02*
X156988005Y-103264342D01*
X156988005Y-103264342D02*
X156988005Y-103073866D01*
X156988005Y-103073866D02*
X156940386Y-102978628D01*
X156940386Y-102978628D02*
X156892767Y-102931009D01*
X156892767Y-102931009D02*
X156797529Y-102883390D01*
X157845148Y-102454819D02*
X157654672Y-102454819D01*
X157654672Y-102454819D02*
X157559434Y-102502438D01*
X157559434Y-102502438D02*
X157511815Y-102550057D01*
X157511815Y-102550057D02*
X157416577Y-102692914D01*
X157416577Y-102692914D02*
X157368958Y-102883390D01*
X157368958Y-102883390D02*
X157368958Y-103264342D01*
X157368958Y-103264342D02*
X157416577Y-103359580D01*
X157416577Y-103359580D02*
X157464196Y-103407200D01*
X157464196Y-103407200D02*
X157559434Y-103454819D01*
X157559434Y-103454819D02*
X157749910Y-103454819D01*
X157749910Y-103454819D02*
X157845148Y-103407200D01*
X157845148Y-103407200D02*
X157892767Y-103359580D01*
X157892767Y-103359580D02*
X157940386Y-103264342D01*
X157940386Y-103264342D02*
X157940386Y-103026247D01*
X157940386Y-103026247D02*
X157892767Y-102931009D01*
X157892767Y-102931009D02*
X157845148Y-102883390D01*
X157845148Y-102883390D02*
X157749910Y-102835771D01*
X157749910Y-102835771D02*
X157559434Y-102835771D01*
X157559434Y-102835771D02*
X157464196Y-102883390D01*
X157464196Y-102883390D02*
X157416577Y-102931009D01*
X157416577Y-102931009D02*
X157368958Y-103026247D01*
X158368958Y-103359580D02*
X158416577Y-103407200D01*
X158416577Y-103407200D02*
X158368958Y-103454819D01*
X158368958Y-103454819D02*
X158321339Y-103407200D01*
X158321339Y-103407200D02*
X158368958Y-103359580D01*
X158368958Y-103359580D02*
X158368958Y-103454819D01*
X159321338Y-102454819D02*
X158845148Y-102454819D01*
X158845148Y-102454819D02*
X158797529Y-102931009D01*
X158797529Y-102931009D02*
X158845148Y-102883390D01*
X158845148Y-102883390D02*
X158940386Y-102835771D01*
X158940386Y-102835771D02*
X159178481Y-102835771D01*
X159178481Y-102835771D02*
X159273719Y-102883390D01*
X159273719Y-102883390D02*
X159321338Y-102931009D01*
X159321338Y-102931009D02*
X159368957Y-103026247D01*
X159368957Y-103026247D02*
X159368957Y-103264342D01*
X159368957Y-103264342D02*
X159321338Y-103359580D01*
X159321338Y-103359580D02*
X159273719Y-103407200D01*
X159273719Y-103407200D02*
X159178481Y-103454819D01*
X159178481Y-103454819D02*
X158940386Y-103454819D01*
X158940386Y-103454819D02*
X158845148Y-103407200D01*
X158845148Y-103407200D02*
X158797529Y-103359580D01*
D11*
X200500000Y-102000000D02*
X200500000Y-108086420D01*
X114000000Y-108086420D02*
X114000000Y-102000000D01*
X200500000Y-107500000D02*
X114000000Y-107500000D01*
X200500000Y-107500000D02*
X199373496Y-108086421D01*
X200500000Y-107500000D02*
X199373496Y-106913579D01*
X114000000Y-107500000D02*
X115126504Y-106913579D01*
X114000000Y-107500000D02*
X115126504Y-108086421D01*
M02*
