%TF.GenerationSoftware,KiCad,Pcbnew,10.0.3*%
%TF.CreationDate,2026-07-16T17:49:25-06:00*%
%TF.ProjectId,DC2209A1,44433232-3039-4413-912e-6b696361645f,rev?*%
%TF.SameCoordinates,Original*%
%TF.FileFunction,Copper,L2,Bot*%
%TF.FilePolarity,Positive*%
%FSLAX46Y46*%
G04 Gerber Fmt 4.6, Leading zero omitted, Abs format (unit mm)*
G04 Created by KiCad (PCBNEW 10.0.3) date 2026-07-16 17:49:25*
%MOMM*%
%LPD*%
G01*
G04 APERTURE LIST*
G04 Aperture macros list*
%AMRoundRect*
0 Rectangle with rounded corners*
0 $1 Rounding radius*
0 $2 $3 $4 $5 $6 $7 $8 $9 X,Y pos of 4 corners*
0 Add a 4 corners polygon primitive as box body*
4,1,4,$2,$3,$4,$5,$6,$7,$8,$9,$2,$3,0*
0 Add four circle primitives for the rounded corners*
1,1,$1+$1,$2,$3*
1,1,$1+$1,$4,$5*
1,1,$1+$1,$6,$7*
1,1,$1+$1,$8,$9*
0 Add four rect primitives between the rounded corners*
20,1,$1+$1,$2,$3,$4,$5,0*
20,1,$1+$1,$4,$5,$6,$7,0*
20,1,$1+$1,$6,$7,$8,$9,0*
20,1,$1+$1,$8,$9,$2,$3,0*%
G04 Aperture macros list end*
%TA.AperFunction,ComponentPad*%
%ADD10C,1.600000*%
%TD*%
%TA.AperFunction,ComponentPad*%
%ADD11RoundRect,0.250000X-0.550000X-0.550000X0.550000X-0.550000X0.550000X0.550000X-0.550000X0.550000X0*%
%TD*%
%TA.AperFunction,ComponentPad*%
%ADD12R,1.050000X1.500000*%
%TD*%
%TA.AperFunction,ComponentPad*%
%ADD13O,1.050000X1.500000*%
%TD*%
%TA.AperFunction,ComponentPad*%
%ADD14RoundRect,0.250000X-0.725000X0.600000X-0.725000X-0.600000X0.725000X-0.600000X0.725000X0.600000X0*%
%TD*%
%TA.AperFunction,ComponentPad*%
%ADD15O,1.950000X1.700000*%
%TD*%
%TA.AperFunction,ComponentPad*%
%ADD16C,1.000000*%
%TD*%
%TA.AperFunction,ComponentPad*%
%ADD17RoundRect,0.250000X-1.000000X-1.000000X1.000000X-1.000000X1.000000X1.000000X-1.000000X1.000000X0*%
%TD*%
%TA.AperFunction,ComponentPad*%
%ADD18C,2.500000*%
%TD*%
%TA.AperFunction,ViaPad*%
%ADD19C,0.610210*%
%TD*%
%TA.AperFunction,Conductor*%
%ADD20C,0.152552*%
%TD*%
G04 APERTURE END LIST*
D10*
%TO.P,C38,2*%
%TO.N,/Q2*%
X142069776Y-72470000D03*
D11*
%TO.P,C38,1*%
%TO.N,/Q1*%
X140069776Y-72470000D03*
%TD*%
D12*
%TO.P,Q2,1,E_1*%
%TO.N,/CH20*%
X122730000Y-63360000D03*
D13*
%TO.P,Q2,2,B_2*%
%TO.N,GND*%
X124000000Y-63360000D03*
%TO.P,Q2,3,C_3*%
X125270000Y-63360000D03*
%TD*%
D14*
%TO.P,J1,1,Pin_1_1*%
%TO.N,VDD*%
X123500000Y-85000000D03*
D15*
%TO.P,J1,2,Pin_2_2*%
%TO.N,GND*%
X123500000Y-87500000D03*
%TO.P,J1,3,Pin_3_3*%
%TO.N,/SCK*%
X123500000Y-90000000D03*
%TO.P,J1,4,Pin_4_4*%
%TO.N,/SDO*%
X123500000Y-92500000D03*
%TO.P,J1,5,Pin_5_5*%
%TO.N,/SDI*%
X123500000Y-95000000D03*
%TO.P,J1,6,Pin_6_6*%
%TO.N,/NCS*%
X123500000Y-97500000D03*
%TD*%
D10*
%TO.P,C25,1*%
%TO.N,CH2*%
X161133333Y-78289775D03*
%TO.P,C25,2*%
%TO.N,GND*%
X161133333Y-83289775D03*
%TD*%
%TO.P,C24,1*%
%TO.N,CH1*%
X166225000Y-78289775D03*
%TO.P,C24,2*%
%TO.N,GND*%
X166225000Y-83289775D03*
%TD*%
D11*
%TO.P,C34,1*%
%TO.N,GND*%
X129000000Y-82500000D03*
D10*
%TO.P,C34,2*%
X131000000Y-82500000D03*
%TD*%
D11*
%TO.P,C22,1*%
%TO.N,/VREF_BYP*%
X132524888Y-72470000D03*
D10*
%TO.P,C22,2*%
%TO.N,GND*%
X134524888Y-72470000D03*
%TD*%
%TO.P,C42,1*%
%TO.N,CH17*%
X185750000Y-72500000D03*
%TO.P,C42,2*%
%TO.N,GND*%
X185750000Y-67500000D03*
%TD*%
D16*
%TO.P,E3,1,1_1*%
%TO.N,VDD*%
X118000000Y-87450000D03*
%TD*%
D10*
%TO.P,C27,1*%
%TO.N,CH4*%
X156041667Y-78289775D03*
%TO.P,C27,2*%
%TO.N,GND*%
X156041667Y-83289775D03*
%TD*%
D11*
%TO.P,C37,1*%
%TO.N,/LDO*%
X147500000Y-72500000D03*
D10*
%TO.P,C37,2*%
%TO.N,GND*%
X149500000Y-72500000D03*
%TD*%
D17*
%TO.P,J8,1,Pin_1_1*%
%TO.N,CH2*%
X178717500Y-91500000D03*
D18*
%TO.P,J8,2,Pin_2_2*%
%TO.N,CH10*%
X183717500Y-91500000D03*
%TD*%
D10*
%TO.P,C23,1*%
%TO.N,/VREF_BYP*%
X142000000Y-78500000D03*
%TO.P,C23,2*%
%TO.N,GND*%
X142000000Y-83500000D03*
%TD*%
D17*
%TO.P,J9,1,Pin_1_1*%
%TO.N,CH2*%
X166435000Y-91500000D03*
D18*
%TO.P,J9,2,Pin_2_2*%
%TO.N,CH8*%
X171435000Y-91500000D03*
%TD*%
D10*
%TO.P,C39,1*%
%TO.N,CH14*%
X164000000Y-72500000D03*
%TO.P,C39,2*%
%TO.N,GND*%
X164000000Y-67500000D03*
%TD*%
D17*
%TO.P,J7,1,Pin_1_1*%
%TO.N,CH2*%
X191000000Y-91367500D03*
D18*
%TO.P,J7,2,Pin_2_2*%
%TO.N,CH12*%
X196000000Y-91367500D03*
%TD*%
D16*
%TO.P,E2,1,1_1*%
%TO.N,/INTERRUPT*%
X118000000Y-90500000D03*
%TD*%
%TO.P,E4,1,1_1*%
%TO.N,GND*%
X118000000Y-84400000D03*
%TD*%
D17*
%TO.P,J11,1,Pin_1_1*%
%TO.N,CH2*%
X141870000Y-91500000D03*
D18*
%TO.P,J11,2,Pin_2_2*%
%TO.N,CH4*%
X146870000Y-91500000D03*
%TD*%
D10*
%TO.P,C46,1*%
%TO.N,CH13*%
X146500000Y-83500000D03*
%TO.P,C46,2*%
%TO.N,GND*%
X146500000Y-78500000D03*
%TD*%
D17*
%TO.P,J4,1,Pin_1_1*%
%TO.N,GND*%
X134220000Y-54927000D03*
D18*
%TO.P,J4,2,Pin_2_2*%
%TO.N,CH13*%
X140570000Y-54927000D03*
%TO.P,J4,3,Pin_3_3*%
%TO.N,GND*%
X146920000Y-54927000D03*
%TO.P,J4,4,Pin_4_4*%
%TO.N,CH14*%
X153300000Y-55000000D03*
%TO.P,J4,5,Pin_5_5*%
%TO.N,GND*%
X159650000Y-55000000D03*
%TO.P,J4,6,Pin_6_6*%
%TO.N,CH15*%
X166000000Y-55000000D03*
%TO.P,J4,7,Pin_7_7*%
%TO.N,GND*%
X172423000Y-55040000D03*
%TO.P,J4,8,Pin_8_8*%
%TO.N,CH16*%
X178803000Y-55113000D03*
%TO.P,J4,9,Pin_9_9*%
%TO.N,GND*%
X185153000Y-55113000D03*
%TO.P,J4,10,Pin_10_10*%
%TO.N,CH17*%
X191503000Y-55113000D03*
%TD*%
D10*
%TO.P,R2,1*%
%TO.N,VDD*%
X135000000Y-97080000D03*
%TO.P,R2,2*%
%TO.N,/RESETN*%
X135000000Y-86920000D03*
%TD*%
D16*
%TO.P,E1,1,1_1*%
%TO.N,/RESET*%
X118000000Y-93550000D03*
%TD*%
D10*
%TO.P,C35,1*%
%TO.N,CH10*%
X181500000Y-83289775D03*
%TO.P,C35,2*%
%TO.N,GND*%
X181500000Y-78289775D03*
%TD*%
%TO.P,R3,1*%
%TO.N,CH1*%
X141500000Y-66500000D03*
%TO.P,R3,2*%
%TO.N,CH2*%
X131340000Y-66500000D03*
%TD*%
%TO.P,C31,1*%
%TO.N,CH8*%
X171316667Y-83289775D03*
%TO.P,C31,2*%
%TO.N,GND*%
X171316667Y-78289775D03*
%TD*%
%TO.P,C43,1*%
%TO.N,CH18*%
X156750000Y-72500000D03*
%TO.P,C43,2*%
%TO.N,GND*%
X156750000Y-67500000D03*
%TD*%
%TO.P,C45,1*%
%TO.N,CH12*%
X121500000Y-54000000D03*
%TO.P,C45,2*%
%TO.N,GND*%
X126500000Y-54000000D03*
%TD*%
%TO.P,C41,1*%
%TO.N,CH16*%
X178500000Y-72500000D03*
%TO.P,C41,2*%
%TO.N,GND*%
X178500000Y-67500000D03*
%TD*%
D11*
%TO.P,C36,1*%
%TO.N,/Q3*%
X135000000Y-78500000D03*
D10*
%TO.P,C36,2*%
%TO.N,GND*%
X137000000Y-78500000D03*
%TD*%
%TO.P,C26,1*%
%TO.N,CH2*%
X176408333Y-83289775D03*
%TO.P,C26,2*%
%TO.N,GND*%
X176408333Y-78289775D03*
%TD*%
%TO.P,C29,1*%
%TO.N,CH6*%
X150950000Y-78289775D03*
%TO.P,C29,2*%
%TO.N,GND*%
X150950000Y-83289775D03*
%TD*%
%TO.P,R1,1*%
%TO.N,/VREFOUT*%
X130950000Y-97080000D03*
%TO.P,R1,2*%
%TO.N,GND*%
X130950000Y-86920000D03*
%TD*%
D17*
%TO.P,J10,1,Pin_1_1*%
%TO.N,CH2*%
X154152500Y-91500000D03*
D18*
%TO.P,J10,2,Pin_2_2*%
%TO.N,CH6*%
X159152500Y-91500000D03*
%TD*%
D10*
%TO.P,C32,1*%
%TO.N,/VREFOUT*%
X121500000Y-58500000D03*
%TO.P,C32,2*%
%TO.N,GND*%
X126500000Y-58500000D03*
%TD*%
%TO.P,C40,1*%
%TO.N,CH15*%
X171250000Y-67500000D03*
%TO.P,C40,2*%
%TO.N,GND*%
X171250000Y-72500000D03*
%TD*%
D19*
%TO.N,VDD*%
X122463362Y-76273144D03*
%TO.N,/Q3*%
X117117103Y-75344113D03*
%TO.N,/SDI*%
X116795028Y-73213323D03*
%TO.N,/SDO*%
X117102490Y-71781872D03*
%TO.N,/VREFOUT*%
X127884969Y-76209720D03*
%TO.N,VDD*%
X119735038Y-74363769D03*
X123878013Y-78882302D03*
%TO.N,GND*%
X167563437Y-81803338D03*
%TO.N,CH12*%
X127078334Y-67432983D03*
%TO.N,GND*%
X170219263Y-75588561D03*
%TO.N,CH2*%
X135514674Y-70274042D03*
%TO.N,/Q2*%
X144892472Y-80684473D03*
%TO.N,CH16*%
X178227199Y-60640123D03*
%TO.N,CH13*%
X131050639Y-62974258D03*
%TO.N,/Q1*%
X142462680Y-80626226D03*
%TO.N,CH6*%
X154828105Y-80823694D03*
%TO.N,CH1*%
X128333094Y-73636313D03*
%TO.N,GND*%
X124994659Y-79475722D03*
%TO.N,/VREFOUT*%
X124375598Y-76439742D03*
%TO.N,CH13*%
X129714870Y-66274819D03*
%TO.N,GND*%
X115506340Y-50919891D03*
X199580109Y-50919891D03*
X199580109Y-63482597D03*
X199580109Y-70223732D03*
X199580109Y-76964867D03*
X199580109Y-83706002D03*
X199580109Y-90447138D03*
X199580109Y-97188273D03*
X189489675Y-100580109D03*
X182748539Y-100580109D03*
X176007404Y-100580109D03*
X169266269Y-100580109D03*
X162525134Y-100580109D03*
X155783998Y-100580109D03*
X149042863Y-100580109D03*
X142301728Y-100580109D03*
X135560592Y-100580109D03*
X128819457Y-100580109D03*
X122078322Y-100580109D03*
X114919891Y-95819979D03*
X125051674Y-94235405D03*
X132914914Y-90025867D03*
X139163602Y-85411429D03*
X145904738Y-85411429D03*
X143750383Y-93007371D03*
X152139162Y-92565241D03*
X161140922Y-91136881D03*
X167349114Y-89483424D03*
X172920622Y-92866247D03*
X175151706Y-84226996D03*
X179475599Y-93516576D03*
X188280681Y-91493224D03*
X182860814Y-87754038D03*
X185556702Y-82115500D03*
X177544223Y-77210192D03*
X178582287Y-70146011D03*
X186592852Y-65889282D03*
X186854249Y-59256421D03*
X186216983Y-73996309D03*
X192345852Y-63071016D03*
X192859459Y-56608410D03*
X182390559Y-52900983D03*
X175673189Y-52776261D03*
X166787437Y-53139069D03*
X157049812Y-54710912D03*
X148651175Y-53891822D03*
X139566563Y-53175880D03*
X129784089Y-53157148D03*
X123222986Y-54901959D03*
X118907148Y-64910452D03*
X127634572Y-86526296D03*
X172612321Y-58342071D03*
X126183091Y-61119367D03*
X180120337Y-60027775D03*
X169163817Y-69221844D03*
X158061565Y-65369592D03*
X149701875Y-64054117D03*
X131893491Y-64455992D03*
X138634626Y-64455992D03*
X157831216Y-84279181D03*
X165527650Y-81721755D03*
X160762593Y-76767283D03*
X132643335Y-81479890D03*
X129083470Y-75965861D03*
X137842852Y-76650106D03*
X151288218Y-79819690D03*
X144049620Y-77791469D03*
X140580848Y-70935540D03*
X165134393Y-61232754D03*
X167921809Y-75708990D03*
X155227940Y-72127365D03*
X117110135Y-86419616D03*
X117462942Y-79670722D03*
X192838974Y-77480422D03*
%TD*%
%TO.N,CH1*%
D20*
X128333094Y-73636313D02*
X128333094Y-66818254D01*
X128333094Y-66818254D02*
X129709507Y-65441841D01*
X129709507Y-65441841D02*
X139197538Y-65441841D01*
X139197538Y-65441841D02*
X140255697Y-66500000D01*
X140255697Y-66500000D02*
X140695000Y-66500000D01*
X140695000Y-66500000D02*
X141500000Y-66500000D01*
%TO.N,VDD*%
X123878013Y-78882302D02*
X123500000Y-79260315D01*
X123500000Y-79260315D02*
X123500000Y-83708697D01*
X123500000Y-83708697D02*
X123500000Y-84148000D01*
X123500000Y-84148000D02*
X123500000Y-85000000D01*
%TO.N,/VREFOUT*%
X127884969Y-76209720D02*
X121500000Y-69824751D01*
X121500000Y-69824751D02*
X121500000Y-59744303D01*
X121500000Y-59744303D02*
X121500000Y-59305000D01*
X121500000Y-59305000D02*
X121500000Y-58500000D01*
%TO.N,CH12*%
X127078334Y-67432983D02*
X127078334Y-60822637D01*
X127078334Y-60822637D02*
X121500000Y-55244303D01*
X121500000Y-55244303D02*
X121500000Y-54805000D01*
X121500000Y-54805000D02*
X121500000Y-54000000D01*
%TO.N,CH13*%
X129714870Y-66274819D02*
X129714870Y-66401113D01*
X129714870Y-66401113D02*
X131457049Y-68143293D01*
X131457049Y-68143293D02*
X131624015Y-68143293D01*
X131624015Y-68143293D02*
X138777892Y-75297171D01*
X138777892Y-75297171D02*
X138777892Y-77702342D01*
X138777892Y-77702342D02*
X143695416Y-82619866D01*
X143695416Y-82619866D02*
X145619866Y-82619866D01*
X145619866Y-82619866D02*
X146215250Y-83215250D01*
X146215250Y-83215250D02*
X146500000Y-83500000D01*
%TO.N,CH16*%
X178227199Y-60640123D02*
X178803000Y-60064322D01*
X178803000Y-60064322D02*
X178803000Y-56810303D01*
X178803000Y-56810303D02*
X178803000Y-56371000D01*
X178803000Y-56371000D02*
X178803000Y-55113000D01*
%TO.N,/SDI*%
X116795028Y-73213323D02*
X116267283Y-73741068D01*
X116267283Y-73741068D02*
X116267283Y-87260479D01*
X116267283Y-87260479D02*
X122496366Y-93489562D01*
X122496366Y-93489562D02*
X122496366Y-93996366D01*
X122496366Y-93996366D02*
X123153500Y-94653500D01*
X123153500Y-94653500D02*
X123500000Y-95000000D01*
%TO.N,CH13*%
X140570000Y-54927000D02*
X140125250Y-55371750D01*
X140125250Y-55371750D02*
X139369866Y-56127134D01*
X139369866Y-56127134D02*
X132522742Y-62974258D01*
X132522742Y-62974258D02*
X131050639Y-62974258D01*
%TO.N,CH4*%
X146870000Y-91500000D02*
X147314750Y-91055250D01*
X147314750Y-91055250D02*
X148070134Y-90299866D01*
X148070134Y-90299866D02*
X152465275Y-85904725D01*
X152465275Y-85904725D02*
X152465275Y-81865725D01*
X152465275Y-81865725D02*
X155161366Y-79169634D01*
X155161366Y-79169634D02*
X155756750Y-78574250D01*
X155756750Y-78574250D02*
X156041500Y-78289500D01*
%TO.N,CH6*%
X159152500Y-91500000D02*
X158707500Y-91055250D01*
X158707500Y-91055250D02*
X157951778Y-90299953D01*
X157951778Y-90299953D02*
X154828105Y-87176279D01*
X154828105Y-87176279D02*
X154828105Y-80823694D01*
%TO.N,CH2*%
X166435000Y-91500000D02*
X166435000Y-90248000D01*
X166435000Y-90248000D02*
X166435000Y-89808697D01*
X166435000Y-89808697D02*
X166435000Y-85024798D01*
X166435000Y-85024798D02*
X169048271Y-82411526D01*
X169048271Y-82411526D02*
X166712313Y-80075568D01*
X166712313Y-80075568D02*
X162919568Y-80075568D01*
X162919568Y-80075568D02*
X162013634Y-79169634D01*
X162013634Y-79169634D02*
X161418250Y-78574250D01*
X161418250Y-78574250D02*
X161133500Y-78289500D01*
X131340000Y-66500000D02*
X131624750Y-66784750D01*
X131624750Y-66784750D02*
X132220134Y-67380134D01*
X132220134Y-67380134D02*
X135114042Y-70274042D01*
X135114042Y-70274042D02*
X135514674Y-70274042D01*
%TO.N,/Q2*%
X142044500Y-72500000D02*
X142044500Y-73305000D01*
X142044500Y-73305000D02*
X142044500Y-73744303D01*
X142044500Y-73744303D02*
X144892472Y-76592276D01*
X144892472Y-76592276D02*
X144892472Y-80684473D01*
%TO.N,VDD*%
X122463362Y-76273144D02*
X120553987Y-74363769D01*
X120553987Y-74363769D02*
X119735038Y-74363769D01*
%TO.N,/Q3*%
X135000000Y-78500000D02*
X134198000Y-78500000D01*
X134198000Y-78500000D02*
X133758697Y-78500000D01*
X133758697Y-78500000D02*
X128780436Y-78500000D01*
X128780436Y-78500000D02*
X126161051Y-75880615D01*
X126161051Y-75880615D02*
X123791954Y-75880615D01*
X123791954Y-75880615D02*
X122806641Y-76865929D01*
X122806641Y-76865929D02*
X118638919Y-76865929D01*
X118638919Y-76865929D02*
X117117103Y-75344113D01*
%TO.N,CH1*%
X141500000Y-66500000D02*
X142305000Y-66500000D01*
X142305000Y-66500000D02*
X142744303Y-66500000D01*
X142744303Y-66500000D02*
X148408602Y-66500000D01*
X148408602Y-66500000D02*
X157244904Y-75336301D01*
X157244904Y-75336301D02*
X163271801Y-75336301D01*
X163271801Y-75336301D02*
X165344866Y-77409366D01*
X165344866Y-77409366D02*
X165940250Y-78004750D01*
X165940250Y-78004750D02*
X166225000Y-78289500D01*
%TO.N,CH15*%
X166000000Y-55000000D02*
X166000000Y-56258000D01*
X166000000Y-56258000D02*
X166000000Y-56697303D01*
X166000000Y-56697303D02*
X166000000Y-61005697D01*
X166000000Y-61005697D02*
X171250000Y-66255697D01*
X171250000Y-66255697D02*
X171250000Y-66695000D01*
X171250000Y-66695000D02*
X171250000Y-67500000D01*
%TO.N,CH14*%
X153300000Y-55000000D02*
X153300000Y-56258000D01*
X153300000Y-56258000D02*
X153300000Y-56697303D01*
X153300000Y-56697303D02*
X153300000Y-61800000D01*
X153300000Y-61800000D02*
X163119866Y-71619866D01*
X163119866Y-71619866D02*
X163715250Y-72215250D01*
X163715250Y-72215250D02*
X164000000Y-72500000D01*
%TO.N,CH2*%
X191000000Y-91367500D02*
X189748000Y-91367500D01*
X189748000Y-91367500D02*
X189346930Y-91367500D01*
X189346930Y-91367500D02*
X187946373Y-89966943D01*
X187946373Y-89966943D02*
X181941360Y-89966943D01*
X181941360Y-89966943D02*
X180408303Y-91500000D01*
X180408303Y-91500000D02*
X179969000Y-91500000D01*
X179969000Y-91500000D02*
X178717500Y-91500000D01*
%TO.N,/SDO*%
X117102490Y-71781872D02*
X117367562Y-72046944D01*
X117367562Y-72046944D02*
X117367562Y-74330231D01*
X117367562Y-74330231D02*
X116577525Y-75120268D01*
X116577525Y-75120268D02*
X116577525Y-84527823D01*
X116577525Y-84527823D02*
X119434416Y-87384714D01*
X119434416Y-87384714D02*
X119434416Y-88434416D01*
X119434416Y-88434416D02*
X122496366Y-91496366D01*
X122496366Y-91496366D02*
X123153500Y-92153500D01*
X123153500Y-92153500D02*
X123500000Y-92500000D01*
%TO.N,CH2*%
X161133500Y-78289500D02*
X160848750Y-78004750D01*
X160848750Y-78004750D02*
X160334471Y-77490471D01*
X160334471Y-77490471D02*
X158233920Y-77490471D01*
X158233920Y-77490471D02*
X150755860Y-70012412D01*
X150755860Y-70012412D02*
X136096715Y-70012412D01*
X136096715Y-70012412D02*
X132584303Y-66500000D01*
X132584303Y-66500000D02*
X132145000Y-66500000D01*
X132145000Y-66500000D02*
X131340000Y-66500000D01*
X169048271Y-82411526D02*
X169238986Y-82220812D01*
X169238986Y-82220812D02*
X174095008Y-82220812D01*
X174095008Y-82220812D02*
X175163697Y-83289500D01*
X175163697Y-83289500D02*
X175603000Y-83289500D01*
X175603000Y-83289500D02*
X176408500Y-83289500D01*
%TO.N,/VREFOUT*%
X130950000Y-97080000D02*
X130950000Y-96275000D01*
X130950000Y-96275000D02*
X130950000Y-95835697D01*
X130950000Y-95835697D02*
X132072062Y-94713635D01*
X132072062Y-94713635D02*
X132072062Y-82100589D01*
X132072062Y-82100589D02*
X130557142Y-80585669D01*
X130557142Y-80585669D02*
X128521525Y-80585669D01*
X128521525Y-80585669D02*
X124375598Y-76439742D01*
%TO.N,/Q1*%
X142462680Y-80626226D02*
X140044500Y-78208046D01*
X140044500Y-78208046D02*
X140044500Y-73741303D01*
X140044500Y-73741303D02*
X140044500Y-73302000D01*
X140044500Y-73302000D02*
X140044500Y-72500000D01*
%TO.N,CH12*%
X196000000Y-91367500D02*
X195555250Y-90922500D01*
X195555250Y-90922500D02*
X194799953Y-90166778D01*
X194799953Y-90166778D02*
X184400823Y-79767649D01*
X184400823Y-79767649D02*
X175091662Y-79767649D01*
X175091662Y-79767649D02*
X171875855Y-76551842D01*
X171875855Y-76551842D02*
X165017431Y-76551842D01*
X165017431Y-76551842D02*
X159128008Y-70662419D01*
X159128008Y-70662419D02*
X155118204Y-70662419D01*
X155118204Y-70662419D02*
X148068925Y-63613140D01*
X148068925Y-63613140D02*
X130114851Y-63613140D01*
X130114851Y-63613140D02*
X122380134Y-55878423D01*
X122380134Y-55878423D02*
X122380134Y-54880134D01*
X122380134Y-54880134D02*
X121784750Y-54284750D01*
X121784750Y-54284750D02*
X121500000Y-54000000D01*
%TD*%
%TA.AperFunction,Conductor*%
%TO.N,GND*%
G36*
X131536147Y-48388727D02*
G01*
X131539574Y-48397000D01*
X131539574Y-50298452D01*
X132310174Y-50298452D01*
X132310174Y-48397000D01*
X132313601Y-48388727D01*
X132321874Y-48385300D01*
X135240835Y-48385300D01*
X135249108Y-48388727D01*
X135252535Y-48397000D01*
X135252535Y-49915975D01*
X139596744Y-49915975D01*
X139596744Y-48397000D01*
X139600171Y-48388727D01*
X139608444Y-48385300D01*
X143337874Y-48385300D01*
X143346147Y-48388727D01*
X143349574Y-48397000D01*
X143349574Y-50168452D01*
X144120174Y-50168452D01*
X144120174Y-48397000D01*
X144123601Y-48388727D01*
X144131874Y-48385300D01*
X147260835Y-48385300D01*
X147269108Y-48388727D01*
X147272535Y-48397000D01*
X147272535Y-49875975D01*
X151663507Y-49875975D01*
X151663507Y-48397000D01*
X151666934Y-48388727D01*
X151675207Y-48385300D01*
X156067874Y-48385300D01*
X156076147Y-48388727D01*
X156079574Y-48397000D01*
X156079574Y-50208452D01*
X156850174Y-50208452D01*
X156850174Y-48397000D01*
X156853601Y-48388727D01*
X156861874Y-48385300D01*
X160780835Y-48385300D01*
X160789108Y-48388727D01*
X160792535Y-48397000D01*
X160792535Y-49825975D01*
X165136744Y-49825975D01*
X165136744Y-48397000D01*
X165140171Y-48388727D01*
X165148444Y-48385300D01*
X168837874Y-48385300D01*
X168846147Y-48388727D01*
X168849574Y-48397000D01*
X168849574Y-50118452D01*
X169620174Y-50118452D01*
X169620174Y-48397000D01*
X169623601Y-48388727D01*
X169631874Y-48385300D01*
X173160835Y-48385300D01*
X173169108Y-48388727D01*
X173172535Y-48397000D01*
X173172535Y-49785975D01*
X177516744Y-49785975D01*
X177516744Y-48397000D01*
X177520171Y-48388727D01*
X177528444Y-48385300D01*
X181477874Y-48385300D01*
X181486147Y-48388727D01*
X181489574Y-48397000D01*
X181489574Y-50078452D01*
X182260174Y-50078452D01*
X182260174Y-48397000D01*
X182263601Y-48388727D01*
X182271874Y-48385300D01*
X185970835Y-48385300D01*
X185979108Y-48388727D01*
X185982535Y-48397000D01*
X185982535Y-49655975D01*
X190373683Y-49655975D01*
X190373683Y-48397000D01*
X190377110Y-48388727D01*
X190385383Y-48385300D01*
X200176590Y-48385300D01*
X200184863Y-48388727D01*
X200188290Y-48397000D01*
X200188290Y-101176590D01*
X200184863Y-101184863D01*
X200176590Y-101188290D01*
X114323410Y-101188290D01*
X114315137Y-101184863D01*
X114311710Y-101176590D01*
X114311710Y-98901394D01*
X115247100Y-98901394D01*
X115247100Y-99098605D01*
X115277949Y-99293380D01*
X115277953Y-99293396D01*
X115338888Y-99480938D01*
X115338890Y-99480942D01*
X115338892Y-99480947D01*
X115385068Y-99571572D01*
X115428427Y-99656669D01*
X115544334Y-99816199D01*
X115544338Y-99816203D01*
X115544342Y-99816209D01*
X115683791Y-99955658D01*
X115683796Y-99955662D01*
X115683800Y-99955665D01*
X115843330Y-100071572D01*
X115843335Y-100071574D01*
X115843337Y-100071576D01*
X116019053Y-100161108D01*
X116019058Y-100161109D01*
X116019061Y-100161111D01*
X116176783Y-100212357D01*
X116206612Y-100222049D01*
X116285891Y-100234605D01*
X116401394Y-100252900D01*
X116401395Y-100252900D01*
X116598605Y-100252900D01*
X116793388Y-100222049D01*
X116980947Y-100161108D01*
X117156663Y-100071576D01*
X117188140Y-100048707D01*
X117316199Y-99955665D01*
X117316209Y-99955658D01*
X117455658Y-99816209D01*
X117524072Y-99722046D01*
X117571572Y-99656669D01*
X117571572Y-99656667D01*
X117571576Y-99656663D01*
X117661108Y-99480947D01*
X117722049Y-99293388D01*
X117752900Y-99098605D01*
X117752900Y-98901395D01*
X117722049Y-98706612D01*
X117661108Y-98519053D01*
X117571576Y-98343337D01*
X117571574Y-98343335D01*
X117571572Y-98343330D01*
X117455665Y-98183800D01*
X117455662Y-98183796D01*
X117455658Y-98183791D01*
X117316209Y-98044342D01*
X117316203Y-98044338D01*
X117316199Y-98044334D01*
X117156669Y-97928427D01*
X117140060Y-97919964D01*
X116980947Y-97838892D01*
X116980944Y-97838891D01*
X116980942Y-97838890D01*
X116980938Y-97838888D01*
X116793396Y-97777953D01*
X116793380Y-97777949D01*
X116598606Y-97747100D01*
X116598605Y-97747100D01*
X116401395Y-97747100D01*
X116401394Y-97747100D01*
X116206619Y-97777949D01*
X116206603Y-97777953D01*
X116019061Y-97838888D01*
X116019057Y-97838890D01*
X115843330Y-97928427D01*
X115683800Y-98044334D01*
X115683784Y-98044348D01*
X115544348Y-98183784D01*
X115544334Y-98183800D01*
X115428427Y-98343330D01*
X115338890Y-98519057D01*
X115338888Y-98519061D01*
X115277953Y-98706603D01*
X115277949Y-98706619D01*
X115247100Y-98901394D01*
X114311710Y-98901394D01*
X114311710Y-97401223D01*
X122372100Y-97401223D01*
X122372100Y-97598777D01*
X122389012Y-97683800D01*
X122410641Y-97792535D01*
X122486240Y-97975049D01*
X122486244Y-97975057D01*
X122595995Y-98139311D01*
X122595998Y-98139315D01*
X122735684Y-98279001D01*
X122735688Y-98279004D01*
X122899942Y-98388755D01*
X122899946Y-98388757D01*
X122899949Y-98388759D01*
X123082465Y-98464359D01*
X123276223Y-98502900D01*
X123276224Y-98502900D01*
X123723776Y-98502900D01*
X123723777Y-98502900D01*
X123917535Y-98464359D01*
X124069547Y-98401394D01*
X196247100Y-98401394D01*
X196247100Y-98598605D01*
X196277949Y-98793380D01*
X196277953Y-98793396D01*
X196338888Y-98980938D01*
X196338890Y-98980942D01*
X196338892Y-98980947D01*
X196398842Y-99098605D01*
X196428427Y-99156669D01*
X196544334Y-99316199D01*
X196544338Y-99316203D01*
X196544342Y-99316209D01*
X196683791Y-99455658D01*
X196683796Y-99455662D01*
X196683800Y-99455665D01*
X196843330Y-99571572D01*
X196843335Y-99571574D01*
X196843337Y-99571576D01*
X197019053Y-99661108D01*
X197019058Y-99661109D01*
X197019061Y-99661111D01*
X197176783Y-99712357D01*
X197206612Y-99722049D01*
X197285891Y-99734605D01*
X197401394Y-99752900D01*
X197401395Y-99752900D01*
X197598605Y-99752900D01*
X197793388Y-99722049D01*
X197980947Y-99661108D01*
X198156663Y-99571576D01*
X198316209Y-99455658D01*
X198455658Y-99316209D01*
X198571576Y-99156663D01*
X198661108Y-98980947D01*
X198722049Y-98793388D01*
X198752900Y-98598605D01*
X198752900Y-98401395D01*
X198722049Y-98206612D01*
X198669325Y-98044342D01*
X198661111Y-98019061D01*
X198661109Y-98019057D01*
X198661108Y-98019053D01*
X198571576Y-97843337D01*
X198571574Y-97843335D01*
X198571572Y-97843330D01*
X198455665Y-97683800D01*
X198455662Y-97683796D01*
X198455658Y-97683791D01*
X198316209Y-97544342D01*
X198316203Y-97544338D01*
X198316199Y-97544334D01*
X198156669Y-97428427D01*
X198103278Y-97401223D01*
X197980947Y-97338892D01*
X197980944Y-97338891D01*
X197980942Y-97338890D01*
X197980938Y-97338888D01*
X197793396Y-97277953D01*
X197793380Y-97277949D01*
X197598606Y-97247100D01*
X197598605Y-97247100D01*
X197401395Y-97247100D01*
X197401394Y-97247100D01*
X197206619Y-97277949D01*
X197206603Y-97277953D01*
X197019061Y-97338888D01*
X197019057Y-97338890D01*
X196843330Y-97428427D01*
X196683800Y-97544334D01*
X196683784Y-97544348D01*
X196544348Y-97683784D01*
X196544334Y-97683800D01*
X196428427Y-97843330D01*
X196338890Y-98019057D01*
X196338888Y-98019061D01*
X196277953Y-98206603D01*
X196277949Y-98206619D01*
X196247100Y-98401394D01*
X124069547Y-98401394D01*
X124100051Y-98388759D01*
X124264312Y-98279004D01*
X124404004Y-98139312D01*
X124513759Y-97975051D01*
X124589359Y-97792535D01*
X124627900Y-97598777D01*
X124627900Y-97401223D01*
X124589359Y-97207465D01*
X124513759Y-97024949D01*
X124513757Y-97024946D01*
X124513755Y-97024942D01*
X124404004Y-96860688D01*
X124404001Y-96860684D01*
X124264315Y-96720998D01*
X124264311Y-96720995D01*
X124100057Y-96611244D01*
X124100049Y-96611240D01*
X123917535Y-96535641D01*
X123723777Y-96497100D01*
X123276223Y-96497100D01*
X123179344Y-96516370D01*
X123082464Y-96535641D01*
X122899950Y-96611240D01*
X122899942Y-96611244D01*
X122735688Y-96720995D01*
X122735684Y-96720998D01*
X122595998Y-96860684D01*
X122595995Y-96860688D01*
X122486244Y-97024942D01*
X122486240Y-97024950D01*
X122410641Y-97207464D01*
X122410641Y-97207465D01*
X122372100Y-97401223D01*
X114311710Y-97401223D01*
X114311710Y-93485695D01*
X117347100Y-93485695D01*
X117347100Y-93614304D01*
X117372191Y-93740444D01*
X117421407Y-93859262D01*
X117421411Y-93859270D01*
X117492859Y-93966198D01*
X117492862Y-93966202D01*
X117583797Y-94057137D01*
X117583801Y-94057140D01*
X117690729Y-94128588D01*
X117690733Y-94128590D01*
X117690736Y-94128592D01*
X117809556Y-94177809D01*
X117935695Y-94202900D01*
X117935696Y-94202900D01*
X118064304Y-94202900D01*
X118064305Y-94202900D01*
X118190444Y-94177809D01*
X118309264Y-94128592D01*
X118416199Y-94057140D01*
X118507140Y-93966199D01*
X118578592Y-93859264D01*
X118627809Y-93740444D01*
X118652900Y-93614305D01*
X118652900Y-93485695D01*
X118627809Y-93359556D01*
X118578592Y-93240736D01*
X118578590Y-93240733D01*
X118578588Y-93240729D01*
X118507140Y-93133801D01*
X118507137Y-93133797D01*
X118416202Y-93042862D01*
X118416198Y-93042859D01*
X118309270Y-92971411D01*
X118309262Y-92971407D01*
X118190444Y-92922191D01*
X118064305Y-92897100D01*
X117935695Y-92897100D01*
X117906537Y-92902900D01*
X117809555Y-92922191D01*
X117690737Y-92971407D01*
X117690729Y-92971411D01*
X117583801Y-93042859D01*
X117583797Y-93042862D01*
X117492862Y-93133797D01*
X117492859Y-93133801D01*
X117421411Y-93240729D01*
X117421407Y-93240737D01*
X117372191Y-93359555D01*
X117347100Y-93485695D01*
X114311710Y-93485695D01*
X114311710Y-90435695D01*
X117347100Y-90435695D01*
X117347100Y-90564305D01*
X117351430Y-90586072D01*
X117372191Y-90690444D01*
X117421407Y-90809262D01*
X117421411Y-90809270D01*
X117492859Y-90916198D01*
X117492862Y-90916202D01*
X117583797Y-91007137D01*
X117583801Y-91007140D01*
X117690729Y-91078588D01*
X117690733Y-91078590D01*
X117690736Y-91078592D01*
X117809556Y-91127809D01*
X117935695Y-91152900D01*
X117935696Y-91152900D01*
X118064304Y-91152900D01*
X118064305Y-91152900D01*
X118190444Y-91127809D01*
X118309264Y-91078592D01*
X118416199Y-91007140D01*
X118507140Y-90916199D01*
X118578592Y-90809264D01*
X118627809Y-90690444D01*
X118652900Y-90564305D01*
X118652900Y-90435695D01*
X118627809Y-90309556D01*
X118578592Y-90190736D01*
X118578590Y-90190733D01*
X118578588Y-90190729D01*
X118507140Y-90083801D01*
X118507137Y-90083797D01*
X118416202Y-89992862D01*
X118416198Y-89992859D01*
X118309270Y-89921411D01*
X118309262Y-89921407D01*
X118190444Y-89872191D01*
X118064305Y-89847100D01*
X117935695Y-89847100D01*
X117872625Y-89859645D01*
X117809555Y-89872191D01*
X117690737Y-89921407D01*
X117690729Y-89921411D01*
X117583801Y-89992859D01*
X117583797Y-89992862D01*
X117492862Y-90083797D01*
X117492859Y-90083801D01*
X117421411Y-90190729D01*
X117421407Y-90190737D01*
X117372191Y-90309555D01*
X117348418Y-90429067D01*
X117347100Y-90435695D01*
X114311710Y-90435695D01*
X114311710Y-73695479D01*
X116038107Y-73695479D01*
X116038107Y-87306067D01*
X116072996Y-87390295D01*
X116072997Y-87390297D01*
X122263763Y-93581062D01*
X122267190Y-93589335D01*
X122267190Y-94041954D01*
X122302079Y-94126182D01*
X122302081Y-94126185D01*
X122565408Y-94389512D01*
X122568835Y-94397785D01*
X122566863Y-94404285D01*
X122486244Y-94524942D01*
X122486240Y-94524950D01*
X122410641Y-94707464D01*
X122372100Y-94901223D01*
X122372100Y-95098776D01*
X122410641Y-95292535D01*
X122486240Y-95475049D01*
X122486244Y-95475057D01*
X122595995Y-95639311D01*
X122595998Y-95639315D01*
X122735684Y-95779001D01*
X122735688Y-95779004D01*
X122899942Y-95888755D01*
X122899946Y-95888757D01*
X122899949Y-95888759D01*
X123082465Y-95964359D01*
X123276223Y-96002900D01*
X123276224Y-96002900D01*
X123723776Y-96002900D01*
X123723777Y-96002900D01*
X123917535Y-95964359D01*
X124100051Y-95888759D01*
X124264312Y-95779004D01*
X124404004Y-95639312D01*
X124513759Y-95475051D01*
X124589359Y-95292535D01*
X124627900Y-95098777D01*
X124627900Y-94901223D01*
X124589359Y-94707465D01*
X124513759Y-94524949D01*
X124513757Y-94524946D01*
X124513755Y-94524942D01*
X124404004Y-94360688D01*
X124404001Y-94360684D01*
X124264315Y-94220998D01*
X124264311Y-94220995D01*
X124100057Y-94111244D01*
X124100049Y-94111240D01*
X123917535Y-94035641D01*
X123723777Y-93997100D01*
X123276223Y-93997100D01*
X123179344Y-94016370D01*
X123082464Y-94035641D01*
X122932199Y-94097881D01*
X122923244Y-94097881D01*
X122919449Y-94095345D01*
X122728969Y-93904865D01*
X122725542Y-93896592D01*
X122725542Y-93443977D01*
X122725541Y-93443973D01*
X122690652Y-93359745D01*
X122690651Y-93359743D01*
X122625520Y-93294612D01*
X122625513Y-93294606D01*
X116724301Y-87393393D01*
X116716603Y-87385695D01*
X117347100Y-87385695D01*
X117347100Y-87514305D01*
X117356694Y-87562535D01*
X117372191Y-87640444D01*
X117421407Y-87759262D01*
X117421411Y-87759270D01*
X117492859Y-87866198D01*
X117492862Y-87866202D01*
X117583797Y-87957137D01*
X117583801Y-87957140D01*
X117690729Y-88028588D01*
X117690733Y-88028590D01*
X117690736Y-88028592D01*
X117809556Y-88077809D01*
X117935695Y-88102900D01*
X117935696Y-88102900D01*
X118064304Y-88102900D01*
X118064305Y-88102900D01*
X118190444Y-88077809D01*
X118309264Y-88028592D01*
X118416199Y-87957140D01*
X118507140Y-87866199D01*
X118578592Y-87759264D01*
X118627809Y-87640444D01*
X118652900Y-87514305D01*
X118652900Y-87385695D01*
X118627809Y-87259556D01*
X118578592Y-87140736D01*
X118578590Y-87140733D01*
X118578588Y-87140729D01*
X118507140Y-87033801D01*
X118507137Y-87033797D01*
X118416202Y-86942862D01*
X118416198Y-86942859D01*
X118309270Y-86871411D01*
X118309262Y-86871407D01*
X118190444Y-86822191D01*
X118179585Y-86820031D01*
X118064305Y-86797100D01*
X117935695Y-86797100D01*
X117872625Y-86809645D01*
X117809555Y-86822191D01*
X117690737Y-86871407D01*
X117690729Y-86871411D01*
X117583801Y-86942859D01*
X117583797Y-86942862D01*
X117492862Y-87033797D01*
X117492859Y-87033801D01*
X117421411Y-87140729D01*
X117421407Y-87140737D01*
X117372191Y-87259555D01*
X117361962Y-87310980D01*
X117347100Y-87385695D01*
X116716603Y-87385695D01*
X116499886Y-87168978D01*
X116496459Y-87160705D01*
X116496459Y-84799107D01*
X116499886Y-84790834D01*
X116508159Y-84787407D01*
X116516432Y-84790834D01*
X119201813Y-87476215D01*
X119205240Y-87484488D01*
X119205240Y-88480004D01*
X119240129Y-88564232D01*
X119240131Y-88564235D01*
X122565408Y-91889512D01*
X122568835Y-91897785D01*
X122566863Y-91904285D01*
X122486244Y-92024942D01*
X122486240Y-92024950D01*
X122410641Y-92207464D01*
X122372501Y-92399208D01*
X122372100Y-92401223D01*
X122372100Y-92598777D01*
X122392208Y-92699864D01*
X122410641Y-92792535D01*
X122486240Y-92975049D01*
X122486244Y-92975057D01*
X122595995Y-93139311D01*
X122595998Y-93139315D01*
X122735684Y-93279001D01*
X122735688Y-93279004D01*
X122899942Y-93388755D01*
X122899946Y-93388757D01*
X122899949Y-93388759D01*
X123082465Y-93464359D01*
X123276223Y-93502900D01*
X123276224Y-93502900D01*
X123723776Y-93502900D01*
X123723777Y-93502900D01*
X123917535Y-93464359D01*
X124100051Y-93388759D01*
X124264312Y-93279004D01*
X124404004Y-93139312D01*
X124513759Y-92975051D01*
X124589359Y-92792535D01*
X124627900Y-92598777D01*
X124627900Y-92401223D01*
X124589359Y-92207465D01*
X124513759Y-92024949D01*
X124513757Y-92024946D01*
X124513755Y-92024942D01*
X124404004Y-91860688D01*
X124404001Y-91860684D01*
X124264315Y-91720998D01*
X124264311Y-91720995D01*
X124100057Y-91611244D01*
X124100049Y-91611240D01*
X123917535Y-91535641D01*
X123723777Y-91497100D01*
X123276223Y-91497100D01*
X123179344Y-91516370D01*
X123082464Y-91535641D01*
X122932199Y-91597881D01*
X122923244Y-91597881D01*
X122919449Y-91595345D01*
X121225327Y-89901223D01*
X122372100Y-89901223D01*
X122372100Y-90098777D01*
X122395864Y-90218244D01*
X122410641Y-90292535D01*
X122486240Y-90475049D01*
X122486244Y-90475057D01*
X122595995Y-90639311D01*
X122595998Y-90639315D01*
X122735684Y-90779001D01*
X122735688Y-90779004D01*
X122899942Y-90888755D01*
X122899946Y-90888757D01*
X122899949Y-90888759D01*
X123082465Y-90964359D01*
X123276223Y-91002900D01*
X123276224Y-91002900D01*
X123723776Y-91002900D01*
X123723777Y-91002900D01*
X123917535Y-90964359D01*
X124100051Y-90888759D01*
X124264312Y-90779004D01*
X124404004Y-90639312D01*
X124513759Y-90475051D01*
X124589359Y-90292535D01*
X124627900Y-90098777D01*
X124627900Y-89901223D01*
X124589359Y-89707465D01*
X124513759Y-89524949D01*
X124513757Y-89524946D01*
X124513755Y-89524942D01*
X124404004Y-89360688D01*
X124404001Y-89360684D01*
X124264315Y-89220998D01*
X124264311Y-89220995D01*
X124100057Y-89111244D01*
X124100049Y-89111240D01*
X123917535Y-89035641D01*
X123723777Y-88997100D01*
X123276223Y-88997100D01*
X123179344Y-89016370D01*
X123082464Y-89035641D01*
X122899950Y-89111240D01*
X122899942Y-89111244D01*
X122735688Y-89220995D01*
X122735684Y-89220998D01*
X122595998Y-89360684D01*
X122595995Y-89360688D01*
X122486244Y-89524942D01*
X122486240Y-89524950D01*
X122410641Y-89707464D01*
X122399572Y-89763111D01*
X122372100Y-89901223D01*
X121225327Y-89901223D01*
X119667019Y-88342915D01*
X119663592Y-88334642D01*
X119663592Y-87413781D01*
X122499600Y-87413781D01*
X122499600Y-87423800D01*
X123028661Y-87423800D01*
X123025000Y-87437465D01*
X123025000Y-87562535D01*
X123028661Y-87576200D01*
X122499600Y-87576200D01*
X122499600Y-87586218D01*
X122533241Y-87755345D01*
X122599229Y-87914656D01*
X122599233Y-87914664D01*
X122695031Y-88058034D01*
X122695034Y-88058038D01*
X122816961Y-88179965D01*
X122816965Y-88179968D01*
X122960335Y-88275766D01*
X122960343Y-88275770D01*
X123119654Y-88341758D01*
X123288782Y-88375400D01*
X123423800Y-88375400D01*
X123423800Y-87971338D01*
X123437465Y-87975000D01*
X123562535Y-87975000D01*
X123576200Y-87971338D01*
X123576200Y-88375400D01*
X123711218Y-88375400D01*
X123880345Y-88341758D01*
X124039656Y-88275770D01*
X124039664Y-88275766D01*
X124183034Y-88179968D01*
X124183038Y-88179965D01*
X124304965Y-88058038D01*
X124304968Y-88058034D01*
X124400766Y-87914664D01*
X124400770Y-87914656D01*
X124466758Y-87755345D01*
X124500400Y-87586218D01*
X124500400Y-87576200D01*
X123971339Y-87576200D01*
X123975000Y-87562535D01*
X123975000Y-87437465D01*
X123971339Y-87423800D01*
X124500400Y-87423800D01*
X124500400Y-87413781D01*
X124466758Y-87244654D01*
X124400770Y-87085343D01*
X124400766Y-87085335D01*
X124304968Y-86941965D01*
X124304965Y-86941961D01*
X124201709Y-86838705D01*
X130124600Y-86838705D01*
X130124600Y-87001294D01*
X130156319Y-87160760D01*
X130218539Y-87310972D01*
X130218543Y-87310980D01*
X130308868Y-87446160D01*
X130312472Y-87449763D01*
X130617734Y-87144500D01*
X130629920Y-87165606D01*
X130704394Y-87240080D01*
X130725497Y-87252264D01*
X130420235Y-87557526D01*
X130423839Y-87561131D01*
X130559019Y-87651456D01*
X130559027Y-87651460D01*
X130709239Y-87713680D01*
X130868706Y-87745400D01*
X131031294Y-87745400D01*
X131190760Y-87713680D01*
X131340972Y-87651460D01*
X131340980Y-87651456D01*
X131476162Y-87561130D01*
X131476164Y-87561128D01*
X131479764Y-87557527D01*
X131479764Y-87557526D01*
X131174501Y-87252264D01*
X131195606Y-87240080D01*
X131270080Y-87165606D01*
X131282264Y-87144501D01*
X131587526Y-87449764D01*
X131587527Y-87449764D01*
X131591128Y-87446164D01*
X131591130Y-87446162D01*
X131681456Y-87310980D01*
X131681460Y-87310972D01*
X131743680Y-87160760D01*
X131775400Y-87001294D01*
X131775400Y-86838705D01*
X131743680Y-86679239D01*
X131681460Y-86529027D01*
X131681456Y-86529019D01*
X131591131Y-86393839D01*
X131587526Y-86390235D01*
X131282264Y-86695497D01*
X131270080Y-86674394D01*
X131195606Y-86599920D01*
X131174500Y-86587734D01*
X131479764Y-86282472D01*
X131476160Y-86278868D01*
X131340980Y-86188543D01*
X131340972Y-86188539D01*
X131190760Y-86126319D01*
X131031294Y-86094600D01*
X130868706Y-86094600D01*
X130709239Y-86126319D01*
X130559027Y-86188539D01*
X130559019Y-86188543D01*
X130423841Y-86278867D01*
X130423836Y-86278871D01*
X130420235Y-86282471D01*
X130725498Y-86587735D01*
X130704394Y-86599920D01*
X130629920Y-86674394D01*
X130617735Y-86695498D01*
X130312472Y-86390235D01*
X130312471Y-86390235D01*
X130308871Y-86393836D01*
X130308867Y-86393841D01*
X130218543Y-86529019D01*
X130218539Y-86529027D01*
X130156319Y-86679239D01*
X130124600Y-86838705D01*
X124201709Y-86838705D01*
X124183038Y-86820034D01*
X124183034Y-86820031D01*
X124039664Y-86724233D01*
X124039656Y-86724229D01*
X123880345Y-86658241D01*
X123711218Y-86624600D01*
X123576200Y-86624600D01*
X123576200Y-87028661D01*
X123562535Y-87025000D01*
X123437465Y-87025000D01*
X123423800Y-87028661D01*
X123423800Y-86624600D01*
X123288782Y-86624600D01*
X123119654Y-86658241D01*
X122960343Y-86724229D01*
X122960335Y-86724233D01*
X122816965Y-86820031D01*
X122816961Y-86820034D01*
X122695034Y-86941961D01*
X122695031Y-86941965D01*
X122599233Y-87085335D01*
X122599229Y-87085343D01*
X122533241Y-87244654D01*
X122499600Y-87413781D01*
X119663592Y-87413781D01*
X119663592Y-87339129D01*
X119663591Y-87339125D01*
X119630632Y-87259556D01*
X119628702Y-87254896D01*
X119564234Y-87190428D01*
X116810128Y-84436322D01*
X116806701Y-84428049D01*
X116806701Y-84330827D01*
X117474600Y-84330827D01*
X117474600Y-84469172D01*
X117510403Y-84602794D01*
X117575935Y-84716299D01*
X117777094Y-84515140D01*
X117788060Y-84541614D01*
X117858386Y-84611940D01*
X117884857Y-84622904D01*
X117683698Y-84824063D01*
X117683699Y-84824064D01*
X117797200Y-84889594D01*
X117797204Y-84889596D01*
X117930827Y-84925399D01*
X117930829Y-84925400D01*
X118069171Y-84925400D01*
X118069172Y-84925399D01*
X118202795Y-84889596D01*
X118202799Y-84889594D01*
X118316299Y-84824064D01*
X118316300Y-84824063D01*
X118115141Y-84622904D01*
X118141614Y-84611940D01*
X118211940Y-84541614D01*
X118222904Y-84515141D01*
X118424063Y-84716300D01*
X118424064Y-84716299D01*
X118489594Y-84602799D01*
X118489596Y-84602795D01*
X118525399Y-84469172D01*
X118525400Y-84469171D01*
X118525400Y-84368291D01*
X122372100Y-84368291D01*
X122372100Y-85631708D01*
X122387042Y-85726053D01*
X122387042Y-85726054D01*
X122387043Y-85726055D01*
X122444984Y-85839771D01*
X122535229Y-85930016D01*
X122648945Y-85987957D01*
X122696118Y-85995428D01*
X122743291Y-86002900D01*
X122743292Y-86002900D01*
X124256708Y-86002900D01*
X124351055Y-85987957D01*
X124464771Y-85930016D01*
X124555016Y-85839771D01*
X124612957Y-85726055D01*
X124627900Y-85631708D01*
X124627900Y-84368292D01*
X124621966Y-84330829D01*
X124612957Y-84273946D01*
X124612957Y-84273945D01*
X124555016Y-84160229D01*
X124464771Y-84069984D01*
X124351055Y-84012043D01*
X124351054Y-84012042D01*
X124351053Y-84012042D01*
X124256709Y-83997100D01*
X124256708Y-83997100D01*
X123740876Y-83997100D01*
X123732603Y-83993673D01*
X123729176Y-83985400D01*
X123729176Y-81922877D01*
X128174600Y-81922877D01*
X128174600Y-82423800D01*
X128606307Y-82423800D01*
X128600000Y-82447339D01*
X128600000Y-82552661D01*
X128606307Y-82576200D01*
X128174601Y-82576200D01*
X128174601Y-83077122D01*
X128190578Y-83157455D01*
X128190579Y-83157456D01*
X128251447Y-83248551D01*
X128251448Y-83248552D01*
X128342543Y-83309420D01*
X128422877Y-83325399D01*
X128923800Y-83325399D01*
X128923800Y-82893692D01*
X128947339Y-82900000D01*
X129052661Y-82900000D01*
X129076200Y-82893692D01*
X129076200Y-83325399D01*
X129577122Y-83325399D01*
X129657455Y-83309421D01*
X129657456Y-83309420D01*
X129748551Y-83248552D01*
X129748552Y-83248551D01*
X129809420Y-83157456D01*
X129814803Y-83130398D01*
X129825400Y-83077122D01*
X129825400Y-82576200D01*
X129393693Y-82576200D01*
X129400000Y-82552661D01*
X129400000Y-82447339D01*
X129393693Y-82423800D01*
X129825399Y-82423800D01*
X129825399Y-81922877D01*
X129809421Y-81842544D01*
X129809420Y-81842543D01*
X129748552Y-81751448D01*
X129748551Y-81751447D01*
X129657456Y-81690579D01*
X129577122Y-81674600D01*
X129076200Y-81674600D01*
X129076200Y-82106307D01*
X129052661Y-82100000D01*
X128947339Y-82100000D01*
X128923800Y-82106307D01*
X128923800Y-81674600D01*
X128422877Y-81674600D01*
X128342544Y-81690578D01*
X128342543Y-81690579D01*
X128251448Y-81751447D01*
X128251447Y-81751448D01*
X128190579Y-81842543D01*
X128174600Y-81922877D01*
X123729176Y-81922877D01*
X123729176Y-79360088D01*
X123732602Y-79351816D01*
X123754890Y-79329527D01*
X123763162Y-79326101D01*
X123766188Y-79326499D01*
X123817713Y-79340306D01*
X123817714Y-79340307D01*
X123817716Y-79340307D01*
X123938311Y-79340307D01*
X123938311Y-79340306D01*
X124011754Y-79320628D01*
X124054794Y-79309096D01*
X124054798Y-79309094D01*
X124089609Y-79288995D01*
X124159235Y-79248797D01*
X124244508Y-79163524D01*
X124304806Y-79059085D01*
X124312663Y-79029764D01*
X124327243Y-78975348D01*
X124336018Y-78942599D01*
X124336018Y-78822005D01*
X124329421Y-78797385D01*
X124304807Y-78705520D01*
X124304805Y-78705516D01*
X124244510Y-78601083D01*
X124244506Y-78601078D01*
X124159236Y-78515808D01*
X124159231Y-78515804D01*
X124054798Y-78455509D01*
X124054794Y-78455507D01*
X123938312Y-78424297D01*
X123938310Y-78424297D01*
X123817716Y-78424297D01*
X123817713Y-78424297D01*
X123701231Y-78455507D01*
X123701227Y-78455509D01*
X123596794Y-78515804D01*
X123596789Y-78515808D01*
X123511519Y-78601078D01*
X123511515Y-78601083D01*
X123451220Y-78705516D01*
X123451218Y-78705520D01*
X123420008Y-78822002D01*
X123420008Y-78942601D01*
X123433813Y-78994123D01*
X123432644Y-79003001D01*
X123430785Y-79005424D01*
X123370182Y-79066029D01*
X123305713Y-79130498D01*
X123270824Y-79214726D01*
X123270824Y-83985400D01*
X123267397Y-83993673D01*
X123259124Y-83997100D01*
X122743291Y-83997100D01*
X122648946Y-84012042D01*
X122535228Y-84069984D01*
X122444984Y-84160228D01*
X122387042Y-84273946D01*
X122372100Y-84368291D01*
X118525400Y-84368291D01*
X118525400Y-84330829D01*
X118525399Y-84330827D01*
X118489596Y-84197204D01*
X118489594Y-84197200D01*
X118424064Y-84083699D01*
X118424063Y-84083698D01*
X118222904Y-84284857D01*
X118211940Y-84258386D01*
X118141614Y-84188060D01*
X118115140Y-84177094D01*
X118316300Y-83975935D01*
X118202793Y-83910403D01*
X118202795Y-83910403D01*
X118069172Y-83874600D01*
X117930827Y-83874600D01*
X117797205Y-83910403D01*
X117683699Y-83975936D01*
X117884858Y-84177095D01*
X117858386Y-84188060D01*
X117788060Y-84258386D01*
X117777095Y-84284858D01*
X117575936Y-84083699D01*
X117510403Y-84197205D01*
X117474600Y-84330827D01*
X116806701Y-84330827D01*
X116806701Y-75709674D01*
X116810128Y-75701401D01*
X116818401Y-75697974D01*
X116826674Y-75701401D01*
X116835881Y-75710608D01*
X116835882Y-75710609D01*
X116835884Y-75710610D01*
X116940317Y-75770905D01*
X116940321Y-75770907D01*
X117032186Y-75795521D01*
X117056803Y-75802117D01*
X117056805Y-75802118D01*
X117056806Y-75802118D01*
X117177400Y-75802118D01*
X117228924Y-75788311D01*
X117237802Y-75789479D01*
X117240225Y-75791339D01*
X118509101Y-77060215D01*
X118562216Y-77082216D01*
X118593330Y-77095104D01*
X118593331Y-77095104D01*
X118593333Y-77095105D01*
X118593335Y-77095105D01*
X122852225Y-77095105D01*
X122852227Y-77095105D01*
X122936459Y-77060215D01*
X123883454Y-76113217D01*
X123891727Y-76109791D01*
X124029586Y-76109791D01*
X124037859Y-76113218D01*
X124041286Y-76121491D01*
X124037859Y-76129764D01*
X124009104Y-76158518D01*
X124009100Y-76158523D01*
X123948805Y-76262956D01*
X123948803Y-76262960D01*
X123917593Y-76379442D01*
X123917593Y-76500041D01*
X123948803Y-76616523D01*
X123948805Y-76616527D01*
X124009100Y-76720960D01*
X124009102Y-76720963D01*
X124009103Y-76720964D01*
X124094376Y-76806237D01*
X124094377Y-76806238D01*
X124094379Y-76806239D01*
X124198812Y-76866534D01*
X124198816Y-76866536D01*
X124290681Y-76891150D01*
X124315298Y-76897746D01*
X124315300Y-76897747D01*
X124315301Y-76897747D01*
X124435895Y-76897747D01*
X124487419Y-76883940D01*
X124496297Y-76885108D01*
X124498720Y-76886968D01*
X128391707Y-80779955D01*
X128444822Y-80801956D01*
X128475936Y-80814844D01*
X128475937Y-80814844D01*
X128475939Y-80814845D01*
X128567111Y-80814845D01*
X130457368Y-80814845D01*
X130465641Y-80818272D01*
X131391950Y-81744581D01*
X131395377Y-81752854D01*
X131391950Y-81761127D01*
X131383677Y-81764554D01*
X131379200Y-81763663D01*
X131240760Y-81706319D01*
X131081294Y-81674600D01*
X130918706Y-81674600D01*
X130759239Y-81706319D01*
X130609027Y-81768539D01*
X130609019Y-81768543D01*
X130473841Y-81858867D01*
X130473836Y-81858871D01*
X130470235Y-81862471D01*
X130775499Y-82167735D01*
X130754394Y-82179920D01*
X130679920Y-82254394D01*
X130667735Y-82275498D01*
X130362472Y-81970235D01*
X130362471Y-81970235D01*
X130358871Y-81973836D01*
X130358867Y-81973841D01*
X130268543Y-82109019D01*
X130268539Y-82109027D01*
X130206319Y-82259239D01*
X130174600Y-82418705D01*
X130174600Y-82581294D01*
X130206319Y-82740760D01*
X130268539Y-82890972D01*
X130268543Y-82890980D01*
X130358868Y-83026160D01*
X130362472Y-83029763D01*
X130667734Y-82724500D01*
X130679920Y-82745606D01*
X130754394Y-82820080D01*
X130775497Y-82832264D01*
X130470235Y-83137526D01*
X130473839Y-83141131D01*
X130609019Y-83231456D01*
X130609027Y-83231460D01*
X130759239Y-83293680D01*
X130918706Y-83325400D01*
X131081294Y-83325400D01*
X131240760Y-83293680D01*
X131390972Y-83231460D01*
X131390980Y-83231456D01*
X131526162Y-83141130D01*
X131526164Y-83141128D01*
X131529764Y-83137527D01*
X131529764Y-83137526D01*
X131224501Y-82832264D01*
X131245606Y-82820080D01*
X131320080Y-82745606D01*
X131332264Y-82724501D01*
X131637526Y-83029764D01*
X131637527Y-83029764D01*
X131641128Y-83026164D01*
X131641130Y-83026162D01*
X131731456Y-82890980D01*
X131731460Y-82890972D01*
X131793680Y-82740760D01*
X131819711Y-82609895D01*
X131824686Y-82602450D01*
X131833469Y-82600703D01*
X131840914Y-82605678D01*
X131842886Y-82612178D01*
X131842886Y-94613861D01*
X131839459Y-94622134D01*
X130755713Y-95705880D01*
X130720824Y-95790108D01*
X130720824Y-96144415D01*
X130717397Y-96152688D01*
X130711407Y-96155890D01*
X130672048Y-96163719D01*
X130498633Y-96235550D01*
X130498625Y-96235554D01*
X130342561Y-96339833D01*
X130342557Y-96339836D01*
X130209836Y-96472557D01*
X130209833Y-96472561D01*
X130105554Y-96628625D01*
X130105550Y-96628633D01*
X130033719Y-96802048D01*
X129997100Y-96986148D01*
X129997100Y-97173851D01*
X130033719Y-97357951D01*
X130105550Y-97531366D01*
X130105554Y-97531374D01*
X130209833Y-97687438D01*
X130209836Y-97687442D01*
X130342557Y-97820163D01*
X130342561Y-97820166D01*
X130498625Y-97924445D01*
X130498629Y-97924447D01*
X130498632Y-97924449D01*
X130672049Y-97996281D01*
X130856148Y-98032900D01*
X130856149Y-98032900D01*
X131043851Y-98032900D01*
X131043852Y-98032900D01*
X131227951Y-97996281D01*
X131401368Y-97924449D01*
X131557439Y-97820166D01*
X131690166Y-97687439D01*
X131794449Y-97531368D01*
X131866281Y-97357951D01*
X131902900Y-97173852D01*
X131902900Y-96986148D01*
X134047100Y-96986148D01*
X134047100Y-97173851D01*
X134083719Y-97357951D01*
X134155550Y-97531366D01*
X134155554Y-97531374D01*
X134259833Y-97687438D01*
X134259836Y-97687442D01*
X134392557Y-97820163D01*
X134392561Y-97820166D01*
X134548625Y-97924445D01*
X134548629Y-97924447D01*
X134548632Y-97924449D01*
X134722049Y-97996281D01*
X134906148Y-98032900D01*
X134906149Y-98032900D01*
X135093851Y-98032900D01*
X135093852Y-98032900D01*
X135277951Y-97996281D01*
X135451368Y-97924449D01*
X135607439Y-97820166D01*
X135740166Y-97687439D01*
X135844449Y-97531368D01*
X135916281Y-97357951D01*
X135952900Y-97173852D01*
X135952900Y-96986148D01*
X135916281Y-96802049D01*
X135844449Y-96628632D01*
X135844447Y-96628629D01*
X135844445Y-96628625D01*
X135740166Y-96472561D01*
X135740163Y-96472557D01*
X135607442Y-96339836D01*
X135607438Y-96339833D01*
X135451374Y-96235554D01*
X135451366Y-96235550D01*
X135277951Y-96163719D01*
X135229175Y-96154017D01*
X135093852Y-96127100D01*
X134906148Y-96127100D01*
X134819098Y-96144415D01*
X134722048Y-96163719D01*
X134548633Y-96235550D01*
X134548625Y-96235554D01*
X134392561Y-96339833D01*
X134392557Y-96339836D01*
X134259836Y-96472557D01*
X134259833Y-96472561D01*
X134155554Y-96628625D01*
X134155550Y-96628633D01*
X134083719Y-96802048D01*
X134047100Y-96986148D01*
X131902900Y-96986148D01*
X131866281Y-96802049D01*
X131794449Y-96628632D01*
X131794447Y-96628629D01*
X131794445Y-96628625D01*
X131690166Y-96472561D01*
X131690163Y-96472557D01*
X131557442Y-96339836D01*
X131557438Y-96339833D01*
X131401374Y-96235554D01*
X131401366Y-96235550D01*
X131227951Y-96163719D01*
X131188593Y-96155890D01*
X131181148Y-96150915D01*
X131179176Y-96144415D01*
X131179176Y-95935471D01*
X131182603Y-95927198D01*
X132266347Y-94843454D01*
X132266348Y-94843453D01*
X132301238Y-94759221D01*
X132301238Y-94668049D01*
X132301238Y-90468291D01*
X140467100Y-90468291D01*
X140467100Y-92531708D01*
X140482042Y-92626053D01*
X140482042Y-92626054D01*
X140482043Y-92626055D01*
X140539984Y-92739771D01*
X140630229Y-92830016D01*
X140743945Y-92887957D01*
X140791118Y-92895428D01*
X140838291Y-92902900D01*
X140838292Y-92902900D01*
X142901708Y-92902900D01*
X142996055Y-92887957D01*
X143109771Y-92830016D01*
X143200016Y-92739771D01*
X143257957Y-92626055D01*
X143272900Y-92531708D01*
X143272900Y-91389588D01*
X145467100Y-91389588D01*
X145467100Y-91610411D01*
X145501642Y-91828505D01*
X145501646Y-91828521D01*
X145569878Y-92038518D01*
X145569880Y-92038522D01*
X145569882Y-92038527D01*
X145655959Y-92207464D01*
X145670135Y-92235286D01*
X145799920Y-92413918D01*
X145799924Y-92413922D01*
X145799928Y-92413928D01*
X145956072Y-92570072D01*
X145956077Y-92570076D01*
X145956081Y-92570079D01*
X146134713Y-92699864D01*
X146134718Y-92699866D01*
X146134720Y-92699868D01*
X146331473Y-92800118D01*
X146331478Y-92800119D01*
X146331481Y-92800121D01*
X146423489Y-92830016D01*
X146541487Y-92868356D01*
X146630251Y-92882414D01*
X146759588Y-92902900D01*
X146759589Y-92902900D01*
X146980411Y-92902900D01*
X147198513Y-92868356D01*
X147408527Y-92800118D01*
X147605280Y-92699868D01*
X147608518Y-92697516D01*
X147744419Y-92598777D01*
X147783928Y-92570072D01*
X147940072Y-92413928D01*
X148036335Y-92281434D01*
X148069864Y-92235286D01*
X148069864Y-92235284D01*
X148069868Y-92235280D01*
X148170118Y-92038527D01*
X148174530Y-92024950D01*
X148213170Y-91906027D01*
X148238356Y-91828513D01*
X148272900Y-91610411D01*
X148272900Y-91389589D01*
X148238356Y-91171487D01*
X148223779Y-91126624D01*
X148170121Y-90961481D01*
X148170119Y-90961477D01*
X148170118Y-90961473D01*
X148069868Y-90764720D01*
X148016624Y-90691435D01*
X148014534Y-90682728D01*
X148017815Y-90676287D01*
X148225813Y-90468291D01*
X152749600Y-90468291D01*
X152749600Y-92531708D01*
X152764542Y-92626053D01*
X152764542Y-92626054D01*
X152764543Y-92626055D01*
X152822484Y-92739771D01*
X152912729Y-92830016D01*
X153026445Y-92887957D01*
X153073618Y-92895428D01*
X153120791Y-92902900D01*
X153120792Y-92902900D01*
X155184208Y-92902900D01*
X155278555Y-92887957D01*
X155392271Y-92830016D01*
X155482516Y-92739771D01*
X155540457Y-92626055D01*
X155555400Y-92531708D01*
X155555400Y-90468292D01*
X155553067Y-90453565D01*
X155540457Y-90373946D01*
X155540457Y-90373945D01*
X155482516Y-90260229D01*
X155392271Y-90169984D01*
X155278555Y-90112043D01*
X155278554Y-90112042D01*
X155278553Y-90112042D01*
X155184209Y-90097100D01*
X155184208Y-90097100D01*
X153120792Y-90097100D01*
X153120791Y-90097100D01*
X153026446Y-90112042D01*
X152912728Y-90169984D01*
X152822484Y-90260228D01*
X152764542Y-90373946D01*
X152749600Y-90468291D01*
X148225813Y-90468291D01*
X148264420Y-90429684D01*
X152659561Y-86034543D01*
X152694451Y-85950311D01*
X152694451Y-85859139D01*
X152694451Y-81965499D01*
X152697878Y-81957226D01*
X153891710Y-80763394D01*
X154370100Y-80763394D01*
X154370100Y-80883993D01*
X154401310Y-81000475D01*
X154401312Y-81000479D01*
X154461607Y-81104912D01*
X154461609Y-81104915D01*
X154461610Y-81104916D01*
X154546883Y-81190189D01*
X154593079Y-81216860D01*
X154598530Y-81223964D01*
X154598929Y-81226992D01*
X154598929Y-87221867D01*
X154633818Y-87306095D01*
X154633820Y-87306098D01*
X157756687Y-90428966D01*
X157756771Y-90429067D01*
X157757526Y-90429822D01*
X157757528Y-90429825D01*
X157787279Y-90459559D01*
X157789571Y-90461850D01*
X157822775Y-90495054D01*
X157822877Y-90495137D01*
X158004447Y-90676605D01*
X158007876Y-90684877D01*
X158005642Y-90691757D01*
X157952633Y-90764718D01*
X157852380Y-90961477D01*
X157852378Y-90961481D01*
X157784146Y-91171478D01*
X157784142Y-91171494D01*
X157749600Y-91389588D01*
X157749600Y-91610411D01*
X157784142Y-91828505D01*
X157784146Y-91828521D01*
X157852378Y-92038518D01*
X157852380Y-92038522D01*
X157852382Y-92038527D01*
X157938459Y-92207464D01*
X157952635Y-92235286D01*
X158082420Y-92413918D01*
X158082424Y-92413922D01*
X158082428Y-92413928D01*
X158238572Y-92570072D01*
X158238577Y-92570076D01*
X158238581Y-92570079D01*
X158417213Y-92699864D01*
X158417218Y-92699866D01*
X158417220Y-92699868D01*
X158613973Y-92800118D01*
X158613978Y-92800119D01*
X158613981Y-92800121D01*
X158705989Y-92830016D01*
X158823987Y-92868356D01*
X158912751Y-92882414D01*
X159042088Y-92902900D01*
X159042089Y-92902900D01*
X159262911Y-92902900D01*
X159481013Y-92868356D01*
X159691027Y-92800118D01*
X159887780Y-92699868D01*
X159891018Y-92697516D01*
X160026919Y-92598777D01*
X160066428Y-92570072D01*
X160222572Y-92413928D01*
X160318835Y-92281434D01*
X160352364Y-92235286D01*
X160352364Y-92235284D01*
X160352368Y-92235280D01*
X160452618Y-92038527D01*
X160457030Y-92024950D01*
X160495670Y-91906027D01*
X160520856Y-91828513D01*
X160555400Y-91610411D01*
X160555400Y-91389589D01*
X160520856Y-91171487D01*
X160506279Y-91126624D01*
X160452621Y-90961481D01*
X160452619Y-90961477D01*
X160452618Y-90961473D01*
X160352368Y-90764720D01*
X160352366Y-90764718D01*
X160352364Y-90764713D01*
X160222579Y-90586081D01*
X160222576Y-90586077D01*
X160222572Y-90586072D01*
X160066428Y-90429928D01*
X160066422Y-90429924D01*
X160066418Y-90429920D01*
X159887786Y-90300135D01*
X159772601Y-90241446D01*
X159691027Y-90199882D01*
X159691024Y-90199881D01*
X159691022Y-90199880D01*
X159691018Y-90199878D01*
X159481021Y-90131646D01*
X159481005Y-90131642D01*
X159262912Y-90097100D01*
X159262911Y-90097100D01*
X159042089Y-90097100D01*
X159042088Y-90097100D01*
X158823994Y-90131642D01*
X158823978Y-90131646D01*
X158613981Y-90199878D01*
X158613977Y-90199880D01*
X158613973Y-90199881D01*
X158613973Y-90199882D01*
X158532399Y-90241446D01*
X158417218Y-90300133D01*
X158343615Y-90353608D01*
X158334908Y-90355698D01*
X158328467Y-90352417D01*
X158113584Y-90137655D01*
X158113582Y-90137653D01*
X155060708Y-87084778D01*
X155057281Y-87076505D01*
X155057281Y-83208480D01*
X155216267Y-83208480D01*
X155216267Y-83371069D01*
X155247986Y-83530535D01*
X155310206Y-83680747D01*
X155310210Y-83680755D01*
X155400535Y-83815935D01*
X155404139Y-83819538D01*
X155709401Y-83514275D01*
X155721587Y-83535381D01*
X155796061Y-83609855D01*
X155817164Y-83622039D01*
X155511902Y-83927301D01*
X155515506Y-83930906D01*
X155650686Y-84021231D01*
X155650694Y-84021235D01*
X155800906Y-84083455D01*
X155960373Y-84115175D01*
X156122961Y-84115175D01*
X156282427Y-84083455D01*
X156432639Y-84021235D01*
X156432647Y-84021231D01*
X156567829Y-83930905D01*
X156567831Y-83930903D01*
X156571431Y-83927302D01*
X156571431Y-83927301D01*
X156266168Y-83622039D01*
X156287273Y-83609855D01*
X156361747Y-83535381D01*
X156373931Y-83514276D01*
X156679193Y-83819539D01*
X156679194Y-83819539D01*
X156682795Y-83815939D01*
X156682797Y-83815937D01*
X156773123Y-83680755D01*
X156773127Y-83680747D01*
X156835347Y-83530535D01*
X156867067Y-83371069D01*
X156867067Y-83208480D01*
X160307933Y-83208480D01*
X160307933Y-83371069D01*
X160339652Y-83530535D01*
X160401872Y-83680747D01*
X160401876Y-83680755D01*
X160492201Y-83815935D01*
X160495805Y-83819538D01*
X160801067Y-83514275D01*
X160813253Y-83535381D01*
X160887727Y-83609855D01*
X160908830Y-83622039D01*
X160603568Y-83927301D01*
X160607172Y-83930906D01*
X160742352Y-84021231D01*
X160742360Y-84021235D01*
X160892572Y-84083455D01*
X161052039Y-84115175D01*
X161214627Y-84115175D01*
X161374093Y-84083455D01*
X161524305Y-84021235D01*
X161524313Y-84021231D01*
X161659495Y-83930905D01*
X161659497Y-83930903D01*
X161663097Y-83927302D01*
X161663097Y-83927301D01*
X161357834Y-83622039D01*
X161378939Y-83609855D01*
X161453413Y-83535381D01*
X161465597Y-83514276D01*
X161770859Y-83819539D01*
X161770860Y-83819539D01*
X161774461Y-83815939D01*
X161774463Y-83815937D01*
X161864789Y-83680755D01*
X161864793Y-83680747D01*
X161927013Y-83530535D01*
X161958733Y-83371069D01*
X161958733Y-83208480D01*
X165399600Y-83208480D01*
X165399600Y-83371069D01*
X165431319Y-83530535D01*
X165493539Y-83680747D01*
X165493543Y-83680755D01*
X165583868Y-83815935D01*
X165587472Y-83819538D01*
X165892734Y-83514275D01*
X165904920Y-83535381D01*
X165979394Y-83609855D01*
X166000497Y-83622039D01*
X165695235Y-83927301D01*
X165698839Y-83930906D01*
X165834019Y-84021231D01*
X165834027Y-84021235D01*
X165984239Y-84083455D01*
X166143706Y-84115175D01*
X166306294Y-84115175D01*
X166465760Y-84083455D01*
X166615972Y-84021235D01*
X166615980Y-84021231D01*
X166751162Y-83930905D01*
X166751164Y-83930903D01*
X166754764Y-83927302D01*
X166754764Y-83927301D01*
X166449501Y-83622039D01*
X166470606Y-83609855D01*
X166545080Y-83535381D01*
X166557264Y-83514276D01*
X166862526Y-83819539D01*
X166862527Y-83819539D01*
X166866128Y-83815939D01*
X166866130Y-83815937D01*
X166956456Y-83680755D01*
X166956460Y-83680747D01*
X167018680Y-83530535D01*
X167050400Y-83371069D01*
X167050400Y-83208480D01*
X167018680Y-83049014D01*
X166956460Y-82898802D01*
X166956456Y-82898794D01*
X166866131Y-82763614D01*
X166862526Y-82760010D01*
X166557264Y-83065272D01*
X166545080Y-83044169D01*
X166470606Y-82969695D01*
X166449500Y-82957509D01*
X166754764Y-82652247D01*
X166751160Y-82648643D01*
X166615980Y-82558318D01*
X166615972Y-82558314D01*
X166465760Y-82496094D01*
X166306294Y-82464375D01*
X166143706Y-82464375D01*
X165984239Y-82496094D01*
X165834027Y-82558314D01*
X165834019Y-82558318D01*
X165698841Y-82648642D01*
X165698836Y-82648646D01*
X165695234Y-82652246D01*
X166000498Y-82957510D01*
X165979394Y-82969695D01*
X165904920Y-83044169D01*
X165892735Y-83065273D01*
X165587472Y-82760010D01*
X165587471Y-82760010D01*
X165583871Y-82763611D01*
X165583867Y-82763616D01*
X165493543Y-82898794D01*
X165493539Y-82898802D01*
X165431319Y-83049014D01*
X165399600Y-83208480D01*
X161958733Y-83208480D01*
X161927013Y-83049014D01*
X161864793Y-82898802D01*
X161864789Y-82898794D01*
X161774464Y-82763614D01*
X161770859Y-82760010D01*
X161465597Y-83065272D01*
X161453413Y-83044169D01*
X161378939Y-82969695D01*
X161357833Y-82957509D01*
X161663096Y-82652247D01*
X161659493Y-82648643D01*
X161524313Y-82558318D01*
X161524305Y-82558314D01*
X161374093Y-82496094D01*
X161214627Y-82464375D01*
X161052039Y-82464375D01*
X160892572Y-82496094D01*
X160742360Y-82558314D01*
X160742352Y-82558318D01*
X160607174Y-82648642D01*
X160607169Y-82648646D01*
X160603568Y-82652246D01*
X160908831Y-82957510D01*
X160887727Y-82969695D01*
X160813253Y-83044169D01*
X160801068Y-83065273D01*
X160495805Y-82760010D01*
X160495804Y-82760010D01*
X160492204Y-82763611D01*
X160492200Y-82763616D01*
X160401876Y-82898794D01*
X160401872Y-82898802D01*
X160339652Y-83049014D01*
X160307933Y-83208480D01*
X156867067Y-83208480D01*
X156835347Y-83049014D01*
X156773127Y-82898802D01*
X156773123Y-82898794D01*
X156682798Y-82763614D01*
X156679193Y-82760010D01*
X156373931Y-83065272D01*
X156361747Y-83044169D01*
X156287273Y-82969695D01*
X156266167Y-82957509D01*
X156571430Y-82652247D01*
X156567827Y-82648643D01*
X156432647Y-82558318D01*
X156432639Y-82558314D01*
X156282427Y-82496094D01*
X156122961Y-82464375D01*
X155960373Y-82464375D01*
X155800906Y-82496094D01*
X155650694Y-82558314D01*
X155650686Y-82558318D01*
X155515508Y-82648642D01*
X155515503Y-82648646D01*
X155511901Y-82652246D01*
X155817165Y-82957510D01*
X155796061Y-82969695D01*
X155721587Y-83044169D01*
X155709402Y-83065273D01*
X155404139Y-82760010D01*
X155404138Y-82760010D01*
X155400538Y-82763611D01*
X155400534Y-82763616D01*
X155310210Y-82898794D01*
X155310206Y-82898802D01*
X155247986Y-83049014D01*
X155216267Y-83208480D01*
X155057281Y-83208480D01*
X155057281Y-81226992D01*
X155060708Y-81218719D01*
X155063127Y-81216861D01*
X155109327Y-81190189D01*
X155194600Y-81104916D01*
X155254898Y-81000477D01*
X155256977Y-80992721D01*
X155270504Y-80942234D01*
X155286110Y-80883991D01*
X155286110Y-80763397D01*
X155279513Y-80738777D01*
X155254899Y-80646912D01*
X155254897Y-80646908D01*
X155194602Y-80542475D01*
X155194598Y-80542470D01*
X155109328Y-80457200D01*
X155109323Y-80457196D01*
X155004890Y-80396901D01*
X155004886Y-80396899D01*
X154888404Y-80365689D01*
X154888402Y-80365689D01*
X154767808Y-80365689D01*
X154767805Y-80365689D01*
X154651323Y-80396899D01*
X154651319Y-80396901D01*
X154546886Y-80457196D01*
X154546881Y-80457200D01*
X154461611Y-80542470D01*
X154461607Y-80542475D01*
X154401312Y-80646908D01*
X154401310Y-80646912D01*
X154370100Y-80763394D01*
X153891710Y-80763394D01*
X155355652Y-79299452D01*
X155398501Y-79256603D01*
X155541896Y-79113206D01*
X155550168Y-79109780D01*
X155556667Y-79111751D01*
X155590299Y-79134224D01*
X155763716Y-79206056D01*
X155947815Y-79242675D01*
X155947816Y-79242675D01*
X156135518Y-79242675D01*
X156135519Y-79242675D01*
X156319618Y-79206056D01*
X156493035Y-79134224D01*
X156649106Y-79029941D01*
X156781833Y-78897214D01*
X156886116Y-78741143D01*
X156957948Y-78567726D01*
X156994567Y-78383627D01*
X156994567Y-78195923D01*
X156957948Y-78011824D01*
X156886116Y-77838407D01*
X156886114Y-77838404D01*
X156886112Y-77838400D01*
X156781833Y-77682336D01*
X156781830Y-77682332D01*
X156649109Y-77549611D01*
X156649105Y-77549608D01*
X156493041Y-77445329D01*
X156493033Y-77445325D01*
X156319618Y-77373494D01*
X156135519Y-77336875D01*
X155947815Y-77336875D01*
X155855765Y-77355184D01*
X155763715Y-77373494D01*
X155590300Y-77445325D01*
X155590292Y-77445329D01*
X155434228Y-77549608D01*
X155434224Y-77549611D01*
X155301503Y-77682332D01*
X155301500Y-77682336D01*
X155197221Y-77838400D01*
X155197217Y-77838408D01*
X155125386Y-78011823D01*
X155107847Y-78100000D01*
X155088767Y-78195923D01*
X155088767Y-78383627D01*
X155111915Y-78500000D01*
X155125386Y-78567726D01*
X155197217Y-78741141D01*
X155197221Y-78741149D01*
X155219334Y-78774242D01*
X155221081Y-78783024D01*
X155217879Y-78789015D01*
X155031548Y-78975348D01*
X152270988Y-81735908D01*
X152236099Y-81820136D01*
X152236099Y-85804951D01*
X152232672Y-85813224D01*
X147940316Y-90105580D01*
X147693713Y-90352181D01*
X147685440Y-90355608D01*
X147678563Y-90353374D01*
X147605281Y-90300133D01*
X147605282Y-90300133D01*
X147605280Y-90300132D01*
X147408527Y-90199882D01*
X147408524Y-90199881D01*
X147408522Y-90199880D01*
X147408518Y-90199878D01*
X147198521Y-90131646D01*
X147198505Y-90131642D01*
X146980412Y-90097100D01*
X146980411Y-90097100D01*
X146759589Y-90097100D01*
X146759588Y-90097100D01*
X146541494Y-90131642D01*
X146541478Y-90131646D01*
X146331481Y-90199878D01*
X146331477Y-90199880D01*
X146134713Y-90300135D01*
X145956081Y-90429920D01*
X145956065Y-90429934D01*
X145799934Y-90586065D01*
X145799920Y-90586081D01*
X145670135Y-90764713D01*
X145569880Y-90961477D01*
X145569878Y-90961481D01*
X145501646Y-91171478D01*
X145501642Y-91171494D01*
X145467100Y-91389588D01*
X143272900Y-91389588D01*
X143272900Y-90468292D01*
X143270567Y-90453565D01*
X143257957Y-90373946D01*
X143257957Y-90373945D01*
X143200016Y-90260229D01*
X143109771Y-90169984D01*
X142996055Y-90112043D01*
X142996054Y-90112042D01*
X142996053Y-90112042D01*
X142901709Y-90097100D01*
X142901708Y-90097100D01*
X140838292Y-90097100D01*
X140838291Y-90097100D01*
X140743946Y-90112042D01*
X140630228Y-90169984D01*
X140539984Y-90260228D01*
X140482042Y-90373946D01*
X140467100Y-90468291D01*
X132301238Y-90468291D01*
X132301238Y-86826148D01*
X134047100Y-86826148D01*
X134047100Y-87013852D01*
X134049867Y-87027763D01*
X134083719Y-87197951D01*
X134155550Y-87371366D01*
X134155554Y-87371374D01*
X134259833Y-87527438D01*
X134259836Y-87527442D01*
X134392557Y-87660163D01*
X134392561Y-87660166D01*
X134548625Y-87764445D01*
X134548629Y-87764447D01*
X134548632Y-87764449D01*
X134722049Y-87836281D01*
X134906148Y-87872900D01*
X134906149Y-87872900D01*
X135093851Y-87872900D01*
X135093852Y-87872900D01*
X135277951Y-87836281D01*
X135451368Y-87764449D01*
X135607439Y-87660166D01*
X135740166Y-87527439D01*
X135844449Y-87371368D01*
X135916281Y-87197951D01*
X135952900Y-87013852D01*
X135952900Y-86826148D01*
X135916281Y-86642049D01*
X135844449Y-86468632D01*
X135844447Y-86468629D01*
X135844445Y-86468625D01*
X135740166Y-86312561D01*
X135740163Y-86312557D01*
X135607442Y-86179836D01*
X135607438Y-86179833D01*
X135451374Y-86075554D01*
X135451366Y-86075550D01*
X135277951Y-86003719D01*
X135273834Y-86002900D01*
X135093852Y-85967100D01*
X134906148Y-85967100D01*
X134814098Y-85985409D01*
X134722048Y-86003719D01*
X134548633Y-86075550D01*
X134548625Y-86075554D01*
X134392561Y-86179833D01*
X134392557Y-86179836D01*
X134259836Y-86312557D01*
X134259833Y-86312561D01*
X134155554Y-86468625D01*
X134155550Y-86468633D01*
X134083719Y-86642048D01*
X134067373Y-86724229D01*
X134047100Y-86826148D01*
X132301238Y-86826148D01*
X132301238Y-83418705D01*
X141174600Y-83418705D01*
X141174600Y-83581294D01*
X141206319Y-83740760D01*
X141268539Y-83890972D01*
X141268543Y-83890980D01*
X141358868Y-84026160D01*
X141362472Y-84029763D01*
X141667734Y-83724500D01*
X141679920Y-83745606D01*
X141754394Y-83820080D01*
X141775497Y-83832264D01*
X141470235Y-84137526D01*
X141473839Y-84141131D01*
X141609019Y-84231456D01*
X141609027Y-84231460D01*
X141759239Y-84293680D01*
X141918706Y-84325400D01*
X142081294Y-84325400D01*
X142240760Y-84293680D01*
X142390972Y-84231460D01*
X142390980Y-84231456D01*
X142526162Y-84141130D01*
X142526164Y-84141128D01*
X142529764Y-84137527D01*
X142529764Y-84137526D01*
X142224501Y-83832264D01*
X142245606Y-83820080D01*
X142320080Y-83745606D01*
X142332264Y-83724501D01*
X142637526Y-84029764D01*
X142637527Y-84029764D01*
X142641128Y-84026164D01*
X142641130Y-84026162D01*
X142731456Y-83890980D01*
X142731460Y-83890972D01*
X142793680Y-83740760D01*
X142825400Y-83581294D01*
X142825400Y-83418705D01*
X142793680Y-83259239D01*
X142731460Y-83109027D01*
X142731456Y-83109019D01*
X142641131Y-82973839D01*
X142637526Y-82970235D01*
X142332264Y-83275497D01*
X142320080Y-83254394D01*
X142245606Y-83179920D01*
X142224500Y-83167734D01*
X142529764Y-82862472D01*
X142526160Y-82858868D01*
X142390980Y-82768543D01*
X142390972Y-82768539D01*
X142240760Y-82706319D01*
X142081294Y-82674600D01*
X141918706Y-82674600D01*
X141759239Y-82706319D01*
X141609027Y-82768539D01*
X141609019Y-82768543D01*
X141473841Y-82858867D01*
X141473836Y-82858871D01*
X141470235Y-82862471D01*
X141775498Y-83167735D01*
X141754394Y-83179920D01*
X141679920Y-83254394D01*
X141667735Y-83275498D01*
X141362472Y-82970235D01*
X141362471Y-82970235D01*
X141358871Y-82973836D01*
X141358867Y-82973841D01*
X141268543Y-83109019D01*
X141268539Y-83109027D01*
X141206319Y-83259239D01*
X141174600Y-83418705D01*
X132301238Y-83418705D01*
X132301238Y-82055003D01*
X132266348Y-81970771D01*
X132201880Y-81906303D01*
X130686960Y-80391383D01*
X130686958Y-80391382D01*
X130602730Y-80356493D01*
X130602728Y-80356493D01*
X128621299Y-80356493D01*
X128613026Y-80353066D01*
X124822824Y-76562864D01*
X124819397Y-76554591D01*
X124819795Y-76551567D01*
X124829889Y-76513897D01*
X124833603Y-76500040D01*
X124833603Y-76379444D01*
X124833602Y-76379442D01*
X124802392Y-76262960D01*
X124802390Y-76262956D01*
X124742095Y-76158523D01*
X124742091Y-76158518D01*
X124713337Y-76129764D01*
X124709910Y-76121491D01*
X124713337Y-76113218D01*
X124721610Y-76109791D01*
X126061277Y-76109791D01*
X126069550Y-76113218D01*
X128650618Y-78694286D01*
X128703733Y-78716287D01*
X128734847Y-78729175D01*
X128734848Y-78729175D01*
X128734850Y-78729176D01*
X128826022Y-78729176D01*
X133713111Y-78729176D01*
X134035400Y-78729176D01*
X134043673Y-78732603D01*
X134047100Y-78740876D01*
X134047100Y-79081708D01*
X134062042Y-79176053D01*
X134062042Y-79176054D01*
X134062043Y-79176055D01*
X134119984Y-79289771D01*
X134210229Y-79380016D01*
X134323945Y-79437957D01*
X134371118Y-79445428D01*
X134418291Y-79452900D01*
X134418292Y-79452900D01*
X135581708Y-79452900D01*
X135676055Y-79437957D01*
X135789771Y-79380016D01*
X135880016Y-79289771D01*
X135937957Y-79176055D01*
X135940969Y-79157035D01*
X135945117Y-79130851D01*
X135952900Y-79081708D01*
X135952900Y-78418705D01*
X136174600Y-78418705D01*
X136174600Y-78581294D01*
X136206319Y-78740760D01*
X136268539Y-78890972D01*
X136268543Y-78890980D01*
X136358868Y-79026160D01*
X136362472Y-79029763D01*
X136667734Y-78724500D01*
X136679920Y-78745606D01*
X136754394Y-78820080D01*
X136775497Y-78832264D01*
X136470235Y-79137526D01*
X136473839Y-79141131D01*
X136609019Y-79231456D01*
X136609027Y-79231460D01*
X136759239Y-79293680D01*
X136918706Y-79325400D01*
X137081294Y-79325400D01*
X137240760Y-79293680D01*
X137390972Y-79231460D01*
X137390980Y-79231456D01*
X137526162Y-79141130D01*
X137526164Y-79141128D01*
X137529764Y-79137527D01*
X137529764Y-79137526D01*
X137224501Y-78832264D01*
X137245606Y-78820080D01*
X137320080Y-78745606D01*
X137332264Y-78724501D01*
X137637526Y-79029764D01*
X137637527Y-79029764D01*
X137641128Y-79026164D01*
X137641130Y-79026162D01*
X137731456Y-78890980D01*
X137731460Y-78890972D01*
X137793680Y-78740760D01*
X137825400Y-78581294D01*
X137825400Y-78418705D01*
X137793680Y-78259239D01*
X137731460Y-78109027D01*
X137731456Y-78109019D01*
X137641131Y-77973839D01*
X137637526Y-77970235D01*
X137332264Y-78275497D01*
X137320080Y-78254394D01*
X137245606Y-78179920D01*
X137224500Y-78167734D01*
X137529764Y-77862472D01*
X137526160Y-77858868D01*
X137390980Y-77768543D01*
X137390972Y-77768539D01*
X137240760Y-77706319D01*
X137081294Y-77674600D01*
X136918706Y-77674600D01*
X136759239Y-77706319D01*
X136609027Y-77768539D01*
X136609019Y-77768543D01*
X136473841Y-77858867D01*
X136473836Y-77858871D01*
X136470235Y-77862471D01*
X136775498Y-78167735D01*
X136754394Y-78179920D01*
X136679920Y-78254394D01*
X136667735Y-78275498D01*
X136362472Y-77970235D01*
X136362471Y-77970235D01*
X136358871Y-77973836D01*
X136358867Y-77973841D01*
X136268543Y-78109019D01*
X136268539Y-78109027D01*
X136206319Y-78259239D01*
X136174600Y-78418705D01*
X135952900Y-78418705D01*
X135952900Y-77918291D01*
X135943581Y-77859454D01*
X135940248Y-77838408D01*
X135937957Y-77823945D01*
X135880016Y-77710229D01*
X135789771Y-77619984D01*
X135676055Y-77562043D01*
X135676054Y-77562042D01*
X135676053Y-77562042D01*
X135581709Y-77547100D01*
X135581708Y-77547100D01*
X134418292Y-77547100D01*
X134418291Y-77547100D01*
X134323946Y-77562042D01*
X134210228Y-77619984D01*
X134119984Y-77710228D01*
X134062042Y-77823946D01*
X134047100Y-77918291D01*
X134047100Y-78259124D01*
X134043673Y-78267397D01*
X134035400Y-78270824D01*
X128880210Y-78270824D01*
X128871937Y-78267397D01*
X126290870Y-75686330D01*
X126290869Y-75686329D01*
X126290867Y-75686328D01*
X126206639Y-75651439D01*
X126206637Y-75651439D01*
X123837540Y-75651439D01*
X123746368Y-75651439D01*
X123746365Y-75651439D01*
X123662137Y-75686328D01*
X123662134Y-75686330D01*
X122917962Y-76430502D01*
X122909689Y-76433929D01*
X122901416Y-76430502D01*
X122897989Y-76422229D01*
X122898388Y-76419201D01*
X122909040Y-76379445D01*
X122921367Y-76333441D01*
X122921367Y-76212847D01*
X122906811Y-76158523D01*
X122890156Y-76096362D01*
X122890154Y-76096358D01*
X122829859Y-75991925D01*
X122829855Y-75991920D01*
X122744585Y-75906650D01*
X122744580Y-75906646D01*
X122640147Y-75846351D01*
X122640143Y-75846349D01*
X122523661Y-75815139D01*
X122523659Y-75815139D01*
X122403065Y-75815139D01*
X122403062Y-75815139D01*
X122351539Y-75828944D01*
X122342661Y-75827775D01*
X122340238Y-75825916D01*
X120683806Y-74169484D01*
X120683805Y-74169483D01*
X120683803Y-74169482D01*
X120599575Y-74134593D01*
X120599573Y-74134593D01*
X120138337Y-74134593D01*
X120130064Y-74131166D01*
X120128205Y-74128743D01*
X120101535Y-74082550D01*
X120101531Y-74082545D01*
X120016261Y-73997275D01*
X120016256Y-73997271D01*
X119911823Y-73936976D01*
X119911819Y-73936974D01*
X119795337Y-73905764D01*
X119795335Y-73905764D01*
X119674741Y-73905764D01*
X119674738Y-73905764D01*
X119558256Y-73936974D01*
X119558252Y-73936976D01*
X119453819Y-73997271D01*
X119453814Y-73997275D01*
X119368544Y-74082545D01*
X119368540Y-74082550D01*
X119308245Y-74186983D01*
X119308243Y-74186987D01*
X119277033Y-74303469D01*
X119277033Y-74424068D01*
X119308243Y-74540550D01*
X119308245Y-74540554D01*
X119368540Y-74644987D01*
X119368542Y-74644990D01*
X119368543Y-74644991D01*
X119453816Y-74730264D01*
X119453817Y-74730265D01*
X119453819Y-74730266D01*
X119558252Y-74790561D01*
X119558256Y-74790563D01*
X119650121Y-74815177D01*
X119674738Y-74821773D01*
X119674740Y-74821774D01*
X119674741Y-74821774D01*
X119795336Y-74821774D01*
X119795336Y-74821773D01*
X119853578Y-74806168D01*
X119911819Y-74790563D01*
X119911823Y-74790561D01*
X119946634Y-74770462D01*
X120016260Y-74730264D01*
X120101533Y-74644991D01*
X120111428Y-74627851D01*
X120128205Y-74598795D01*
X120135309Y-74593344D01*
X120138337Y-74592945D01*
X120454213Y-74592945D01*
X120462486Y-74596372D01*
X122016134Y-76150020D01*
X122019561Y-76158293D01*
X122019162Y-76161321D01*
X122005357Y-76212844D01*
X122005357Y-76333443D01*
X122036567Y-76449925D01*
X122036569Y-76449929D01*
X122096864Y-76554362D01*
X122096868Y-76554367D01*
X122159281Y-76616780D01*
X122162708Y-76625053D01*
X122159281Y-76633326D01*
X122151008Y-76636753D01*
X118738693Y-76636753D01*
X118730420Y-76633326D01*
X117564329Y-75467235D01*
X117560902Y-75458962D01*
X117561300Y-75455938D01*
X117575108Y-75404410D01*
X117575108Y-75283816D01*
X117566471Y-75251582D01*
X117543897Y-75167331D01*
X117543895Y-75167327D01*
X117483600Y-75062894D01*
X117483596Y-75062889D01*
X117398326Y-74977619D01*
X117398321Y-74977615D01*
X117293888Y-74917320D01*
X117293884Y-74917318D01*
X117177402Y-74886108D01*
X117177400Y-74886108D01*
X117164035Y-74886108D01*
X117155762Y-74882681D01*
X117152335Y-74874408D01*
X117155762Y-74866135D01*
X117561847Y-74460050D01*
X117561848Y-74460049D01*
X117596738Y-74375817D01*
X117596738Y-74284645D01*
X117596738Y-72001358D01*
X117561848Y-71917126D01*
X117549716Y-71904994D01*
X117546289Y-71896721D01*
X117546687Y-71893697D01*
X117556781Y-71856027D01*
X117560495Y-71842170D01*
X117560495Y-71721574D01*
X117560494Y-71721572D01*
X117555086Y-71701390D01*
X117549974Y-71682308D01*
X117529284Y-71605090D01*
X117529282Y-71605086D01*
X117468987Y-71500653D01*
X117468983Y-71500648D01*
X117383713Y-71415378D01*
X117383708Y-71415374D01*
X117279275Y-71355079D01*
X117279271Y-71355077D01*
X117162789Y-71323867D01*
X117162787Y-71323867D01*
X117042193Y-71323867D01*
X117042190Y-71323867D01*
X116925708Y-71355077D01*
X116925704Y-71355079D01*
X116821271Y-71415374D01*
X116821266Y-71415378D01*
X116735996Y-71500648D01*
X116735992Y-71500653D01*
X116675697Y-71605086D01*
X116675695Y-71605090D01*
X116644485Y-71721572D01*
X116644485Y-71842171D01*
X116675695Y-71958653D01*
X116675697Y-71958657D01*
X116735992Y-72063090D01*
X116735994Y-72063093D01*
X116735995Y-72063094D01*
X116821268Y-72148367D01*
X116821269Y-72148368D01*
X116821271Y-72148369D01*
X116925704Y-72208664D01*
X116925708Y-72208666D01*
X117002491Y-72229239D01*
X117042190Y-72239876D01*
X117042192Y-72239877D01*
X117042193Y-72239877D01*
X117126686Y-72239877D01*
X117134959Y-72243304D01*
X117138386Y-72251577D01*
X117138386Y-72880718D01*
X117134959Y-72888991D01*
X117126686Y-72892418D01*
X117118413Y-72888991D01*
X117076251Y-72846829D01*
X117076246Y-72846825D01*
X116971813Y-72786530D01*
X116971809Y-72786528D01*
X116855327Y-72755318D01*
X116855325Y-72755318D01*
X116734731Y-72755318D01*
X116734728Y-72755318D01*
X116618246Y-72786528D01*
X116618242Y-72786530D01*
X116513809Y-72846825D01*
X116513804Y-72846829D01*
X116428534Y-72932099D01*
X116428530Y-72932104D01*
X116368235Y-73036537D01*
X116368233Y-73036541D01*
X116337023Y-73153023D01*
X116337023Y-73273622D01*
X116350828Y-73325144D01*
X116349659Y-73334022D01*
X116347800Y-73336445D01*
X116137465Y-73546782D01*
X116072996Y-73611251D01*
X116038107Y-73695479D01*
X114311710Y-73695479D01*
X114311710Y-58406148D01*
X120547100Y-58406148D01*
X120547100Y-58593851D01*
X120583719Y-58777951D01*
X120655550Y-58951366D01*
X120655554Y-58951374D01*
X120759833Y-59107438D01*
X120759836Y-59107442D01*
X120892557Y-59240163D01*
X120892561Y-59240166D01*
X121048625Y-59344445D01*
X121048629Y-59344447D01*
X121048632Y-59344449D01*
X121222049Y-59416281D01*
X121261407Y-59424109D01*
X121268852Y-59429082D01*
X121270824Y-59435583D01*
X121270824Y-69870339D01*
X121305713Y-69954567D01*
X121305715Y-69954570D01*
X127437741Y-76086596D01*
X127441168Y-76094869D01*
X127440769Y-76097897D01*
X127426964Y-76149420D01*
X127426964Y-76270019D01*
X127458174Y-76386501D01*
X127458176Y-76386505D01*
X127518471Y-76490938D01*
X127518473Y-76490941D01*
X127518474Y-76490942D01*
X127603747Y-76576215D01*
X127603748Y-76576216D01*
X127603750Y-76576217D01*
X127708183Y-76636512D01*
X127708187Y-76636514D01*
X127800052Y-76661128D01*
X127824669Y-76667724D01*
X127824671Y-76667725D01*
X127824672Y-76667725D01*
X127945267Y-76667725D01*
X127945267Y-76667724D01*
X128003509Y-76652119D01*
X128061750Y-76636514D01*
X128061754Y-76636512D01*
X128096565Y-76616413D01*
X128166191Y-76576215D01*
X128251464Y-76490942D01*
X128311762Y-76386503D01*
X128313654Y-76379445D01*
X128342973Y-76270019D01*
X128342974Y-76270018D01*
X128342974Y-76149422D01*
X128342973Y-76149420D01*
X128311763Y-76032938D01*
X128311761Y-76032934D01*
X128251466Y-75928501D01*
X128251462Y-75928496D01*
X128166192Y-75843226D01*
X128166187Y-75843222D01*
X128061754Y-75782927D01*
X128061750Y-75782925D01*
X127945268Y-75751715D01*
X127945266Y-75751715D01*
X127824672Y-75751715D01*
X127824669Y-75751715D01*
X127773146Y-75765520D01*
X127764268Y-75764351D01*
X127761845Y-75762492D01*
X121732603Y-69733250D01*
X121729176Y-69724977D01*
X121729176Y-62594943D01*
X122052100Y-62594943D01*
X122052100Y-64125056D01*
X122060971Y-64169657D01*
X122060972Y-64169658D01*
X122094766Y-64220234D01*
X122145342Y-64254028D01*
X122189943Y-64262900D01*
X123270056Y-64262899D01*
X123314658Y-64254028D01*
X123365234Y-64220234D01*
X123399028Y-64169658D01*
X123407900Y-64125057D01*
X123407899Y-63062536D01*
X123449600Y-63062536D01*
X123449600Y-63283800D01*
X123632189Y-63283800D01*
X123625000Y-63310630D01*
X123625000Y-63409370D01*
X123632189Y-63436200D01*
X123449600Y-63436200D01*
X123449600Y-63657463D01*
X123487107Y-63797444D01*
X123487109Y-63797448D01*
X123559568Y-63922949D01*
X123559572Y-63922954D01*
X123662045Y-64025427D01*
X123662050Y-64025431D01*
X123787551Y-64097890D01*
X123787555Y-64097892D01*
X123923799Y-64134398D01*
X123923800Y-64134398D01*
X123923800Y-63727810D01*
X123950630Y-63735000D01*
X124049370Y-63735000D01*
X124076200Y-63727810D01*
X124076200Y-64134398D01*
X124212444Y-64097892D01*
X124212448Y-64097890D01*
X124337949Y-64025431D01*
X124337954Y-64025427D01*
X124440427Y-63922954D01*
X124440431Y-63922949D01*
X124512890Y-63797448D01*
X124512892Y-63797444D01*
X124550399Y-63657463D01*
X124550400Y-63657462D01*
X124550400Y-63436200D01*
X124367811Y-63436200D01*
X124375000Y-63409370D01*
X124375000Y-63310630D01*
X124367811Y-63283800D01*
X124550400Y-63283800D01*
X124550400Y-63062538D01*
X124550399Y-63062536D01*
X124719600Y-63062536D01*
X124719600Y-63283800D01*
X124902189Y-63283800D01*
X124895000Y-63310630D01*
X124895000Y-63409370D01*
X124902189Y-63436200D01*
X124719600Y-63436200D01*
X124719600Y-63657463D01*
X124757107Y-63797444D01*
X124757109Y-63797448D01*
X124829568Y-63922949D01*
X124829572Y-63922954D01*
X124932045Y-64025427D01*
X124932050Y-64025431D01*
X125057551Y-64097890D01*
X125057555Y-64097892D01*
X125193799Y-64134398D01*
X125193800Y-64134398D01*
X125193800Y-63727810D01*
X125220630Y-63735000D01*
X125319370Y-63735000D01*
X125346200Y-63727810D01*
X125346200Y-64134398D01*
X125482444Y-64097892D01*
X125482448Y-64097890D01*
X125607949Y-64025431D01*
X125607954Y-64025427D01*
X125710427Y-63922954D01*
X125710431Y-63922949D01*
X125782890Y-63797448D01*
X125782892Y-63797444D01*
X125820399Y-63657463D01*
X125820400Y-63657462D01*
X125820400Y-63436200D01*
X125637811Y-63436200D01*
X125645000Y-63409370D01*
X125645000Y-63310630D01*
X125637811Y-63283800D01*
X125820400Y-63283800D01*
X125820400Y-63062538D01*
X125820399Y-63062536D01*
X125782892Y-62922555D01*
X125782890Y-62922551D01*
X125710431Y-62797050D01*
X125710427Y-62797045D01*
X125607954Y-62694572D01*
X125607949Y-62694568D01*
X125482448Y-62622109D01*
X125482444Y-62622107D01*
X125346200Y-62585600D01*
X125346200Y-62992189D01*
X125319370Y-62985000D01*
X125220630Y-62985000D01*
X125193800Y-62992189D01*
X125193800Y-62585600D01*
X125193799Y-62585600D01*
X125057555Y-62622107D01*
X125057551Y-62622109D01*
X124932050Y-62694568D01*
X124932045Y-62694572D01*
X124829572Y-62797045D01*
X124829568Y-62797050D01*
X124757109Y-62922551D01*
X124757107Y-62922555D01*
X124719600Y-63062536D01*
X124550399Y-63062536D01*
X124512892Y-62922555D01*
X124512890Y-62922551D01*
X124440431Y-62797050D01*
X124440427Y-62797045D01*
X124337954Y-62694572D01*
X124337949Y-62694568D01*
X124212448Y-62622109D01*
X124212444Y-62622107D01*
X124076200Y-62585600D01*
X124076200Y-62992189D01*
X124049370Y-62985000D01*
X123950630Y-62985000D01*
X123923800Y-62992189D01*
X123923800Y-62585600D01*
X123923799Y-62585600D01*
X123787555Y-62622107D01*
X123787551Y-62622109D01*
X123662050Y-62694568D01*
X123662045Y-62694572D01*
X123559572Y-62797045D01*
X123559568Y-62797050D01*
X123487109Y-62922551D01*
X123487107Y-62922555D01*
X123449600Y-63062536D01*
X123407899Y-63062536D01*
X123407899Y-62594944D01*
X123399028Y-62550342D01*
X123365234Y-62499766D01*
X123314658Y-62465972D01*
X123270057Y-62457100D01*
X123270056Y-62457100D01*
X122189943Y-62457100D01*
X122145342Y-62465971D01*
X122145341Y-62465972D01*
X122094766Y-62499765D01*
X122094765Y-62499766D01*
X122060972Y-62550341D01*
X122052100Y-62594943D01*
X121729176Y-62594943D01*
X121729176Y-59435583D01*
X121732603Y-59427310D01*
X121738591Y-59424109D01*
X121777951Y-59416281D01*
X121951368Y-59344449D01*
X122107439Y-59240166D01*
X122240166Y-59107439D01*
X122344449Y-58951368D01*
X122416281Y-58777951D01*
X122452900Y-58593852D01*
X122452900Y-58406148D01*
X122416281Y-58222049D01*
X122344449Y-58048632D01*
X122344447Y-58048629D01*
X122344445Y-58048625D01*
X122240166Y-57892561D01*
X122240163Y-57892557D01*
X122107442Y-57759836D01*
X122107438Y-57759833D01*
X121951374Y-57655554D01*
X121951366Y-57655550D01*
X121777951Y-57583719D01*
X121593852Y-57547100D01*
X121406148Y-57547100D01*
X121314098Y-57565409D01*
X121222048Y-57583719D01*
X121048633Y-57655550D01*
X121048625Y-57655554D01*
X120892561Y-57759833D01*
X120892557Y-57759836D01*
X120759836Y-57892557D01*
X120759833Y-57892561D01*
X120655554Y-58048625D01*
X120655550Y-58048633D01*
X120583719Y-58222048D01*
X120547100Y-58406148D01*
X114311710Y-58406148D01*
X114311710Y-53906148D01*
X120547100Y-53906148D01*
X120547100Y-54093852D01*
X120570032Y-54209142D01*
X120583719Y-54277951D01*
X120655550Y-54451366D01*
X120655554Y-54451374D01*
X120759833Y-54607438D01*
X120759836Y-54607442D01*
X120892557Y-54740163D01*
X120892561Y-54740166D01*
X121048625Y-54844445D01*
X121048629Y-54844447D01*
X121048632Y-54844449D01*
X121222049Y-54916281D01*
X121261407Y-54924109D01*
X121268852Y-54929082D01*
X121270824Y-54935583D01*
X121270824Y-55289891D01*
X121305713Y-55374119D01*
X121305714Y-55374121D01*
X126845731Y-60914137D01*
X126849158Y-60922410D01*
X126849158Y-67029684D01*
X126845731Y-67037957D01*
X126843308Y-67039816D01*
X126797115Y-67066485D01*
X126797110Y-67066489D01*
X126711840Y-67151759D01*
X126711836Y-67151764D01*
X126651541Y-67256197D01*
X126651539Y-67256201D01*
X126620329Y-67372683D01*
X126620329Y-67493282D01*
X126651539Y-67609764D01*
X126651541Y-67609768D01*
X126711836Y-67714201D01*
X126711838Y-67714204D01*
X126711839Y-67714205D01*
X126797112Y-67799478D01*
X126797113Y-67799479D01*
X126797115Y-67799480D01*
X126901548Y-67859775D01*
X126901552Y-67859777D01*
X126993417Y-67884391D01*
X127018034Y-67890987D01*
X127018036Y-67890988D01*
X127018037Y-67890988D01*
X127138632Y-67890988D01*
X127138632Y-67890987D01*
X127196874Y-67875382D01*
X127255115Y-67859777D01*
X127255119Y-67859775D01*
X127323872Y-67820080D01*
X127359556Y-67799478D01*
X127444829Y-67714205D01*
X127505127Y-67609766D01*
X127509392Y-67593851D01*
X127520733Y-67551523D01*
X127536339Y-67493280D01*
X127536339Y-67372686D01*
X127521370Y-67316820D01*
X127505128Y-67256201D01*
X127505126Y-67256197D01*
X127444831Y-67151764D01*
X127444827Y-67151759D01*
X127359557Y-67066489D01*
X127359552Y-67066485D01*
X127313360Y-67039816D01*
X127307909Y-67032712D01*
X127307510Y-67029684D01*
X127307510Y-61158149D01*
X127310937Y-61149876D01*
X127319210Y-61146449D01*
X127327483Y-61149876D01*
X129985033Y-63807426D01*
X130038148Y-63829427D01*
X130069262Y-63842315D01*
X130069263Y-63842315D01*
X130069265Y-63842316D01*
X130160437Y-63842316D01*
X147969151Y-63842316D01*
X147977424Y-63845743D01*
X154988386Y-70856705D01*
X155041501Y-70878706D01*
X155072615Y-70891594D01*
X155072616Y-70891594D01*
X155072618Y-70891595D01*
X155163790Y-70891595D01*
X159028234Y-70891595D01*
X159036507Y-70895022D01*
X163228637Y-75087152D01*
X163232064Y-75095425D01*
X163228637Y-75103698D01*
X163220364Y-75107125D01*
X157344678Y-75107125D01*
X157336405Y-75103698D01*
X154646553Y-72413846D01*
X154638855Y-72406148D01*
X155797100Y-72406148D01*
X155797100Y-72593851D01*
X155833719Y-72777951D01*
X155905550Y-72951366D01*
X155905554Y-72951374D01*
X156009833Y-73107438D01*
X156009836Y-73107442D01*
X156142557Y-73240163D01*
X156142561Y-73240166D01*
X156298625Y-73344445D01*
X156298629Y-73344447D01*
X156298632Y-73344449D01*
X156472049Y-73416281D01*
X156656148Y-73452900D01*
X156656149Y-73452900D01*
X156843851Y-73452900D01*
X156843852Y-73452900D01*
X157027951Y-73416281D01*
X157201368Y-73344449D01*
X157357439Y-73240166D01*
X157490166Y-73107439D01*
X157594449Y-72951368D01*
X157666281Y-72777951D01*
X157702900Y-72593852D01*
X157702900Y-72406148D01*
X157666281Y-72222049D01*
X157594449Y-72048632D01*
X157594447Y-72048629D01*
X157594445Y-72048625D01*
X157490166Y-71892561D01*
X157490163Y-71892557D01*
X157357442Y-71759836D01*
X157357438Y-71759833D01*
X157201374Y-71655554D01*
X157201366Y-71655550D01*
X157027951Y-71583719D01*
X156843852Y-71547100D01*
X156656148Y-71547100D01*
X156581023Y-71562043D01*
X156472048Y-71583719D01*
X156298633Y-71655550D01*
X156298625Y-71655554D01*
X156142561Y-71759833D01*
X156142557Y-71759836D01*
X156009836Y-71892557D01*
X156009833Y-71892561D01*
X155905554Y-72048625D01*
X155905550Y-72048633D01*
X155833719Y-72222048D01*
X155797100Y-72406148D01*
X154638855Y-72406148D01*
X148538421Y-66305715D01*
X148538420Y-66305714D01*
X148538418Y-66305713D01*
X148454190Y-66270824D01*
X148454188Y-66270824D01*
X142789889Y-66270824D01*
X142435585Y-66270824D01*
X142427312Y-66267397D01*
X142424110Y-66261407D01*
X142419565Y-66238560D01*
X142416281Y-66222049D01*
X142344449Y-66048632D01*
X142344447Y-66048629D01*
X142344445Y-66048625D01*
X142240166Y-65892561D01*
X142240163Y-65892557D01*
X142107442Y-65759836D01*
X142107438Y-65759833D01*
X141951374Y-65655554D01*
X141951366Y-65655550D01*
X141777951Y-65583719D01*
X141593852Y-65547100D01*
X141406148Y-65547100D01*
X141314098Y-65565409D01*
X141222048Y-65583719D01*
X141048633Y-65655550D01*
X141048625Y-65655554D01*
X140892561Y-65759833D01*
X140892557Y-65759836D01*
X140759836Y-65892557D01*
X140759833Y-65892561D01*
X140655554Y-66048625D01*
X140655550Y-66048633D01*
X140583719Y-66222048D01*
X140575890Y-66261407D01*
X140570915Y-66268852D01*
X140564415Y-66270824D01*
X140355471Y-66270824D01*
X140347198Y-66267397D01*
X139327357Y-65247556D01*
X139327356Y-65247555D01*
X139327354Y-65247554D01*
X139243126Y-65212665D01*
X139243124Y-65212665D01*
X129755093Y-65212665D01*
X129663921Y-65212665D01*
X129663918Y-65212665D01*
X129579690Y-65247554D01*
X128138807Y-66688437D01*
X128103918Y-66772665D01*
X128103918Y-73233014D01*
X128100491Y-73241287D01*
X128098068Y-73243146D01*
X128051875Y-73269815D01*
X128051870Y-73269819D01*
X127966600Y-73355089D01*
X127966596Y-73355094D01*
X127906301Y-73459527D01*
X127906299Y-73459531D01*
X127875089Y-73576013D01*
X127875089Y-73696612D01*
X127906299Y-73813094D01*
X127906301Y-73813098D01*
X127966596Y-73917531D01*
X127966598Y-73917534D01*
X127966599Y-73917535D01*
X128051872Y-74002808D01*
X128051873Y-74002809D01*
X128051875Y-74002810D01*
X128156308Y-74063105D01*
X128156312Y-74063107D01*
X128248177Y-74087721D01*
X128272794Y-74094317D01*
X128272796Y-74094318D01*
X128272797Y-74094318D01*
X128393392Y-74094318D01*
X128393392Y-74094317D01*
X128451634Y-74078712D01*
X128509875Y-74063107D01*
X128509879Y-74063105D01*
X128544690Y-74043006D01*
X128614316Y-74002808D01*
X128699589Y-73917535D01*
X128759887Y-73813096D01*
X128766106Y-73789889D01*
X128791098Y-73696612D01*
X128791099Y-73696611D01*
X128791099Y-73576015D01*
X128791098Y-73576013D01*
X128759888Y-73459531D01*
X128759886Y-73459527D01*
X128699591Y-73355094D01*
X128699587Y-73355089D01*
X128614317Y-73269819D01*
X128614312Y-73269815D01*
X128568120Y-73243146D01*
X128562669Y-73236042D01*
X128562270Y-73233014D01*
X128562270Y-71888291D01*
X131571988Y-71888291D01*
X131571988Y-73051708D01*
X131586930Y-73146053D01*
X131586930Y-73146054D01*
X131586931Y-73146055D01*
X131644872Y-73259771D01*
X131735117Y-73350016D01*
X131848833Y-73407957D01*
X131865590Y-73410611D01*
X131943179Y-73422900D01*
X131943180Y-73422900D01*
X133106596Y-73422900D01*
X133200943Y-73407957D01*
X133314659Y-73350016D01*
X133404904Y-73259771D01*
X133462845Y-73146055D01*
X133466274Y-73124408D01*
X133470005Y-73100851D01*
X133477788Y-73051708D01*
X133477788Y-71888291D01*
X133467597Y-71823946D01*
X133462845Y-71793945D01*
X133404904Y-71680229D01*
X133314659Y-71589984D01*
X133200943Y-71532043D01*
X133200942Y-71532042D01*
X133200941Y-71532042D01*
X133106597Y-71517100D01*
X133106596Y-71517100D01*
X131943180Y-71517100D01*
X131943179Y-71517100D01*
X131848834Y-71532042D01*
X131735116Y-71589984D01*
X131644872Y-71680228D01*
X131586930Y-71793946D01*
X131571988Y-71888291D01*
X128562270Y-71888291D01*
X128562270Y-66918028D01*
X128565697Y-66909755D01*
X129236892Y-66238560D01*
X129245165Y-66235133D01*
X129253438Y-66238560D01*
X129256865Y-66246833D01*
X129256865Y-66335118D01*
X129288075Y-66451600D01*
X129288077Y-66451604D01*
X129348372Y-66556037D01*
X129348374Y-66556040D01*
X129348375Y-66556041D01*
X129433648Y-66641314D01*
X129433649Y-66641315D01*
X129433651Y-66641316D01*
X129538084Y-66701611D01*
X129538088Y-66701613D01*
X129629953Y-66726227D01*
X129654570Y-66732823D01*
X129654572Y-66732824D01*
X129654573Y-66732824D01*
X129717631Y-66732824D01*
X129725903Y-66736250D01*
X131262762Y-68273110D01*
X131262763Y-68273111D01*
X131327231Y-68337579D01*
X131343817Y-68344449D01*
X131411460Y-68372468D01*
X131411461Y-68372468D01*
X131411463Y-68372469D01*
X131524241Y-68372469D01*
X131532514Y-68375896D01*
X134838926Y-71682308D01*
X134842353Y-71690581D01*
X134838926Y-71698854D01*
X134830653Y-71702281D01*
X134826176Y-71701390D01*
X134765648Y-71676319D01*
X134606182Y-71644600D01*
X134443594Y-71644600D01*
X134284127Y-71676319D01*
X134133915Y-71738539D01*
X134133907Y-71738543D01*
X133998729Y-71828867D01*
X133998724Y-71828871D01*
X133995123Y-71832471D01*
X134300387Y-72137735D01*
X134279282Y-72149920D01*
X134204808Y-72224394D01*
X134192623Y-72245498D01*
X133887360Y-71940235D01*
X133887359Y-71940235D01*
X133883759Y-71943836D01*
X133883755Y-71943841D01*
X133793431Y-72079019D01*
X133793427Y-72079027D01*
X133731207Y-72229239D01*
X133699488Y-72388705D01*
X133699488Y-72551294D01*
X133731207Y-72710760D01*
X133793427Y-72860972D01*
X133793431Y-72860980D01*
X133883756Y-72996160D01*
X133887360Y-72999763D01*
X134192622Y-72694500D01*
X134204808Y-72715606D01*
X134279282Y-72790080D01*
X134300385Y-72802264D01*
X133995123Y-73107526D01*
X133998727Y-73111131D01*
X134133907Y-73201456D01*
X134133915Y-73201460D01*
X134284127Y-73263680D01*
X134443594Y-73295400D01*
X134606182Y-73295400D01*
X134765648Y-73263680D01*
X134915860Y-73201460D01*
X134915868Y-73201456D01*
X135051050Y-73111130D01*
X135051052Y-73111128D01*
X135054652Y-73107527D01*
X135054652Y-73107526D01*
X134749389Y-72802264D01*
X134770494Y-72790080D01*
X134844968Y-72715606D01*
X134857152Y-72694501D01*
X135162414Y-72999764D01*
X135162415Y-72999764D01*
X135166016Y-72996164D01*
X135166018Y-72996162D01*
X135256344Y-72860980D01*
X135256348Y-72860972D01*
X135318568Y-72710760D01*
X135350288Y-72551294D01*
X135350288Y-72388705D01*
X135318569Y-72229241D01*
X135293496Y-72168711D01*
X135293496Y-72159756D01*
X135299827Y-72153424D01*
X135308782Y-72153424D01*
X135312578Y-72155960D01*
X138545289Y-75388671D01*
X138548716Y-75396944D01*
X138548716Y-77747930D01*
X138583605Y-77832158D01*
X138583606Y-77832160D01*
X143501130Y-82749684D01*
X143565598Y-82814152D01*
X143618713Y-82836153D01*
X143649827Y-82849041D01*
X143649828Y-82849041D01*
X143649830Y-82849042D01*
X145520092Y-82849042D01*
X145528365Y-82852469D01*
X145676389Y-83000493D01*
X145679816Y-83008766D01*
X145677844Y-83015266D01*
X145655554Y-83048625D01*
X145655550Y-83048633D01*
X145583719Y-83222048D01*
X145547100Y-83406148D01*
X145547100Y-83593851D01*
X145583719Y-83777951D01*
X145655550Y-83951366D01*
X145655554Y-83951374D01*
X145759833Y-84107438D01*
X145759836Y-84107442D01*
X145892557Y-84240163D01*
X145892561Y-84240166D01*
X146048625Y-84344445D01*
X146048629Y-84344447D01*
X146048632Y-84344449D01*
X146222049Y-84416281D01*
X146406148Y-84452900D01*
X146406149Y-84452900D01*
X146593851Y-84452900D01*
X146593852Y-84452900D01*
X146777951Y-84416281D01*
X146951368Y-84344449D01*
X147107439Y-84240166D01*
X147240166Y-84107439D01*
X147344449Y-83951368D01*
X147416281Y-83777951D01*
X147452900Y-83593852D01*
X147452900Y-83406148D01*
X147416281Y-83222049D01*
X147410661Y-83208480D01*
X150124600Y-83208480D01*
X150124600Y-83371069D01*
X150156319Y-83530535D01*
X150218539Y-83680747D01*
X150218543Y-83680755D01*
X150308868Y-83815935D01*
X150312472Y-83819538D01*
X150617734Y-83514275D01*
X150629920Y-83535381D01*
X150704394Y-83609855D01*
X150725497Y-83622039D01*
X150420235Y-83927301D01*
X150423839Y-83930906D01*
X150559019Y-84021231D01*
X150559027Y-84021235D01*
X150709239Y-84083455D01*
X150868706Y-84115175D01*
X151031294Y-84115175D01*
X151190760Y-84083455D01*
X151340972Y-84021235D01*
X151340980Y-84021231D01*
X151476162Y-83930905D01*
X151476164Y-83930903D01*
X151479764Y-83927302D01*
X151479764Y-83927301D01*
X151174501Y-83622039D01*
X151195606Y-83609855D01*
X151270080Y-83535381D01*
X151282264Y-83514276D01*
X151587526Y-83819539D01*
X151587527Y-83819539D01*
X151591128Y-83815939D01*
X151591130Y-83815937D01*
X151681456Y-83680755D01*
X151681460Y-83680747D01*
X151743680Y-83530535D01*
X151775400Y-83371069D01*
X151775400Y-83208480D01*
X151743680Y-83049014D01*
X151681460Y-82898802D01*
X151681456Y-82898794D01*
X151591131Y-82763614D01*
X151587526Y-82760010D01*
X151282264Y-83065272D01*
X151270080Y-83044169D01*
X151195606Y-82969695D01*
X151174500Y-82957509D01*
X151479763Y-82652247D01*
X151476160Y-82648643D01*
X151340980Y-82558318D01*
X151340972Y-82558314D01*
X151190760Y-82496094D01*
X151031294Y-82464375D01*
X150868706Y-82464375D01*
X150709239Y-82496094D01*
X150559027Y-82558314D01*
X150559019Y-82558318D01*
X150423841Y-82648642D01*
X150423836Y-82648646D01*
X150420235Y-82652246D01*
X150725498Y-82957510D01*
X150704394Y-82969695D01*
X150629920Y-83044169D01*
X150617735Y-83065273D01*
X150312472Y-82760010D01*
X150312471Y-82760010D01*
X150308871Y-82763611D01*
X150308867Y-82763616D01*
X150218543Y-82898794D01*
X150218539Y-82898802D01*
X150156319Y-83049014D01*
X150124600Y-83208480D01*
X147410661Y-83208480D01*
X147344449Y-83048632D01*
X147344447Y-83048629D01*
X147344445Y-83048625D01*
X147240166Y-82892561D01*
X147240163Y-82892557D01*
X147107442Y-82759836D01*
X147107438Y-82759833D01*
X146953728Y-82657127D01*
X146951372Y-82655553D01*
X146951366Y-82655550D01*
X146777951Y-82583719D01*
X146593852Y-82547100D01*
X146406148Y-82547100D01*
X146314098Y-82565409D01*
X146222048Y-82583719D01*
X146048633Y-82655550D01*
X146048625Y-82655554D01*
X146015266Y-82677844D01*
X146006483Y-82679591D01*
X146000493Y-82676389D01*
X145749685Y-82425581D01*
X145749684Y-82425580D01*
X145745387Y-82423800D01*
X145665454Y-82390690D01*
X145665452Y-82390690D01*
X143795190Y-82390690D01*
X143786917Y-82387263D01*
X142503858Y-81104204D01*
X142500431Y-81095931D01*
X142503858Y-81087658D01*
X142512131Y-81084231D01*
X142522978Y-81084231D01*
X142522978Y-81084230D01*
X142581220Y-81068625D01*
X142639461Y-81053020D01*
X142639465Y-81053018D01*
X142674276Y-81032919D01*
X142743902Y-80992721D01*
X142829175Y-80907448D01*
X142880661Y-80818272D01*
X142889472Y-80803011D01*
X142889474Y-80803007D01*
X142920684Y-80686525D01*
X142920685Y-80686524D01*
X142920685Y-80565928D01*
X142920684Y-80565926D01*
X142889474Y-80449444D01*
X142889472Y-80449440D01*
X142829177Y-80345007D01*
X142829173Y-80345002D01*
X142743903Y-80259732D01*
X142743898Y-80259728D01*
X142639465Y-80199433D01*
X142639461Y-80199431D01*
X142522979Y-80168221D01*
X142522977Y-80168221D01*
X142402383Y-80168221D01*
X142402380Y-80168221D01*
X142350857Y-80182026D01*
X142341979Y-80180857D01*
X142339556Y-80178998D01*
X141501159Y-79340601D01*
X141497732Y-79332328D01*
X141501159Y-79324055D01*
X141509432Y-79320628D01*
X141515932Y-79322600D01*
X141548625Y-79344445D01*
X141548629Y-79344447D01*
X141548632Y-79344449D01*
X141722049Y-79416281D01*
X141906148Y-79452900D01*
X141906149Y-79452900D01*
X142093851Y-79452900D01*
X142093852Y-79452900D01*
X142277951Y-79416281D01*
X142451368Y-79344449D01*
X142607439Y-79240166D01*
X142740166Y-79107439D01*
X142844449Y-78951368D01*
X142916281Y-78777951D01*
X142952900Y-78593852D01*
X142952900Y-78406148D01*
X142916281Y-78222049D01*
X142844449Y-78048632D01*
X142844447Y-78048629D01*
X142844445Y-78048625D01*
X142740166Y-77892561D01*
X142740163Y-77892557D01*
X142607442Y-77759836D01*
X142607438Y-77759833D01*
X142451374Y-77655554D01*
X142451366Y-77655550D01*
X142277951Y-77583719D01*
X142093852Y-77547100D01*
X141906148Y-77547100D01*
X141831023Y-77562043D01*
X141722048Y-77583719D01*
X141548633Y-77655550D01*
X141548625Y-77655554D01*
X141392561Y-77759833D01*
X141392557Y-77759836D01*
X141259836Y-77892557D01*
X141259833Y-77892561D01*
X141155554Y-78048625D01*
X141155550Y-78048633D01*
X141083719Y-78222048D01*
X141074699Y-78267397D01*
X141047100Y-78406148D01*
X141047100Y-78593852D01*
X141049867Y-78607763D01*
X141083719Y-78777951D01*
X141155550Y-78951366D01*
X141155554Y-78951374D01*
X141177399Y-78984067D01*
X141179146Y-78992850D01*
X141174171Y-79000295D01*
X141165388Y-79002042D01*
X141159398Y-78998840D01*
X140277103Y-78116545D01*
X140273676Y-78108272D01*
X140273676Y-73434600D01*
X140277103Y-73426327D01*
X140285376Y-73422900D01*
X140651484Y-73422900D01*
X140745831Y-73407957D01*
X140859547Y-73350016D01*
X140949792Y-73259771D01*
X141007733Y-73146055D01*
X141022676Y-73051708D01*
X141022676Y-72376148D01*
X141116876Y-72376148D01*
X141116876Y-72563852D01*
X141122843Y-72593851D01*
X141153495Y-72747951D01*
X141225326Y-72921366D01*
X141225330Y-72921374D01*
X141329609Y-73077438D01*
X141329612Y-73077442D01*
X141462333Y-73210163D01*
X141462337Y-73210166D01*
X141618401Y-73314445D01*
X141618405Y-73314447D01*
X141618408Y-73314449D01*
X141791825Y-73386281D01*
X141805907Y-73389082D01*
X141813352Y-73394055D01*
X141815324Y-73400556D01*
X141815324Y-73789891D01*
X141850213Y-73874119D01*
X141850215Y-73874122D01*
X144659869Y-76683776D01*
X144663296Y-76692049D01*
X144663296Y-80281174D01*
X144659869Y-80289447D01*
X144657446Y-80291306D01*
X144611253Y-80317975D01*
X144611248Y-80317979D01*
X144525978Y-80403249D01*
X144525974Y-80403254D01*
X144465679Y-80507687D01*
X144465677Y-80507691D01*
X144434467Y-80624173D01*
X144434467Y-80744772D01*
X144465677Y-80861254D01*
X144465679Y-80861258D01*
X144525974Y-80965691D01*
X144525976Y-80965694D01*
X144525977Y-80965695D01*
X144611250Y-81050968D01*
X144611251Y-81050969D01*
X144611253Y-81050970D01*
X144715686Y-81111265D01*
X144715690Y-81111267D01*
X144807555Y-81135881D01*
X144832172Y-81142477D01*
X144832174Y-81142478D01*
X144832175Y-81142478D01*
X144952770Y-81142478D01*
X144952770Y-81142477D01*
X145011012Y-81126872D01*
X145069253Y-81111267D01*
X145069257Y-81111265D01*
X145116083Y-81084230D01*
X145173694Y-81050968D01*
X145258967Y-80965695D01*
X145319265Y-80861256D01*
X145330783Y-80818272D01*
X145341049Y-80779955D01*
X145350477Y-80744770D01*
X145350477Y-80624176D01*
X145328585Y-80542472D01*
X145319266Y-80507691D01*
X145319264Y-80507687D01*
X145258969Y-80403254D01*
X145258965Y-80403249D01*
X145173695Y-80317979D01*
X145173690Y-80317975D01*
X145127498Y-80291306D01*
X145122047Y-80284202D01*
X145121648Y-80281174D01*
X145121648Y-78418705D01*
X145674600Y-78418705D01*
X145674600Y-78581294D01*
X145706319Y-78740760D01*
X145768539Y-78890972D01*
X145768543Y-78890980D01*
X145858868Y-79026160D01*
X145862472Y-79029763D01*
X146167734Y-78724500D01*
X146179920Y-78745606D01*
X146254394Y-78820080D01*
X146275497Y-78832264D01*
X145970235Y-79137526D01*
X145973839Y-79141131D01*
X146109019Y-79231456D01*
X146109027Y-79231460D01*
X146259239Y-79293680D01*
X146418706Y-79325400D01*
X146581294Y-79325400D01*
X146740760Y-79293680D01*
X146890972Y-79231460D01*
X146890980Y-79231456D01*
X147026162Y-79141130D01*
X147026164Y-79141128D01*
X147029764Y-79137527D01*
X147029764Y-79137526D01*
X146724501Y-78832264D01*
X146745606Y-78820080D01*
X146820080Y-78745606D01*
X146832264Y-78724501D01*
X147137526Y-79029764D01*
X147137527Y-79029764D01*
X147141128Y-79026164D01*
X147141130Y-79026162D01*
X147231456Y-78890980D01*
X147231460Y-78890972D01*
X147293680Y-78740760D01*
X147325400Y-78581294D01*
X147325400Y-78418705D01*
X147293680Y-78259239D01*
X147269070Y-78199825D01*
X147267454Y-78195923D01*
X149997100Y-78195923D01*
X149997100Y-78383627D01*
X150020248Y-78500000D01*
X150033719Y-78567726D01*
X150105550Y-78741141D01*
X150105554Y-78741149D01*
X150209833Y-78897213D01*
X150209836Y-78897217D01*
X150342557Y-79029938D01*
X150342561Y-79029941D01*
X150498625Y-79134220D01*
X150498629Y-79134222D01*
X150498632Y-79134224D01*
X150672049Y-79206056D01*
X150856148Y-79242675D01*
X150856149Y-79242675D01*
X151043851Y-79242675D01*
X151043852Y-79242675D01*
X151227951Y-79206056D01*
X151401368Y-79134224D01*
X151557439Y-79029941D01*
X151690166Y-78897214D01*
X151794449Y-78741143D01*
X151866281Y-78567726D01*
X151902900Y-78383627D01*
X151902900Y-78195923D01*
X151866281Y-78011824D01*
X151794449Y-77838407D01*
X151794447Y-77838404D01*
X151794445Y-77838400D01*
X151690166Y-77682336D01*
X151690163Y-77682332D01*
X151557442Y-77549611D01*
X151557438Y-77549608D01*
X151401374Y-77445329D01*
X151401366Y-77445325D01*
X151227951Y-77373494D01*
X151043852Y-77336875D01*
X150856148Y-77336875D01*
X150764098Y-77355184D01*
X150672048Y-77373494D01*
X150498633Y-77445325D01*
X150498625Y-77445329D01*
X150342561Y-77549608D01*
X150342557Y-77549611D01*
X150209836Y-77682332D01*
X150209833Y-77682336D01*
X150105554Y-77838400D01*
X150105550Y-77838408D01*
X150033719Y-78011823D01*
X150016180Y-78100000D01*
X149997100Y-78195923D01*
X147267454Y-78195923D01*
X147231460Y-78109027D01*
X147231456Y-78109019D01*
X147141131Y-77973839D01*
X147137526Y-77970235D01*
X146832264Y-78275497D01*
X146820080Y-78254394D01*
X146745606Y-78179920D01*
X146724500Y-78167734D01*
X147029764Y-77862472D01*
X147026160Y-77858868D01*
X146890980Y-77768543D01*
X146890972Y-77768539D01*
X146740760Y-77706319D01*
X146581294Y-77674600D01*
X146418706Y-77674600D01*
X146259239Y-77706319D01*
X146109027Y-77768539D01*
X146109019Y-77768543D01*
X145973841Y-77858867D01*
X145973836Y-77858871D01*
X145970235Y-77862471D01*
X146275498Y-78167735D01*
X146254394Y-78179920D01*
X146179920Y-78254394D01*
X146167735Y-78275498D01*
X145862472Y-77970235D01*
X145862471Y-77970235D01*
X145858871Y-77973836D01*
X145858867Y-77973841D01*
X145768543Y-78109019D01*
X145768539Y-78109027D01*
X145706319Y-78259239D01*
X145674600Y-78418705D01*
X145121648Y-78418705D01*
X145121648Y-76546691D01*
X145121647Y-76546687D01*
X145102325Y-76500040D01*
X145086758Y-76462458D01*
X145022290Y-76397990D01*
X142277103Y-73652802D01*
X142273676Y-73644529D01*
X142273676Y-73410611D01*
X142277103Y-73402338D01*
X142283091Y-73399137D01*
X142347727Y-73386281D01*
X142521144Y-73314449D01*
X142677215Y-73210166D01*
X142809942Y-73077439D01*
X142914225Y-72921368D01*
X142986057Y-72747951D01*
X143022676Y-72563852D01*
X143022676Y-72376148D01*
X142986057Y-72192049D01*
X142914225Y-72018632D01*
X142914223Y-72018629D01*
X142914221Y-72018625D01*
X142851216Y-71924332D01*
X142847180Y-71918291D01*
X146547100Y-71918291D01*
X146547100Y-73081708D01*
X146562042Y-73176053D01*
X146562042Y-73176054D01*
X146562043Y-73176055D01*
X146619984Y-73289771D01*
X146710229Y-73380016D01*
X146823945Y-73437957D01*
X146871118Y-73445428D01*
X146918291Y-73452900D01*
X146918292Y-73452900D01*
X148081708Y-73452900D01*
X148176055Y-73437957D01*
X148289771Y-73380016D01*
X148380016Y-73289771D01*
X148437957Y-73176055D01*
X148442709Y-73146053D01*
X148445117Y-73130851D01*
X148452900Y-73081708D01*
X148452900Y-72418705D01*
X148674600Y-72418705D01*
X148674600Y-72581294D01*
X148706319Y-72740760D01*
X148768539Y-72890972D01*
X148768543Y-72890980D01*
X148858868Y-73026160D01*
X148862472Y-73029763D01*
X149167734Y-72724500D01*
X149179920Y-72745606D01*
X149254394Y-72820080D01*
X149275497Y-72832264D01*
X148970235Y-73137526D01*
X148973839Y-73141131D01*
X149109019Y-73231456D01*
X149109027Y-73231460D01*
X149259239Y-73293680D01*
X149418706Y-73325400D01*
X149581294Y-73325400D01*
X149740760Y-73293680D01*
X149890972Y-73231460D01*
X149890980Y-73231456D01*
X150026162Y-73141130D01*
X150026164Y-73141128D01*
X150029764Y-73137527D01*
X150029764Y-73137526D01*
X149724501Y-72832264D01*
X149745606Y-72820080D01*
X149820080Y-72745606D01*
X149832264Y-72724501D01*
X150137526Y-73029764D01*
X150137527Y-73029764D01*
X150141128Y-73026164D01*
X150141130Y-73026162D01*
X150231456Y-72890980D01*
X150231460Y-72890972D01*
X150293680Y-72740760D01*
X150325400Y-72581294D01*
X150325400Y-72418705D01*
X150293680Y-72259239D01*
X150231460Y-72109027D01*
X150231456Y-72109019D01*
X150141131Y-71973839D01*
X150137526Y-71970235D01*
X149832264Y-72275497D01*
X149820080Y-72254394D01*
X149745606Y-72179920D01*
X149724500Y-72167734D01*
X150029764Y-71862472D01*
X150026160Y-71858868D01*
X149890980Y-71768543D01*
X149890972Y-71768539D01*
X149740760Y-71706319D01*
X149581294Y-71674600D01*
X149418706Y-71674600D01*
X149259239Y-71706319D01*
X149109027Y-71768539D01*
X149109019Y-71768543D01*
X148973841Y-71858867D01*
X148973836Y-71858871D01*
X148970234Y-71862471D01*
X149275498Y-72167735D01*
X149254394Y-72179920D01*
X149179920Y-72254394D01*
X149167735Y-72275498D01*
X148862472Y-71970235D01*
X148862471Y-71970235D01*
X148858871Y-71973836D01*
X148858867Y-71973841D01*
X148768543Y-72109019D01*
X148768539Y-72109027D01*
X148706319Y-72259239D01*
X148674600Y-72418705D01*
X148452900Y-72418705D01*
X148452900Y-71918291D01*
X148444073Y-71862561D01*
X148437957Y-71823945D01*
X148380016Y-71710229D01*
X148289771Y-71619984D01*
X148176055Y-71562043D01*
X148176054Y-71562042D01*
X148176053Y-71562042D01*
X148081709Y-71547100D01*
X148081708Y-71547100D01*
X146918292Y-71547100D01*
X146918291Y-71547100D01*
X146823946Y-71562042D01*
X146710228Y-71619984D01*
X146619984Y-71710228D01*
X146562042Y-71823946D01*
X146547100Y-71918291D01*
X142847180Y-71918291D01*
X142809942Y-71862561D01*
X142809939Y-71862557D01*
X142677218Y-71729836D01*
X142677214Y-71729833D01*
X142521150Y-71625554D01*
X142521142Y-71625550D01*
X142347727Y-71553719D01*
X142163628Y-71517100D01*
X141975924Y-71517100D01*
X141900799Y-71532043D01*
X141791824Y-71553719D01*
X141618409Y-71625550D01*
X141618401Y-71625554D01*
X141462337Y-71729833D01*
X141462333Y-71729836D01*
X141329612Y-71862557D01*
X141329609Y-71862561D01*
X141225330Y-72018625D01*
X141225326Y-72018633D01*
X141153495Y-72192048D01*
X141143300Y-72243304D01*
X141116876Y-72376148D01*
X141022676Y-72376148D01*
X141022676Y-71888292D01*
X141007733Y-71793945D01*
X140949792Y-71680229D01*
X140859547Y-71589984D01*
X140745831Y-71532043D01*
X140745830Y-71532042D01*
X140745829Y-71532042D01*
X140651485Y-71517100D01*
X140651484Y-71517100D01*
X139488068Y-71517100D01*
X139488067Y-71517100D01*
X139393722Y-71532042D01*
X139280004Y-71589984D01*
X139189760Y-71680228D01*
X139131818Y-71793946D01*
X139116876Y-71888291D01*
X139116876Y-73051708D01*
X139131818Y-73146053D01*
X139131818Y-73146054D01*
X139131819Y-73146055D01*
X139189760Y-73259771D01*
X139280005Y-73350016D01*
X139393721Y-73407957D01*
X139410478Y-73410611D01*
X139488067Y-73422900D01*
X139488068Y-73422900D01*
X139803624Y-73422900D01*
X139811897Y-73426327D01*
X139815324Y-73434600D01*
X139815324Y-78253634D01*
X139850213Y-78337862D01*
X139850215Y-78337865D01*
X142015452Y-80503102D01*
X142018879Y-80511375D01*
X142018480Y-80514403D01*
X142004675Y-80565926D01*
X142004675Y-80576775D01*
X142001248Y-80585048D01*
X141992975Y-80588475D01*
X141984702Y-80585048D01*
X139010495Y-77610841D01*
X139007068Y-77602568D01*
X139007068Y-75251586D01*
X139007067Y-75251582D01*
X138972178Y-75167354D01*
X138972177Y-75167352D01*
X138907046Y-75102221D01*
X138907039Y-75102215D01*
X131753833Y-67949007D01*
X131753831Y-67949006D01*
X131669603Y-67914117D01*
X131669601Y-67914117D01*
X131556823Y-67914117D01*
X131548550Y-67910690D01*
X131079449Y-67441589D01*
X131076022Y-67433316D01*
X131079449Y-67425043D01*
X131087722Y-67421616D01*
X131089997Y-67421840D01*
X131246148Y-67452900D01*
X131246149Y-67452900D01*
X131433851Y-67452900D01*
X131433852Y-67452900D01*
X131617951Y-67416281D01*
X131791368Y-67344449D01*
X131824734Y-67322153D01*
X131833514Y-67320407D01*
X131839505Y-67323609D01*
X132025848Y-67509952D01*
X134919756Y-70403860D01*
X134984224Y-70468328D01*
X135037339Y-70490329D01*
X135068453Y-70503217D01*
X135068454Y-70503217D01*
X135068456Y-70503218D01*
X135111375Y-70503218D01*
X135119648Y-70506645D01*
X135121507Y-70509068D01*
X135148176Y-70555260D01*
X135148178Y-70555263D01*
X135148179Y-70555264D01*
X135233452Y-70640537D01*
X135233453Y-70640538D01*
X135233455Y-70640539D01*
X135337888Y-70700834D01*
X135337892Y-70700836D01*
X135429757Y-70725450D01*
X135454374Y-70732046D01*
X135454376Y-70732047D01*
X135454377Y-70732047D01*
X135574972Y-70732047D01*
X135574972Y-70732046D01*
X135633214Y-70716441D01*
X135691455Y-70700836D01*
X135691459Y-70700834D01*
X135726270Y-70680735D01*
X135795896Y-70640537D01*
X135881169Y-70555264D01*
X135941467Y-70450825D01*
X135947097Y-70429816D01*
X135972678Y-70334341D01*
X135972679Y-70334340D01*
X135972679Y-70226602D01*
X135976106Y-70218329D01*
X135984379Y-70214902D01*
X135988851Y-70215791D01*
X136051129Y-70241588D01*
X136142301Y-70241588D01*
X150656086Y-70241588D01*
X150664359Y-70245015D01*
X158104102Y-77684757D01*
X158156157Y-77706319D01*
X158188331Y-77719646D01*
X158188332Y-77719646D01*
X158188334Y-77719647D01*
X158279506Y-77719647D01*
X160234697Y-77719647D01*
X160242970Y-77723074D01*
X160309899Y-77790003D01*
X160313326Y-77798276D01*
X160311354Y-77804776D01*
X160288887Y-77838400D01*
X160288883Y-77838408D01*
X160217052Y-78011823D01*
X160199513Y-78100000D01*
X160180433Y-78195923D01*
X160180433Y-78383627D01*
X160203581Y-78500000D01*
X160217052Y-78567726D01*
X160288883Y-78741141D01*
X160288887Y-78741149D01*
X160393166Y-78897213D01*
X160393169Y-78897217D01*
X160525890Y-79029938D01*
X160525894Y-79029941D01*
X160681958Y-79134220D01*
X160681962Y-79134222D01*
X160681965Y-79134224D01*
X160855382Y-79206056D01*
X161039481Y-79242675D01*
X161039482Y-79242675D01*
X161227184Y-79242675D01*
X161227185Y-79242675D01*
X161411284Y-79206056D01*
X161584701Y-79134224D01*
X161618332Y-79111751D01*
X161627112Y-79110005D01*
X161633103Y-79113207D01*
X161819348Y-79299452D01*
X162789750Y-80269854D01*
X162833387Y-80287929D01*
X162873979Y-80304743D01*
X162873980Y-80304743D01*
X162873982Y-80304744D01*
X162965154Y-80304744D01*
X166612539Y-80304744D01*
X166620812Y-80308171D01*
X168715894Y-82403253D01*
X168719321Y-82411526D01*
X168715894Y-82419799D01*
X166305182Y-84830512D01*
X166240713Y-84894981D01*
X166205824Y-84979209D01*
X166205824Y-90085400D01*
X166202397Y-90093673D01*
X166194124Y-90097100D01*
X165403291Y-90097100D01*
X165308946Y-90112042D01*
X165195228Y-90169984D01*
X165104984Y-90260228D01*
X165047042Y-90373946D01*
X165032100Y-90468291D01*
X165032100Y-92531708D01*
X165047042Y-92626053D01*
X165047042Y-92626054D01*
X165047043Y-92626055D01*
X165104984Y-92739771D01*
X165195229Y-92830016D01*
X165308945Y-92887957D01*
X165356118Y-92895428D01*
X165403291Y-92902900D01*
X165403292Y-92902900D01*
X167466708Y-92902900D01*
X167561055Y-92887957D01*
X167674771Y-92830016D01*
X167765016Y-92739771D01*
X167822957Y-92626055D01*
X167837900Y-92531708D01*
X167837900Y-91389588D01*
X170032100Y-91389588D01*
X170032100Y-91610411D01*
X170066642Y-91828505D01*
X170066646Y-91828521D01*
X170134878Y-92038518D01*
X170134880Y-92038522D01*
X170134882Y-92038527D01*
X170220959Y-92207464D01*
X170235135Y-92235286D01*
X170364920Y-92413918D01*
X170364924Y-92413922D01*
X170364928Y-92413928D01*
X170521072Y-92570072D01*
X170521077Y-92570076D01*
X170521081Y-92570079D01*
X170699713Y-92699864D01*
X170699718Y-92699866D01*
X170699720Y-92699868D01*
X170896473Y-92800118D01*
X170896478Y-92800119D01*
X170896481Y-92800121D01*
X170988489Y-92830016D01*
X171106487Y-92868356D01*
X171195251Y-92882414D01*
X171324588Y-92902900D01*
X171324589Y-92902900D01*
X171545411Y-92902900D01*
X171763513Y-92868356D01*
X171973527Y-92800118D01*
X172170280Y-92699868D01*
X172173518Y-92697516D01*
X172309419Y-92598777D01*
X172348928Y-92570072D01*
X172505072Y-92413928D01*
X172601335Y-92281434D01*
X172634864Y-92235286D01*
X172634864Y-92235284D01*
X172634868Y-92235280D01*
X172735118Y-92038527D01*
X172739530Y-92024950D01*
X172778170Y-91906027D01*
X172803356Y-91828513D01*
X172837900Y-91610411D01*
X172837900Y-91389589D01*
X172803356Y-91171487D01*
X172788779Y-91126624D01*
X172735121Y-90961481D01*
X172735119Y-90961477D01*
X172735118Y-90961473D01*
X172634868Y-90764720D01*
X172634866Y-90764718D01*
X172634864Y-90764713D01*
X172505079Y-90586081D01*
X172505076Y-90586077D01*
X172505072Y-90586072D01*
X172387291Y-90468291D01*
X177314600Y-90468291D01*
X177314600Y-92531708D01*
X177329542Y-92626053D01*
X177329542Y-92626054D01*
X177329543Y-92626055D01*
X177387484Y-92739771D01*
X177477729Y-92830016D01*
X177591445Y-92887957D01*
X177638618Y-92895428D01*
X177685791Y-92902900D01*
X177685792Y-92902900D01*
X179749208Y-92902900D01*
X179843555Y-92887957D01*
X179957271Y-92830016D01*
X180047516Y-92739771D01*
X180105457Y-92626055D01*
X180120400Y-92531708D01*
X180120400Y-91740876D01*
X180123827Y-91732603D01*
X180132100Y-91729176D01*
X180453887Y-91729176D01*
X180453889Y-91729176D01*
X180538121Y-91694286D01*
X182032861Y-90199546D01*
X182041134Y-90196119D01*
X183137625Y-90196119D01*
X183145898Y-90199546D01*
X183149325Y-90207819D01*
X183145898Y-90216092D01*
X183142940Y-90218241D01*
X183097399Y-90241446D01*
X182982213Y-90300135D01*
X182803581Y-90429920D01*
X182803565Y-90429934D01*
X182647434Y-90586065D01*
X182647420Y-90586081D01*
X182517635Y-90764713D01*
X182417380Y-90961477D01*
X182417378Y-90961481D01*
X182349146Y-91171478D01*
X182349142Y-91171494D01*
X182314600Y-91389588D01*
X182314600Y-91610411D01*
X182349142Y-91828505D01*
X182349146Y-91828521D01*
X182417378Y-92038518D01*
X182417380Y-92038522D01*
X182417382Y-92038527D01*
X182503459Y-92207464D01*
X182517635Y-92235286D01*
X182647420Y-92413918D01*
X182647424Y-92413922D01*
X182647428Y-92413928D01*
X182803572Y-92570072D01*
X182803577Y-92570076D01*
X182803581Y-92570079D01*
X182982213Y-92699864D01*
X182982218Y-92699866D01*
X182982220Y-92699868D01*
X183178973Y-92800118D01*
X183178978Y-92800119D01*
X183178981Y-92800121D01*
X183270989Y-92830016D01*
X183388987Y-92868356D01*
X183477751Y-92882414D01*
X183607088Y-92902900D01*
X183607089Y-92902900D01*
X183827911Y-92902900D01*
X184046013Y-92868356D01*
X184256027Y-92800118D01*
X184452780Y-92699868D01*
X184456018Y-92697516D01*
X184591919Y-92598777D01*
X184631428Y-92570072D01*
X184787572Y-92413928D01*
X184883835Y-92281434D01*
X184917364Y-92235286D01*
X184917364Y-92235284D01*
X184917368Y-92235280D01*
X185017618Y-92038527D01*
X185022030Y-92024950D01*
X185060670Y-91906027D01*
X185085856Y-91828513D01*
X185120400Y-91610411D01*
X185120400Y-91389589D01*
X185085856Y-91171487D01*
X185071279Y-91126624D01*
X185017621Y-90961481D01*
X185017619Y-90961477D01*
X185017618Y-90961473D01*
X184917368Y-90764720D01*
X184917366Y-90764718D01*
X184917364Y-90764713D01*
X184787579Y-90586081D01*
X184787576Y-90586077D01*
X184787572Y-90586072D01*
X184631428Y-90429928D01*
X184631422Y-90429924D01*
X184631418Y-90429920D01*
X184452786Y-90300135D01*
X184374463Y-90260228D01*
X184292061Y-90218242D01*
X184286248Y-90211435D01*
X184286950Y-90202507D01*
X184293759Y-90196692D01*
X184297375Y-90196119D01*
X187846599Y-90196119D01*
X187854872Y-90199546D01*
X189217112Y-91561786D01*
X189270227Y-91583787D01*
X189301341Y-91596675D01*
X189301342Y-91596675D01*
X189301344Y-91596676D01*
X189392516Y-91596676D01*
X189585400Y-91596676D01*
X189593673Y-91600103D01*
X189597100Y-91608376D01*
X189597100Y-92399208D01*
X189612042Y-92493553D01*
X189612042Y-92493554D01*
X189612043Y-92493555D01*
X189669984Y-92607271D01*
X189760229Y-92697516D01*
X189873945Y-92755457D01*
X189921118Y-92762928D01*
X189968291Y-92770400D01*
X189968292Y-92770400D01*
X192031708Y-92770400D01*
X192126055Y-92755457D01*
X192239771Y-92697516D01*
X192330016Y-92607271D01*
X192387957Y-92493555D01*
X192402900Y-92399208D01*
X192402900Y-90335792D01*
X192401756Y-90328572D01*
X192387957Y-90241446D01*
X192387957Y-90241445D01*
X192330016Y-90127729D01*
X192239771Y-90037484D01*
X192126055Y-89979543D01*
X192126054Y-89979542D01*
X192126053Y-89979542D01*
X192031709Y-89964600D01*
X192031708Y-89964600D01*
X189968292Y-89964600D01*
X189968291Y-89964600D01*
X189873946Y-89979542D01*
X189760228Y-90037484D01*
X189669984Y-90127728D01*
X189612042Y-90241446D01*
X189597100Y-90335791D01*
X189597100Y-91126624D01*
X189593673Y-91134897D01*
X189585400Y-91138324D01*
X189446704Y-91138324D01*
X189438431Y-91134897D01*
X188076192Y-89772658D01*
X188076191Y-89772657D01*
X188076189Y-89772656D01*
X187991961Y-89737767D01*
X187991959Y-89737767D01*
X181986946Y-89737767D01*
X181895774Y-89737767D01*
X181895771Y-89737767D01*
X181811543Y-89772656D01*
X180316802Y-91267397D01*
X180308529Y-91270824D01*
X180132100Y-91270824D01*
X180123827Y-91267397D01*
X180120400Y-91259124D01*
X180120400Y-90468291D01*
X180105457Y-90373946D01*
X180105457Y-90373945D01*
X180047516Y-90260229D01*
X179957271Y-90169984D01*
X179843555Y-90112043D01*
X179843554Y-90112042D01*
X179843553Y-90112042D01*
X179749209Y-90097100D01*
X179749208Y-90097100D01*
X177685792Y-90097100D01*
X177685791Y-90097100D01*
X177591446Y-90112042D01*
X177477728Y-90169984D01*
X177387484Y-90260228D01*
X177329542Y-90373946D01*
X177314600Y-90468291D01*
X172387291Y-90468291D01*
X172348928Y-90429928D01*
X172348922Y-90429924D01*
X172348918Y-90429920D01*
X172170286Y-90300135D01*
X172055101Y-90241446D01*
X171973527Y-90199882D01*
X171973524Y-90199881D01*
X171973522Y-90199880D01*
X171973518Y-90199878D01*
X171763521Y-90131646D01*
X171763505Y-90131642D01*
X171545412Y-90097100D01*
X171545411Y-90097100D01*
X171324589Y-90097100D01*
X171324588Y-90097100D01*
X171106494Y-90131642D01*
X171106478Y-90131646D01*
X170896481Y-90199878D01*
X170896477Y-90199880D01*
X170699713Y-90300135D01*
X170521081Y-90429920D01*
X170521065Y-90429934D01*
X170364934Y-90586065D01*
X170364920Y-90586081D01*
X170235135Y-90764713D01*
X170134880Y-90961477D01*
X170134878Y-90961481D01*
X170066646Y-91171478D01*
X170066642Y-91171494D01*
X170032100Y-91389588D01*
X167837900Y-91389588D01*
X167837900Y-90468292D01*
X167835567Y-90453565D01*
X167822957Y-90373946D01*
X167822957Y-90373945D01*
X167765016Y-90260229D01*
X167674771Y-90169984D01*
X167561055Y-90112043D01*
X167561054Y-90112042D01*
X167561053Y-90112042D01*
X167466709Y-90097100D01*
X167466708Y-90097100D01*
X166675876Y-90097100D01*
X166667603Y-90093673D01*
X166664176Y-90085400D01*
X166664176Y-85124571D01*
X166667603Y-85116298D01*
X169244200Y-82539701D01*
X169244201Y-82539698D01*
X169330486Y-82453415D01*
X169338759Y-82449988D01*
X170819752Y-82449988D01*
X170828025Y-82453415D01*
X170831452Y-82461688D01*
X170828025Y-82469961D01*
X170826252Y-82471416D01*
X170709228Y-82549608D01*
X170709224Y-82549611D01*
X170576503Y-82682332D01*
X170576500Y-82682336D01*
X170472221Y-82838400D01*
X170472217Y-82838408D01*
X170400386Y-83011823D01*
X170374666Y-83141128D01*
X170363767Y-83195923D01*
X170363767Y-83383627D01*
X170391311Y-83522103D01*
X170400386Y-83567726D01*
X170472217Y-83741141D01*
X170472221Y-83741149D01*
X170576500Y-83897213D01*
X170576503Y-83897217D01*
X170709224Y-84029938D01*
X170709228Y-84029941D01*
X170865292Y-84134220D01*
X170865296Y-84134222D01*
X170865299Y-84134224D01*
X171038716Y-84206056D01*
X171222815Y-84242675D01*
X171222816Y-84242675D01*
X171410518Y-84242675D01*
X171410519Y-84242675D01*
X171594618Y-84206056D01*
X171768035Y-84134224D01*
X171924106Y-84029941D01*
X172056833Y-83897214D01*
X172161116Y-83741143D01*
X172232948Y-83567726D01*
X172269567Y-83383627D01*
X172269567Y-83195923D01*
X172232948Y-83011824D01*
X172161116Y-82838407D01*
X172161114Y-82838404D01*
X172161112Y-82838400D01*
X172056833Y-82682336D01*
X172056830Y-82682332D01*
X171924109Y-82549611D01*
X171924105Y-82549608D01*
X171807082Y-82471416D01*
X171802107Y-82463971D01*
X171803854Y-82455188D01*
X171811299Y-82450213D01*
X171813582Y-82449988D01*
X173995234Y-82449988D01*
X174003507Y-82453415D01*
X174968741Y-83418647D01*
X174968744Y-83418651D01*
X174969411Y-83419318D01*
X175033879Y-83483786D01*
X175073021Y-83499999D01*
X175118108Y-83518675D01*
X175118109Y-83518675D01*
X175118111Y-83518676D01*
X175118112Y-83518676D01*
X175209283Y-83518676D01*
X175472693Y-83518676D01*
X175480966Y-83522103D01*
X175484168Y-83528093D01*
X175492052Y-83567726D01*
X175563883Y-83741141D01*
X175563887Y-83741149D01*
X175668166Y-83897213D01*
X175668169Y-83897217D01*
X175800890Y-84029938D01*
X175800894Y-84029941D01*
X175956958Y-84134220D01*
X175956962Y-84134222D01*
X175956965Y-84134224D01*
X176130382Y-84206056D01*
X176314481Y-84242675D01*
X176314482Y-84242675D01*
X176502184Y-84242675D01*
X176502185Y-84242675D01*
X176686284Y-84206056D01*
X176859701Y-84134224D01*
X177015772Y-84029941D01*
X177148499Y-83897214D01*
X177252782Y-83741143D01*
X177324614Y-83567726D01*
X177361233Y-83383627D01*
X177361233Y-83195923D01*
X180547100Y-83195923D01*
X180547100Y-83383627D01*
X180574644Y-83522103D01*
X180583719Y-83567726D01*
X180655550Y-83741141D01*
X180655554Y-83741149D01*
X180759833Y-83897213D01*
X180759836Y-83897217D01*
X180892557Y-84029938D01*
X180892561Y-84029941D01*
X181048625Y-84134220D01*
X181048629Y-84134222D01*
X181048632Y-84134224D01*
X181222049Y-84206056D01*
X181406148Y-84242675D01*
X181406149Y-84242675D01*
X181593851Y-84242675D01*
X181593852Y-84242675D01*
X181777951Y-84206056D01*
X181951368Y-84134224D01*
X182107439Y-84029941D01*
X182240166Y-83897214D01*
X182344449Y-83741143D01*
X182416281Y-83567726D01*
X182452900Y-83383627D01*
X182452900Y-83195923D01*
X182416281Y-83011824D01*
X182344449Y-82838407D01*
X182344447Y-82838404D01*
X182344445Y-82838400D01*
X182240166Y-82682336D01*
X182240163Y-82682332D01*
X182107442Y-82549611D01*
X182107438Y-82549608D01*
X181951374Y-82445329D01*
X181951366Y-82445325D01*
X181777951Y-82373494D01*
X181637746Y-82345606D01*
X181593852Y-82336875D01*
X181406148Y-82336875D01*
X181362254Y-82345606D01*
X181222048Y-82373494D01*
X181048633Y-82445325D01*
X181048625Y-82445329D01*
X180892561Y-82549608D01*
X180892557Y-82549611D01*
X180759836Y-82682332D01*
X180759833Y-82682336D01*
X180655554Y-82838400D01*
X180655550Y-82838408D01*
X180583719Y-83011823D01*
X180557999Y-83141128D01*
X180547100Y-83195923D01*
X177361233Y-83195923D01*
X177324614Y-83011824D01*
X177252782Y-82838407D01*
X177252780Y-82838404D01*
X177252778Y-82838400D01*
X177148499Y-82682336D01*
X177148496Y-82682332D01*
X177015775Y-82549611D01*
X177015771Y-82549608D01*
X176859707Y-82445329D01*
X176859699Y-82445325D01*
X176686284Y-82373494D01*
X176546079Y-82345606D01*
X176502185Y-82336875D01*
X176314481Y-82336875D01*
X176270587Y-82345606D01*
X176130381Y-82373494D01*
X175956966Y-82445325D01*
X175956958Y-82445329D01*
X175800894Y-82549608D01*
X175800890Y-82549611D01*
X175668169Y-82682332D01*
X175668166Y-82682336D01*
X175563887Y-82838400D01*
X175563883Y-82838408D01*
X175492052Y-83011823D01*
X175484278Y-83050907D01*
X175479303Y-83058352D01*
X175472803Y-83060324D01*
X175263471Y-83060324D01*
X175255198Y-83056897D01*
X174224827Y-82026527D01*
X174224826Y-82026526D01*
X174224824Y-82026525D01*
X174140596Y-81991636D01*
X174140594Y-81991636D01*
X169193400Y-81991636D01*
X169193397Y-81991636D01*
X169109169Y-82026525D01*
X169109166Y-82026527D01*
X169056544Y-82079149D01*
X169048271Y-82082576D01*
X169039998Y-82079149D01*
X166842132Y-79881283D01*
X166842131Y-79881282D01*
X166842129Y-79881281D01*
X166757901Y-79846392D01*
X166757899Y-79846392D01*
X163019342Y-79846392D01*
X163011069Y-79842965D01*
X161957119Y-78789015D01*
X161953692Y-78780742D01*
X161955663Y-78774244D01*
X161977782Y-78741143D01*
X162049614Y-78567726D01*
X162086233Y-78383627D01*
X162086233Y-78195923D01*
X162049614Y-78011824D01*
X161977782Y-77838407D01*
X161977780Y-77838404D01*
X161977778Y-77838400D01*
X161873499Y-77682336D01*
X161873496Y-77682332D01*
X161740775Y-77549611D01*
X161740771Y-77549608D01*
X161584707Y-77445329D01*
X161584699Y-77445325D01*
X161411284Y-77373494D01*
X161227185Y-77336875D01*
X161039481Y-77336875D01*
X160947431Y-77355184D01*
X160855381Y-77373494D01*
X160681966Y-77445325D01*
X160681958Y-77445329D01*
X160648864Y-77467442D01*
X160640081Y-77469189D01*
X160634091Y-77465987D01*
X160464290Y-77296186D01*
X160464289Y-77296185D01*
X160464287Y-77296184D01*
X160380059Y-77261295D01*
X160380057Y-77261295D01*
X158333694Y-77261295D01*
X158325421Y-77257868D01*
X150885679Y-69818127D01*
X150885678Y-69818126D01*
X150885676Y-69818125D01*
X150801448Y-69783236D01*
X150801446Y-69783236D01*
X136196489Y-69783236D01*
X136188216Y-69779809D01*
X132714122Y-66305715D01*
X132714121Y-66305714D01*
X132714119Y-66305713D01*
X132629891Y-66270824D01*
X132629889Y-66270824D01*
X132275585Y-66270824D01*
X132267312Y-66267397D01*
X132264110Y-66261407D01*
X132259565Y-66238560D01*
X132256281Y-66222049D01*
X132184449Y-66048632D01*
X132184447Y-66048629D01*
X132184445Y-66048625D01*
X132080166Y-65892561D01*
X132080163Y-65892557D01*
X131947442Y-65759836D01*
X131947438Y-65759833D01*
X131846584Y-65692445D01*
X131841609Y-65685000D01*
X131843356Y-65676217D01*
X131850801Y-65671242D01*
X131853084Y-65671017D01*
X139097764Y-65671017D01*
X139106037Y-65674444D01*
X140061411Y-66629818D01*
X140125879Y-66694286D01*
X140178994Y-66716287D01*
X140210108Y-66729175D01*
X140210109Y-66729175D01*
X140210111Y-66729176D01*
X140564415Y-66729176D01*
X140572688Y-66732603D01*
X140575890Y-66738593D01*
X140583719Y-66777951D01*
X140655550Y-66951366D01*
X140655554Y-66951374D01*
X140759833Y-67107438D01*
X140759836Y-67107442D01*
X140892557Y-67240163D01*
X140892561Y-67240166D01*
X141048625Y-67344445D01*
X141048629Y-67344447D01*
X141048632Y-67344449D01*
X141222049Y-67416281D01*
X141406148Y-67452900D01*
X141406149Y-67452900D01*
X141593851Y-67452900D01*
X141593852Y-67452900D01*
X141777951Y-67416281D01*
X141951368Y-67344449D01*
X142107439Y-67240166D01*
X142240166Y-67107439D01*
X142344449Y-66951368D01*
X142416281Y-66777951D01*
X142424110Y-66738593D01*
X142429085Y-66731148D01*
X142435585Y-66729176D01*
X142698717Y-66729176D01*
X148308828Y-66729176D01*
X148317101Y-66732603D01*
X157050618Y-75466119D01*
X157115086Y-75530587D01*
X157168201Y-75552588D01*
X157199315Y-75565476D01*
X157199316Y-75565476D01*
X157199318Y-75565477D01*
X163172027Y-75565477D01*
X163180300Y-75568904D01*
X165149910Y-77538513D01*
X165149913Y-77538517D01*
X165401499Y-77790103D01*
X165404926Y-77798376D01*
X165402954Y-77804876D01*
X165380554Y-77838400D01*
X165380550Y-77838408D01*
X165308719Y-78011823D01*
X165291180Y-78100000D01*
X165272100Y-78195923D01*
X165272100Y-78383627D01*
X165295248Y-78500000D01*
X165308719Y-78567726D01*
X165380550Y-78741141D01*
X165380554Y-78741149D01*
X165484833Y-78897213D01*
X165484836Y-78897217D01*
X165617557Y-79029938D01*
X165617561Y-79029941D01*
X165773625Y-79134220D01*
X165773629Y-79134222D01*
X165773632Y-79134224D01*
X165947049Y-79206056D01*
X166131148Y-79242675D01*
X166131149Y-79242675D01*
X166318851Y-79242675D01*
X166318852Y-79242675D01*
X166502951Y-79206056D01*
X166676368Y-79134224D01*
X166832439Y-79029941D01*
X166887032Y-78975348D01*
X166948198Y-78914183D01*
X166965163Y-78897217D01*
X166965166Y-78897214D01*
X167069449Y-78741143D01*
X167141281Y-78567726D01*
X167177900Y-78383627D01*
X167177900Y-78208480D01*
X170491267Y-78208480D01*
X170491267Y-78371069D01*
X170522986Y-78530535D01*
X170585206Y-78680747D01*
X170585210Y-78680755D01*
X170675535Y-78815935D01*
X170679139Y-78819538D01*
X170984401Y-78514275D01*
X170996587Y-78535381D01*
X171071061Y-78609855D01*
X171092164Y-78622039D01*
X170786902Y-78927301D01*
X170790506Y-78930906D01*
X170925686Y-79021231D01*
X170925694Y-79021235D01*
X171075906Y-79083455D01*
X171235373Y-79115175D01*
X171397961Y-79115175D01*
X171557427Y-79083455D01*
X171707639Y-79021235D01*
X171707647Y-79021231D01*
X171842829Y-78930905D01*
X171842831Y-78930903D01*
X171846431Y-78927302D01*
X171846431Y-78927301D01*
X171541168Y-78622039D01*
X171562273Y-78609855D01*
X171636747Y-78535381D01*
X171648931Y-78514276D01*
X171954193Y-78819539D01*
X171954194Y-78819539D01*
X171957795Y-78815939D01*
X171957797Y-78815937D01*
X172048123Y-78680755D01*
X172048127Y-78680747D01*
X172110347Y-78530535D01*
X172142067Y-78371069D01*
X172142067Y-78208480D01*
X172110347Y-78049014D01*
X172048127Y-77898802D01*
X172048123Y-77898794D01*
X171957798Y-77763614D01*
X171954193Y-77760010D01*
X171648931Y-78065272D01*
X171636747Y-78044169D01*
X171562273Y-77969695D01*
X171541167Y-77957509D01*
X171846431Y-77652247D01*
X171842827Y-77648643D01*
X171707647Y-77558318D01*
X171707639Y-77558314D01*
X171557427Y-77496094D01*
X171397961Y-77464375D01*
X171235373Y-77464375D01*
X171075906Y-77496094D01*
X170925694Y-77558314D01*
X170925686Y-77558318D01*
X170790508Y-77648642D01*
X170790503Y-77648646D01*
X170786902Y-77652246D01*
X171092165Y-77957510D01*
X171071061Y-77969695D01*
X170996587Y-78044169D01*
X170984402Y-78065273D01*
X170679139Y-77760010D01*
X170679138Y-77760010D01*
X170675538Y-77763611D01*
X170675534Y-77763616D01*
X170585210Y-77898794D01*
X170585206Y-77898802D01*
X170522986Y-78049014D01*
X170491267Y-78208480D01*
X167177900Y-78208480D01*
X167177900Y-78195923D01*
X167141281Y-78011824D01*
X167069449Y-77838407D01*
X167069447Y-77838404D01*
X167069445Y-77838400D01*
X166965166Y-77682336D01*
X166965163Y-77682332D01*
X166832442Y-77549611D01*
X166832438Y-77549608D01*
X166676374Y-77445329D01*
X166676366Y-77445325D01*
X166502951Y-77373494D01*
X166318852Y-77336875D01*
X166131148Y-77336875D01*
X166039098Y-77355184D01*
X165947048Y-77373494D01*
X165773633Y-77445325D01*
X165773625Y-77445329D01*
X165740431Y-77467509D01*
X165731648Y-77469256D01*
X165725658Y-77466054D01*
X165474020Y-77214416D01*
X165474013Y-77214410D01*
X165060594Y-76800991D01*
X165057167Y-76792718D01*
X165060594Y-76784445D01*
X165068867Y-76781018D01*
X171776081Y-76781018D01*
X171784354Y-76784445D01*
X174961844Y-79961935D01*
X175014959Y-79983936D01*
X175046073Y-79996824D01*
X175046074Y-79996824D01*
X175046076Y-79996825D01*
X175137248Y-79996825D01*
X184301049Y-79996825D01*
X184309322Y-80000252D01*
X194637643Y-90328572D01*
X194637645Y-90328574D01*
X194852417Y-90543467D01*
X194855842Y-90551741D01*
X194853608Y-90558615D01*
X194800133Y-90632218D01*
X194699880Y-90828977D01*
X194699878Y-90828981D01*
X194631646Y-91038978D01*
X194631642Y-91038994D01*
X194597100Y-91257088D01*
X194597100Y-91477911D01*
X194631642Y-91696005D01*
X194631646Y-91696021D01*
X194699878Y-91906018D01*
X194699880Y-91906022D01*
X194699882Y-91906027D01*
X194760476Y-92024950D01*
X194800135Y-92102786D01*
X194929920Y-92281418D01*
X194929924Y-92281422D01*
X194929928Y-92281428D01*
X195086072Y-92437572D01*
X195086077Y-92437576D01*
X195086081Y-92437579D01*
X195264713Y-92567364D01*
X195264718Y-92567366D01*
X195264720Y-92567368D01*
X195461473Y-92667618D01*
X195461478Y-92667619D01*
X195461481Y-92667621D01*
X195638101Y-92725008D01*
X195671487Y-92735856D01*
X195760251Y-92749914D01*
X195889588Y-92770400D01*
X195889589Y-92770400D01*
X196110411Y-92770400D01*
X196328513Y-92735856D01*
X196538527Y-92667618D01*
X196735280Y-92567368D01*
X196913928Y-92437572D01*
X197070072Y-92281428D01*
X197199868Y-92102780D01*
X197300118Y-91906027D01*
X197368356Y-91696013D01*
X197402900Y-91477911D01*
X197402900Y-91257089D01*
X197368356Y-91038987D01*
X197344108Y-90964359D01*
X197300121Y-90828981D01*
X197300119Y-90828977D01*
X197300118Y-90828973D01*
X197199868Y-90632220D01*
X197199866Y-90632218D01*
X197199864Y-90632213D01*
X197070079Y-90453581D01*
X197070076Y-90453577D01*
X197070072Y-90453572D01*
X196913928Y-90297428D01*
X196913922Y-90297424D01*
X196913918Y-90297420D01*
X196735286Y-90167635D01*
X196676446Y-90137655D01*
X196538527Y-90067382D01*
X196538524Y-90067381D01*
X196538522Y-90067380D01*
X196538518Y-90067378D01*
X196328521Y-89999146D01*
X196328505Y-89999142D01*
X196110412Y-89964600D01*
X196110411Y-89964600D01*
X195889589Y-89964600D01*
X195889588Y-89964600D01*
X195671494Y-89999142D01*
X195671478Y-89999146D01*
X195461481Y-90067378D01*
X195461477Y-90067380D01*
X195461473Y-90067381D01*
X195461473Y-90067382D01*
X195409874Y-90093673D01*
X195264718Y-90167633D01*
X195191757Y-90220642D01*
X195183050Y-90222732D01*
X195176605Y-90219447D01*
X194995137Y-90037877D01*
X194995054Y-90037775D01*
X194961836Y-90004557D01*
X194956424Y-89999142D01*
X194929825Y-89972528D01*
X194929822Y-89972526D01*
X194929067Y-89971771D01*
X194928966Y-89971687D01*
X184530642Y-79573364D01*
X184530641Y-79573363D01*
X184530639Y-79573362D01*
X184446411Y-79538473D01*
X184446409Y-79538473D01*
X175191436Y-79538473D01*
X175183163Y-79535046D01*
X173856597Y-78208480D01*
X175582933Y-78208480D01*
X175582933Y-78371069D01*
X175614652Y-78530535D01*
X175676872Y-78680747D01*
X175676876Y-78680755D01*
X175767201Y-78815935D01*
X175770805Y-78819538D01*
X176076067Y-78514275D01*
X176088253Y-78535381D01*
X176162727Y-78609855D01*
X176183830Y-78622039D01*
X175878568Y-78927301D01*
X175882172Y-78930906D01*
X176017352Y-79021231D01*
X176017360Y-79021235D01*
X176167572Y-79083455D01*
X176327039Y-79115175D01*
X176489627Y-79115175D01*
X176649093Y-79083455D01*
X176799305Y-79021235D01*
X176799313Y-79021231D01*
X176934495Y-78930905D01*
X176934497Y-78930903D01*
X176938097Y-78927302D01*
X176938097Y-78927301D01*
X176632834Y-78622039D01*
X176653939Y-78609855D01*
X176728413Y-78535381D01*
X176740597Y-78514276D01*
X177045859Y-78819539D01*
X177045860Y-78819539D01*
X177049461Y-78815939D01*
X177049463Y-78815937D01*
X177139789Y-78680755D01*
X177139793Y-78680747D01*
X177202013Y-78530535D01*
X177233733Y-78371069D01*
X177233733Y-78208480D01*
X180674600Y-78208480D01*
X180674600Y-78371069D01*
X180706319Y-78530535D01*
X180768539Y-78680747D01*
X180768543Y-78680755D01*
X180858868Y-78815935D01*
X180862472Y-78819538D01*
X181167734Y-78514275D01*
X181179920Y-78535381D01*
X181254394Y-78609855D01*
X181275497Y-78622039D01*
X180970235Y-78927301D01*
X180973839Y-78930906D01*
X181109019Y-79021231D01*
X181109027Y-79021235D01*
X181259239Y-79083455D01*
X181418706Y-79115175D01*
X181581294Y-79115175D01*
X181740760Y-79083455D01*
X181890972Y-79021235D01*
X181890980Y-79021231D01*
X182026162Y-78930905D01*
X182026164Y-78930903D01*
X182029764Y-78927302D01*
X182029764Y-78927301D01*
X181724501Y-78622039D01*
X181745606Y-78609855D01*
X181820080Y-78535381D01*
X181832264Y-78514276D01*
X182137526Y-78819539D01*
X182137527Y-78819539D01*
X182141128Y-78815939D01*
X182141130Y-78815937D01*
X182231456Y-78680755D01*
X182231460Y-78680747D01*
X182293680Y-78530535D01*
X182325400Y-78371069D01*
X182325400Y-78208480D01*
X182293680Y-78049014D01*
X182231460Y-77898802D01*
X182231456Y-77898794D01*
X182141131Y-77763614D01*
X182137526Y-77760010D01*
X181832264Y-78065272D01*
X181820080Y-78044169D01*
X181745606Y-77969695D01*
X181724500Y-77957509D01*
X182029764Y-77652247D01*
X182026160Y-77648643D01*
X181890980Y-77558318D01*
X181890972Y-77558314D01*
X181740760Y-77496094D01*
X181581294Y-77464375D01*
X181418706Y-77464375D01*
X181259239Y-77496094D01*
X181109027Y-77558314D01*
X181109019Y-77558318D01*
X180973841Y-77648642D01*
X180973836Y-77648646D01*
X180970235Y-77652246D01*
X181275498Y-77957510D01*
X181254394Y-77969695D01*
X181179920Y-78044169D01*
X181167735Y-78065273D01*
X180862472Y-77760010D01*
X180862471Y-77760010D01*
X180858871Y-77763611D01*
X180858867Y-77763616D01*
X180768543Y-77898794D01*
X180768539Y-77898802D01*
X180706319Y-78049014D01*
X180674600Y-78208480D01*
X177233733Y-78208480D01*
X177202013Y-78049014D01*
X177139793Y-77898802D01*
X177139789Y-77898794D01*
X177049464Y-77763614D01*
X177045859Y-77760010D01*
X176740597Y-78065272D01*
X176728413Y-78044169D01*
X176653939Y-77969695D01*
X176632833Y-77957509D01*
X176938097Y-77652247D01*
X176934493Y-77648643D01*
X176799313Y-77558318D01*
X176799305Y-77558314D01*
X176649093Y-77496094D01*
X176489627Y-77464375D01*
X176327039Y-77464375D01*
X176167572Y-77496094D01*
X176017360Y-77558314D01*
X176017352Y-77558318D01*
X175882174Y-77648642D01*
X175882169Y-77648646D01*
X175878568Y-77652246D01*
X176183831Y-77957510D01*
X176162727Y-77969695D01*
X176088253Y-78044169D01*
X176076068Y-78065273D01*
X175770805Y-77760010D01*
X175770804Y-77760010D01*
X175767204Y-77763611D01*
X175767200Y-77763616D01*
X175676876Y-77898794D01*
X175676872Y-77898802D01*
X175614652Y-78049014D01*
X175582933Y-78208480D01*
X173856597Y-78208480D01*
X172005674Y-76357557D01*
X172005673Y-76357556D01*
X172005671Y-76357555D01*
X171921443Y-76322666D01*
X171921441Y-76322666D01*
X165117205Y-76322666D01*
X165108932Y-76319239D01*
X159257827Y-70468134D01*
X159257826Y-70468133D01*
X159257824Y-70468132D01*
X159173596Y-70433243D01*
X159173594Y-70433243D01*
X155217978Y-70433243D01*
X155209705Y-70429816D01*
X152198594Y-67418705D01*
X155924600Y-67418705D01*
X155924600Y-67581294D01*
X155956319Y-67740760D01*
X156018539Y-67890972D01*
X156018543Y-67890980D01*
X156108868Y-68026160D01*
X156112472Y-68029763D01*
X156417734Y-67724500D01*
X156429920Y-67745606D01*
X156504394Y-67820080D01*
X156525497Y-67832264D01*
X156220235Y-68137526D01*
X156223839Y-68141131D01*
X156359019Y-68231456D01*
X156359027Y-68231460D01*
X156509239Y-68293680D01*
X156668706Y-68325400D01*
X156831294Y-68325400D01*
X156990760Y-68293680D01*
X157140972Y-68231460D01*
X157140980Y-68231456D01*
X157276162Y-68141130D01*
X157276164Y-68141128D01*
X157279764Y-68137527D01*
X157279764Y-68137526D01*
X156974501Y-67832264D01*
X156995606Y-67820080D01*
X157070080Y-67745606D01*
X157082264Y-67724501D01*
X157387526Y-68029764D01*
X157387527Y-68029764D01*
X157391128Y-68026164D01*
X157391130Y-68026162D01*
X157481456Y-67890980D01*
X157481460Y-67890972D01*
X157543680Y-67740760D01*
X157575400Y-67581294D01*
X157575400Y-67418705D01*
X157543680Y-67259239D01*
X157481460Y-67109027D01*
X157481456Y-67109019D01*
X157391131Y-66973839D01*
X157387526Y-66970235D01*
X157082264Y-67275497D01*
X157070080Y-67254394D01*
X156995606Y-67179920D01*
X156974500Y-67167734D01*
X157279764Y-66862472D01*
X157276160Y-66858868D01*
X157140980Y-66768543D01*
X157140972Y-66768539D01*
X156990760Y-66706319D01*
X156831294Y-66674600D01*
X156668706Y-66674600D01*
X156509239Y-66706319D01*
X156359027Y-66768539D01*
X156359019Y-66768543D01*
X156223841Y-66858867D01*
X156223836Y-66858871D01*
X156220234Y-66862471D01*
X156525498Y-67167735D01*
X156504394Y-67179920D01*
X156429920Y-67254394D01*
X156417735Y-67275498D01*
X156112472Y-66970235D01*
X156112471Y-66970235D01*
X156108871Y-66973836D01*
X156108867Y-66973841D01*
X156018543Y-67109019D01*
X156018539Y-67109027D01*
X155956319Y-67259239D01*
X155924600Y-67418705D01*
X152198594Y-67418705D01*
X148198744Y-63418855D01*
X148198743Y-63418854D01*
X148175847Y-63409370D01*
X148114513Y-63383964D01*
X148114511Y-63383964D01*
X131300682Y-63383964D01*
X131292409Y-63380537D01*
X131288982Y-63372264D01*
X131292409Y-63363991D01*
X131294828Y-63362133D01*
X131331861Y-63340753D01*
X131417134Y-63255480D01*
X131427029Y-63238340D01*
X131443806Y-63209284D01*
X131450910Y-63203833D01*
X131453938Y-63203434D01*
X132568326Y-63203434D01*
X132568328Y-63203434D01*
X132652560Y-63168544D01*
X139498036Y-56323065D01*
X139498043Y-56323061D01*
X139499684Y-56321420D01*
X139746286Y-56074816D01*
X139754558Y-56071390D01*
X139761435Y-56073624D01*
X139778233Y-56085828D01*
X139834720Y-56126868D01*
X140031473Y-56227118D01*
X140031478Y-56227119D01*
X140031481Y-56227121D01*
X140180069Y-56275400D01*
X140241487Y-56295356D01*
X140271572Y-56300121D01*
X140459588Y-56329900D01*
X140459589Y-56329900D01*
X140680411Y-56329900D01*
X140898513Y-56295356D01*
X141108527Y-56227118D01*
X141305280Y-56126868D01*
X141307092Y-56125552D01*
X141408014Y-56052226D01*
X141483928Y-55997072D01*
X141640072Y-55840928D01*
X141705617Y-55750713D01*
X141769864Y-55662286D01*
X141769867Y-55662281D01*
X141769868Y-55662280D01*
X141870118Y-55465527D01*
X141938356Y-55255513D01*
X141972900Y-55037411D01*
X141972900Y-54826623D01*
X145644600Y-54826623D01*
X145644600Y-55027376D01*
X145676002Y-55225649D01*
X145676006Y-55225665D01*
X145738036Y-55416575D01*
X145738038Y-55416579D01*
X145829183Y-55595461D01*
X145947171Y-55757857D01*
X145947185Y-55757873D01*
X145964274Y-55774962D01*
X146408211Y-55331024D01*
X146415112Y-55341351D01*
X146505649Y-55431888D01*
X146515975Y-55438787D01*
X146072037Y-55882725D01*
X146089126Y-55899814D01*
X146089142Y-55899828D01*
X146251538Y-56017816D01*
X146430420Y-56108961D01*
X146430424Y-56108963D01*
X146621334Y-56170993D01*
X146621350Y-56170997D01*
X146819623Y-56202400D01*
X147020376Y-56202400D01*
X147218649Y-56170997D01*
X147218665Y-56170993D01*
X147409575Y-56108963D01*
X147409579Y-56108961D01*
X147588461Y-56017816D01*
X147750857Y-55899828D01*
X147750873Y-55899814D01*
X147767962Y-55882725D01*
X147324024Y-55438787D01*
X147334351Y-55431888D01*
X147424888Y-55341351D01*
X147431787Y-55331024D01*
X147875725Y-55774962D01*
X147892814Y-55757873D01*
X147892828Y-55757857D01*
X148010816Y-55595461D01*
X148101961Y-55416579D01*
X148101963Y-55416575D01*
X148163993Y-55225665D01*
X148163997Y-55225649D01*
X148195400Y-55027376D01*
X148195400Y-54889588D01*
X151897100Y-54889588D01*
X151897100Y-55110411D01*
X151931642Y-55328505D01*
X151931646Y-55328521D01*
X151999878Y-55538518D01*
X151999880Y-55538522D01*
X151999882Y-55538527D01*
X152066086Y-55668461D01*
X152100135Y-55735286D01*
X152229920Y-55913918D01*
X152229924Y-55913922D01*
X152229928Y-55913928D01*
X152386072Y-56070072D01*
X152386077Y-56070076D01*
X152386081Y-56070079D01*
X152564713Y-56199864D01*
X152564718Y-56199866D01*
X152564720Y-56199868D01*
X152761473Y-56300118D01*
X152761478Y-56300119D01*
X152761481Y-56300121D01*
X152853132Y-56329900D01*
X152971487Y-56368356D01*
X153060955Y-56382526D01*
X153068589Y-56387204D01*
X153070824Y-56394081D01*
X153070824Y-61845588D01*
X153105713Y-61929816D01*
X153105715Y-61929819D01*
X163176389Y-72000493D01*
X163179816Y-72008766D01*
X163177844Y-72015266D01*
X163155554Y-72048625D01*
X163155550Y-72048633D01*
X163083719Y-72222048D01*
X163047100Y-72406148D01*
X163047100Y-72593851D01*
X163083719Y-72777951D01*
X163155550Y-72951366D01*
X163155554Y-72951374D01*
X163259833Y-73107438D01*
X163259836Y-73107442D01*
X163392557Y-73240163D01*
X163392561Y-73240166D01*
X163548625Y-73344445D01*
X163548629Y-73344447D01*
X163548632Y-73344449D01*
X163722049Y-73416281D01*
X163906148Y-73452900D01*
X163906149Y-73452900D01*
X164093851Y-73452900D01*
X164093852Y-73452900D01*
X164277951Y-73416281D01*
X164451368Y-73344449D01*
X164607439Y-73240166D01*
X164646149Y-73201456D01*
X164723198Y-73124408D01*
X164740163Y-73107442D01*
X164740166Y-73107439D01*
X164844449Y-72951368D01*
X164916281Y-72777951D01*
X164952900Y-72593852D01*
X164952900Y-72418705D01*
X170424600Y-72418705D01*
X170424600Y-72581294D01*
X170456319Y-72740760D01*
X170518539Y-72890972D01*
X170518543Y-72890980D01*
X170608868Y-73026160D01*
X170612472Y-73029763D01*
X170917734Y-72724500D01*
X170929920Y-72745606D01*
X171004394Y-72820080D01*
X171025497Y-72832264D01*
X170720235Y-73137526D01*
X170723839Y-73141131D01*
X170859019Y-73231456D01*
X170859027Y-73231460D01*
X171009239Y-73293680D01*
X171168706Y-73325400D01*
X171331294Y-73325400D01*
X171490760Y-73293680D01*
X171640972Y-73231460D01*
X171640980Y-73231456D01*
X171776162Y-73141130D01*
X171776164Y-73141128D01*
X171779764Y-73137527D01*
X171779764Y-73137526D01*
X171474501Y-72832264D01*
X171495606Y-72820080D01*
X171570080Y-72745606D01*
X171582264Y-72724501D01*
X171887526Y-73029764D01*
X171887527Y-73029764D01*
X171891128Y-73026164D01*
X171891130Y-73026162D01*
X171981456Y-72890980D01*
X171981460Y-72890972D01*
X172043680Y-72740760D01*
X172075400Y-72581294D01*
X172075400Y-72418704D01*
X172073242Y-72407855D01*
X172072902Y-72406148D01*
X177547100Y-72406148D01*
X177547100Y-72593851D01*
X177583719Y-72777951D01*
X177655550Y-72951366D01*
X177655554Y-72951374D01*
X177759833Y-73107438D01*
X177759836Y-73107442D01*
X177892557Y-73240163D01*
X177892561Y-73240166D01*
X178048625Y-73344445D01*
X178048629Y-73344447D01*
X178048632Y-73344449D01*
X178222049Y-73416281D01*
X178406148Y-73452900D01*
X178406149Y-73452900D01*
X178593851Y-73452900D01*
X178593852Y-73452900D01*
X178777951Y-73416281D01*
X178951368Y-73344449D01*
X179107439Y-73240166D01*
X179240166Y-73107439D01*
X179344449Y-72951368D01*
X179416281Y-72777951D01*
X179452900Y-72593852D01*
X179452900Y-72406148D01*
X184797100Y-72406148D01*
X184797100Y-72593851D01*
X184833719Y-72777951D01*
X184905550Y-72951366D01*
X184905554Y-72951374D01*
X185009833Y-73107438D01*
X185009836Y-73107442D01*
X185142557Y-73240163D01*
X185142561Y-73240166D01*
X185298625Y-73344445D01*
X185298629Y-73344447D01*
X185298632Y-73344449D01*
X185472049Y-73416281D01*
X185656148Y-73452900D01*
X185656149Y-73452900D01*
X185843851Y-73452900D01*
X185843852Y-73452900D01*
X186027951Y-73416281D01*
X186201368Y-73344449D01*
X186357439Y-73240166D01*
X186490166Y-73107439D01*
X186594449Y-72951368D01*
X186666281Y-72777951D01*
X186702900Y-72593852D01*
X186702900Y-72406148D01*
X186666281Y-72222049D01*
X186594449Y-72048632D01*
X186594447Y-72048629D01*
X186594445Y-72048625D01*
X186490166Y-71892561D01*
X186490163Y-71892557D01*
X186357442Y-71759836D01*
X186357438Y-71759833D01*
X186201374Y-71655554D01*
X186201366Y-71655550D01*
X186027951Y-71583719D01*
X185843852Y-71547100D01*
X185656148Y-71547100D01*
X185581023Y-71562043D01*
X185472048Y-71583719D01*
X185298633Y-71655550D01*
X185298625Y-71655554D01*
X185142561Y-71759833D01*
X185142557Y-71759836D01*
X185009836Y-71892557D01*
X185009833Y-71892561D01*
X184905554Y-72048625D01*
X184905550Y-72048633D01*
X184833719Y-72222048D01*
X184797100Y-72406148D01*
X179452900Y-72406148D01*
X179416281Y-72222049D01*
X179344449Y-72048632D01*
X179344447Y-72048629D01*
X179344445Y-72048625D01*
X179240166Y-71892561D01*
X179240163Y-71892557D01*
X179107442Y-71759836D01*
X179107438Y-71759833D01*
X178951374Y-71655554D01*
X178951366Y-71655550D01*
X178777951Y-71583719D01*
X178593852Y-71547100D01*
X178406148Y-71547100D01*
X178331023Y-71562043D01*
X178222048Y-71583719D01*
X178048633Y-71655550D01*
X178048625Y-71655554D01*
X177892561Y-71759833D01*
X177892557Y-71759836D01*
X177759836Y-71892557D01*
X177759833Y-71892561D01*
X177655554Y-72048625D01*
X177655550Y-72048633D01*
X177583719Y-72222048D01*
X177547100Y-72406148D01*
X172072902Y-72406148D01*
X172043680Y-72259239D01*
X171981460Y-72109027D01*
X171981456Y-72109019D01*
X171891131Y-71973839D01*
X171887526Y-71970235D01*
X171582264Y-72275497D01*
X171570080Y-72254394D01*
X171495606Y-72179920D01*
X171474500Y-72167734D01*
X171779764Y-71862472D01*
X171776160Y-71858868D01*
X171640980Y-71768543D01*
X171640972Y-71768539D01*
X171490760Y-71706319D01*
X171331294Y-71674600D01*
X171168706Y-71674600D01*
X171009239Y-71706319D01*
X170859027Y-71768539D01*
X170859019Y-71768543D01*
X170723841Y-71858867D01*
X170723836Y-71858871D01*
X170720235Y-71862471D01*
X171025498Y-72167735D01*
X171004394Y-72179920D01*
X170929920Y-72254394D01*
X170917735Y-72275498D01*
X170612472Y-71970235D01*
X170612471Y-71970235D01*
X170608871Y-71973836D01*
X170608867Y-71973841D01*
X170518543Y-72109019D01*
X170518539Y-72109027D01*
X170456319Y-72259239D01*
X170424600Y-72418705D01*
X164952900Y-72418705D01*
X164952900Y-72406148D01*
X164916281Y-72222049D01*
X164844449Y-72048632D01*
X164844447Y-72048629D01*
X164844445Y-72048625D01*
X164740166Y-71892561D01*
X164740163Y-71892557D01*
X164607442Y-71759836D01*
X164607438Y-71759833D01*
X164451374Y-71655554D01*
X164451366Y-71655550D01*
X164277951Y-71583719D01*
X164093852Y-71547100D01*
X163906148Y-71547100D01*
X163831023Y-71562043D01*
X163722048Y-71583719D01*
X163548633Y-71655550D01*
X163548625Y-71655554D01*
X163515266Y-71677844D01*
X163506483Y-71679591D01*
X163500493Y-71676389D01*
X159242809Y-67418705D01*
X163174600Y-67418705D01*
X163174600Y-67581294D01*
X163206319Y-67740760D01*
X163268539Y-67890972D01*
X163268543Y-67890980D01*
X163358868Y-68026160D01*
X163362472Y-68029763D01*
X163667734Y-67724500D01*
X163679920Y-67745606D01*
X163754394Y-67820080D01*
X163775497Y-67832264D01*
X163470235Y-68137526D01*
X163473839Y-68141131D01*
X163609019Y-68231456D01*
X163609027Y-68231460D01*
X163759239Y-68293680D01*
X163918706Y-68325400D01*
X164081294Y-68325400D01*
X164240760Y-68293680D01*
X164390972Y-68231460D01*
X164390980Y-68231456D01*
X164526162Y-68141130D01*
X164526164Y-68141128D01*
X164529764Y-68137527D01*
X164529764Y-68137526D01*
X164224501Y-67832264D01*
X164245606Y-67820080D01*
X164320080Y-67745606D01*
X164332264Y-67724501D01*
X164637526Y-68029764D01*
X164637527Y-68029764D01*
X164641128Y-68026164D01*
X164641130Y-68026162D01*
X164731456Y-67890980D01*
X164731460Y-67890972D01*
X164793680Y-67740760D01*
X164825400Y-67581294D01*
X164825400Y-67418705D01*
X164793680Y-67259239D01*
X164731460Y-67109027D01*
X164731456Y-67109019D01*
X164641131Y-66973839D01*
X164637526Y-66970235D01*
X164332264Y-67275497D01*
X164320080Y-67254394D01*
X164245606Y-67179920D01*
X164224500Y-67167734D01*
X164529764Y-66862472D01*
X164526160Y-66858868D01*
X164390980Y-66768543D01*
X164390972Y-66768539D01*
X164240760Y-66706319D01*
X164081294Y-66674600D01*
X163918706Y-66674600D01*
X163759239Y-66706319D01*
X163609027Y-66768539D01*
X163609019Y-66768543D01*
X163473841Y-66858867D01*
X163473836Y-66858871D01*
X163470235Y-66862471D01*
X163775498Y-67167735D01*
X163754394Y-67179920D01*
X163679920Y-67254394D01*
X163667735Y-67275498D01*
X163362472Y-66970235D01*
X163362471Y-66970235D01*
X163358871Y-66973836D01*
X163358867Y-66973841D01*
X163268543Y-67109019D01*
X163268539Y-67109027D01*
X163206319Y-67259239D01*
X163174600Y-67418705D01*
X159242809Y-67418705D01*
X153532603Y-61708499D01*
X153529176Y-61700226D01*
X153529176Y-56394081D01*
X153532603Y-56385808D01*
X153539043Y-56382526D01*
X153628513Y-56368356D01*
X153838527Y-56300118D01*
X154035280Y-56199868D01*
X154053789Y-56186421D01*
X154213918Y-56070079D01*
X154213928Y-56070072D01*
X154370072Y-55913928D01*
X154464838Y-55783495D01*
X154499864Y-55735286D01*
X154499864Y-55735284D01*
X154499868Y-55735280D01*
X154600118Y-55538527D01*
X154668356Y-55328513D01*
X154702900Y-55110411D01*
X154702900Y-54899623D01*
X158374600Y-54899623D01*
X158374600Y-55100376D01*
X158406002Y-55298649D01*
X158406006Y-55298665D01*
X158468036Y-55489575D01*
X158468038Y-55489579D01*
X158559183Y-55668461D01*
X158677171Y-55830857D01*
X158677185Y-55830873D01*
X158694274Y-55847962D01*
X159138211Y-55404024D01*
X159145112Y-55414351D01*
X159235649Y-55504888D01*
X159245975Y-55511787D01*
X158802037Y-55955725D01*
X158819126Y-55972814D01*
X158819142Y-55972828D01*
X158981538Y-56090816D01*
X159160420Y-56181961D01*
X159160424Y-56181963D01*
X159351334Y-56243993D01*
X159351350Y-56243997D01*
X159549623Y-56275400D01*
X159750376Y-56275400D01*
X159948649Y-56243997D01*
X159948665Y-56243993D01*
X160139575Y-56181963D01*
X160139579Y-56181961D01*
X160318461Y-56090816D01*
X160480857Y-55972828D01*
X160480873Y-55972814D01*
X160497962Y-55955725D01*
X160054024Y-55511787D01*
X160064351Y-55504888D01*
X160154888Y-55414351D01*
X160161787Y-55404024D01*
X160605725Y-55847962D01*
X160622814Y-55830873D01*
X160622828Y-55830857D01*
X160740816Y-55668461D01*
X160831961Y-55489579D01*
X160831963Y-55489575D01*
X160893993Y-55298665D01*
X160893997Y-55298649D01*
X160925400Y-55100376D01*
X160925400Y-54899623D01*
X160924028Y-54890959D01*
X160923811Y-54889588D01*
X164597100Y-54889588D01*
X164597100Y-55110411D01*
X164631642Y-55328505D01*
X164631646Y-55328521D01*
X164699878Y-55538518D01*
X164699880Y-55538522D01*
X164699882Y-55538527D01*
X164766086Y-55668461D01*
X164800135Y-55735286D01*
X164929920Y-55913918D01*
X164929924Y-55913922D01*
X164929928Y-55913928D01*
X165086072Y-56070072D01*
X165086077Y-56070076D01*
X165086081Y-56070079D01*
X165264713Y-56199864D01*
X165264718Y-56199866D01*
X165264720Y-56199868D01*
X165461473Y-56300118D01*
X165461478Y-56300119D01*
X165461481Y-56300121D01*
X165553132Y-56329900D01*
X165671487Y-56368356D01*
X165760955Y-56382526D01*
X165768589Y-56387204D01*
X165770824Y-56394081D01*
X165770824Y-61051285D01*
X165805713Y-61135513D01*
X165805715Y-61135516D01*
X171017397Y-66347198D01*
X171020824Y-66355471D01*
X171020824Y-66564415D01*
X171017397Y-66572688D01*
X171011407Y-66575890D01*
X170972048Y-66583719D01*
X170798633Y-66655550D01*
X170798625Y-66655554D01*
X170642561Y-66759833D01*
X170642557Y-66759836D01*
X170509836Y-66892557D01*
X170509833Y-66892561D01*
X170405554Y-67048625D01*
X170405550Y-67048633D01*
X170333719Y-67222048D01*
X170309142Y-67345606D01*
X170297100Y-67406148D01*
X170297100Y-67593852D01*
X170300266Y-67609768D01*
X170333719Y-67777951D01*
X170405550Y-67951366D01*
X170405554Y-67951374D01*
X170509833Y-68107438D01*
X170509836Y-68107442D01*
X170642557Y-68240163D01*
X170642561Y-68240166D01*
X170798625Y-68344445D01*
X170798629Y-68344447D01*
X170798632Y-68344449D01*
X170972049Y-68416281D01*
X171156148Y-68452900D01*
X171156149Y-68452900D01*
X171343851Y-68452900D01*
X171343852Y-68452900D01*
X171527951Y-68416281D01*
X171701368Y-68344449D01*
X171857439Y-68240166D01*
X171866149Y-68231456D01*
X171973198Y-68124408D01*
X171990163Y-68107442D01*
X171990166Y-68107439D01*
X172094449Y-67951368D01*
X172166281Y-67777951D01*
X172202900Y-67593852D01*
X172202900Y-67418705D01*
X177674600Y-67418705D01*
X177674600Y-67581294D01*
X177706319Y-67740760D01*
X177768539Y-67890972D01*
X177768543Y-67890980D01*
X177858868Y-68026160D01*
X177862472Y-68029763D01*
X178167734Y-67724500D01*
X178179920Y-67745606D01*
X178254394Y-67820080D01*
X178275497Y-67832264D01*
X177970235Y-68137526D01*
X177973839Y-68141131D01*
X178109019Y-68231456D01*
X178109027Y-68231460D01*
X178259239Y-68293680D01*
X178418706Y-68325400D01*
X178581294Y-68325400D01*
X178740760Y-68293680D01*
X178890972Y-68231460D01*
X178890980Y-68231456D01*
X179026162Y-68141130D01*
X179026164Y-68141128D01*
X179029764Y-68137527D01*
X179029764Y-68137526D01*
X178724501Y-67832264D01*
X178745606Y-67820080D01*
X178820080Y-67745606D01*
X178832264Y-67724501D01*
X179137526Y-68029764D01*
X179137527Y-68029764D01*
X179141128Y-68026164D01*
X179141130Y-68026162D01*
X179231456Y-67890980D01*
X179231460Y-67890972D01*
X179293680Y-67740760D01*
X179325400Y-67581294D01*
X179325400Y-67418705D01*
X184924600Y-67418705D01*
X184924600Y-67581294D01*
X184956319Y-67740760D01*
X185018539Y-67890972D01*
X185018543Y-67890980D01*
X185108868Y-68026160D01*
X185112472Y-68029763D01*
X185417734Y-67724500D01*
X185429920Y-67745606D01*
X185504394Y-67820080D01*
X185525497Y-67832264D01*
X185220235Y-68137526D01*
X185223839Y-68141131D01*
X185359019Y-68231456D01*
X185359027Y-68231460D01*
X185509239Y-68293680D01*
X185668706Y-68325400D01*
X185831294Y-68325400D01*
X185990760Y-68293680D01*
X186140972Y-68231460D01*
X186140980Y-68231456D01*
X186276162Y-68141130D01*
X186276164Y-68141128D01*
X186279764Y-68137527D01*
X186279764Y-68137526D01*
X185974501Y-67832264D01*
X185995606Y-67820080D01*
X186070080Y-67745606D01*
X186082264Y-67724501D01*
X186387526Y-68029764D01*
X186387527Y-68029764D01*
X186391128Y-68026164D01*
X186391130Y-68026162D01*
X186481456Y-67890980D01*
X186481460Y-67890972D01*
X186543680Y-67740760D01*
X186575400Y-67581294D01*
X186575400Y-67418705D01*
X186543680Y-67259239D01*
X186481460Y-67109027D01*
X186481456Y-67109019D01*
X186391131Y-66973839D01*
X186387526Y-66970235D01*
X186082264Y-67275497D01*
X186070080Y-67254394D01*
X185995606Y-67179920D01*
X185974500Y-67167734D01*
X186279763Y-66862472D01*
X186276160Y-66858868D01*
X186140980Y-66768543D01*
X186140972Y-66768539D01*
X185990760Y-66706319D01*
X185831294Y-66674600D01*
X185668706Y-66674600D01*
X185509239Y-66706319D01*
X185359027Y-66768539D01*
X185359019Y-66768543D01*
X185223841Y-66858867D01*
X185223836Y-66858871D01*
X185220234Y-66862471D01*
X185525498Y-67167735D01*
X185504394Y-67179920D01*
X185429920Y-67254394D01*
X185417735Y-67275498D01*
X185112472Y-66970235D01*
X185112471Y-66970235D01*
X185108871Y-66973836D01*
X185108867Y-66973841D01*
X185018543Y-67109019D01*
X185018539Y-67109027D01*
X184956319Y-67259239D01*
X184924600Y-67418705D01*
X179325400Y-67418705D01*
X179293680Y-67259239D01*
X179231460Y-67109027D01*
X179231456Y-67109019D01*
X179141131Y-66973839D01*
X179137526Y-66970235D01*
X178832264Y-67275497D01*
X178820080Y-67254394D01*
X178745606Y-67179920D01*
X178724500Y-67167734D01*
X179029763Y-66862472D01*
X179026160Y-66858868D01*
X178890980Y-66768543D01*
X178890972Y-66768539D01*
X178740760Y-66706319D01*
X178581294Y-66674600D01*
X178418706Y-66674600D01*
X178259239Y-66706319D01*
X178109027Y-66768539D01*
X178109019Y-66768543D01*
X177973841Y-66858867D01*
X177973836Y-66858871D01*
X177970234Y-66862471D01*
X178275498Y-67167735D01*
X178254394Y-67179920D01*
X178179920Y-67254394D01*
X178167735Y-67275498D01*
X177862472Y-66970235D01*
X177862471Y-66970235D01*
X177858871Y-66973836D01*
X177858867Y-66973841D01*
X177768543Y-67109019D01*
X177768539Y-67109027D01*
X177706319Y-67259239D01*
X177674600Y-67418705D01*
X172202900Y-67418705D01*
X172202900Y-67406148D01*
X172166281Y-67222049D01*
X172094449Y-67048632D01*
X172094447Y-67048629D01*
X172094445Y-67048625D01*
X171990166Y-66892561D01*
X171990163Y-66892557D01*
X171857442Y-66759836D01*
X171857438Y-66759833D01*
X171701374Y-66655554D01*
X171701366Y-66655550D01*
X171527951Y-66583719D01*
X171488593Y-66575890D01*
X171481148Y-66570915D01*
X171479176Y-66564415D01*
X171479176Y-66210112D01*
X171479175Y-66210108D01*
X171444286Y-66125880D01*
X171444285Y-66125878D01*
X166232603Y-60914196D01*
X166229176Y-60905923D01*
X166229176Y-56394081D01*
X166232603Y-56385808D01*
X166239043Y-56382526D01*
X166328513Y-56368356D01*
X166538527Y-56300118D01*
X166735280Y-56199868D01*
X166753789Y-56186421D01*
X166913918Y-56070079D01*
X166913928Y-56070072D01*
X167070072Y-55913928D01*
X167164838Y-55783495D01*
X167199864Y-55735286D01*
X167199864Y-55735284D01*
X167199868Y-55735280D01*
X167300118Y-55538527D01*
X167368356Y-55328513D01*
X167402900Y-55110411D01*
X167402900Y-54939623D01*
X171147600Y-54939623D01*
X171147600Y-55140376D01*
X171179002Y-55338649D01*
X171179006Y-55338665D01*
X171241036Y-55529575D01*
X171241038Y-55529579D01*
X171332183Y-55708461D01*
X171450171Y-55870857D01*
X171450185Y-55870873D01*
X171467274Y-55887962D01*
X171911211Y-55444024D01*
X171918112Y-55454351D01*
X172008649Y-55544888D01*
X172018975Y-55551787D01*
X171575037Y-55995725D01*
X171592126Y-56012814D01*
X171592142Y-56012828D01*
X171754538Y-56130816D01*
X171933420Y-56221961D01*
X171933424Y-56221963D01*
X172124334Y-56283993D01*
X172124350Y-56283997D01*
X172322623Y-56315400D01*
X172523376Y-56315400D01*
X172721649Y-56283997D01*
X172721665Y-56283993D01*
X172912575Y-56221963D01*
X172912579Y-56221961D01*
X173091461Y-56130816D01*
X173253857Y-56012828D01*
X173253873Y-56012814D01*
X173270962Y-55995725D01*
X172827024Y-55551787D01*
X172837351Y-55544888D01*
X172927888Y-55454351D01*
X172934787Y-55444024D01*
X173378725Y-55887962D01*
X173395814Y-55870873D01*
X173395828Y-55870857D01*
X173513816Y-55708461D01*
X173604961Y-55529579D01*
X173604963Y-55529575D01*
X173666993Y-55338665D01*
X173666997Y-55338649D01*
X173698400Y-55140376D01*
X173698400Y-55002588D01*
X177400100Y-55002588D01*
X177400100Y-55223411D01*
X177434642Y-55441505D01*
X177434646Y-55441521D01*
X177502878Y-55651518D01*
X177502880Y-55651522D01*
X177502882Y-55651527D01*
X177569086Y-55781461D01*
X177603135Y-55848286D01*
X177732920Y-56026918D01*
X177732924Y-56026922D01*
X177732928Y-56026928D01*
X177889072Y-56183072D01*
X177889077Y-56183076D01*
X177889081Y-56183079D01*
X178067713Y-56312864D01*
X178067718Y-56312866D01*
X178067720Y-56312868D01*
X178264473Y-56413118D01*
X178264478Y-56413119D01*
X178264481Y-56413121D01*
X178441101Y-56470508D01*
X178474487Y-56481356D01*
X178563955Y-56495526D01*
X178571589Y-56500204D01*
X178573824Y-56507081D01*
X178573824Y-59964548D01*
X178570397Y-59972821D01*
X178350322Y-60192895D01*
X178342049Y-60196322D01*
X178339021Y-60195923D01*
X178287498Y-60182118D01*
X178287496Y-60182118D01*
X178166902Y-60182118D01*
X178166899Y-60182118D01*
X178050417Y-60213328D01*
X178050413Y-60213330D01*
X177945980Y-60273625D01*
X177945975Y-60273629D01*
X177860705Y-60358899D01*
X177860701Y-60358904D01*
X177800406Y-60463337D01*
X177800404Y-60463341D01*
X177769194Y-60579823D01*
X177769194Y-60700422D01*
X177800404Y-60816904D01*
X177800406Y-60816908D01*
X177860701Y-60921341D01*
X177860703Y-60921344D01*
X177860704Y-60921345D01*
X177945977Y-61006618D01*
X177945978Y-61006619D01*
X177945980Y-61006620D01*
X178050413Y-61066915D01*
X178050417Y-61066917D01*
X178142282Y-61091531D01*
X178166899Y-61098127D01*
X178166901Y-61098128D01*
X178166902Y-61098128D01*
X178287497Y-61098128D01*
X178287497Y-61098127D01*
X178345739Y-61082522D01*
X178403980Y-61066917D01*
X178403984Y-61066915D01*
X178438795Y-61046816D01*
X178508421Y-61006618D01*
X178593694Y-60921345D01*
X178653992Y-60816906D01*
X178685204Y-60700420D01*
X178685204Y-60579826D01*
X178671397Y-60528298D01*
X178672565Y-60519421D01*
X178674421Y-60517002D01*
X178931170Y-60260253D01*
X178931177Y-60260249D01*
X178932818Y-60258608D01*
X178997286Y-60194140D01*
X179032176Y-60109908D01*
X179032176Y-56764717D01*
X179032176Y-56507081D01*
X179035603Y-56498808D01*
X179042043Y-56495526D01*
X179131513Y-56481356D01*
X179341527Y-56413118D01*
X179538280Y-56312868D01*
X179555828Y-56300119D01*
X179693816Y-56199864D01*
X179716928Y-56183072D01*
X179873072Y-56026928D01*
X180002868Y-55848280D01*
X180103118Y-55651527D01*
X180171356Y-55441513D01*
X180205900Y-55223411D01*
X180205900Y-55012623D01*
X183877600Y-55012623D01*
X183877600Y-55213376D01*
X183909002Y-55411649D01*
X183909006Y-55411665D01*
X183971036Y-55602575D01*
X183971038Y-55602579D01*
X184062183Y-55781461D01*
X184180171Y-55943857D01*
X184180185Y-55943873D01*
X184197274Y-55960962D01*
X184641211Y-55517024D01*
X184648112Y-55527351D01*
X184738649Y-55617888D01*
X184748975Y-55624787D01*
X184305037Y-56068725D01*
X184322126Y-56085814D01*
X184322142Y-56085828D01*
X184484538Y-56203816D01*
X184663420Y-56294961D01*
X184663424Y-56294963D01*
X184854334Y-56356993D01*
X184854350Y-56356997D01*
X185052623Y-56388400D01*
X185253376Y-56388400D01*
X185451649Y-56356997D01*
X185451665Y-56356993D01*
X185642575Y-56294963D01*
X185642579Y-56294961D01*
X185821461Y-56203816D01*
X185983857Y-56085828D01*
X185983873Y-56085814D01*
X186000962Y-56068725D01*
X185557024Y-55624787D01*
X185567351Y-55617888D01*
X185657888Y-55527351D01*
X185664787Y-55517024D01*
X186108725Y-55960962D01*
X186125814Y-55943873D01*
X186125828Y-55943857D01*
X186243816Y-55781461D01*
X186334961Y-55602579D01*
X186334963Y-55602575D01*
X186396993Y-55411665D01*
X186396997Y-55411649D01*
X186428400Y-55213376D01*
X186428400Y-55012623D01*
X186427028Y-55003959D01*
X186426811Y-55002588D01*
X190100100Y-55002588D01*
X190100100Y-55223411D01*
X190134642Y-55441505D01*
X190134646Y-55441521D01*
X190202878Y-55651518D01*
X190202880Y-55651522D01*
X190202882Y-55651527D01*
X190269086Y-55781461D01*
X190303135Y-55848286D01*
X190432920Y-56026918D01*
X190432924Y-56026922D01*
X190432928Y-56026928D01*
X190589072Y-56183072D01*
X190589077Y-56183076D01*
X190589081Y-56183079D01*
X190767713Y-56312864D01*
X190767718Y-56312866D01*
X190767720Y-56312868D01*
X190964473Y-56413118D01*
X190964478Y-56413119D01*
X190964481Y-56413121D01*
X191141101Y-56470508D01*
X191174487Y-56481356D01*
X191263251Y-56495414D01*
X191392588Y-56515900D01*
X191392589Y-56515900D01*
X191613411Y-56515900D01*
X191831513Y-56481356D01*
X192041527Y-56413118D01*
X192238280Y-56312868D01*
X192255828Y-56300119D01*
X192393816Y-56199864D01*
X192416928Y-56183072D01*
X192573072Y-56026928D01*
X192702868Y-55848280D01*
X192803118Y-55651527D01*
X192871356Y-55441513D01*
X192905900Y-55223411D01*
X192905900Y-55002589D01*
X192904067Y-54991019D01*
X192876083Y-54814334D01*
X192871356Y-54784487D01*
X192844338Y-54701334D01*
X192803121Y-54574481D01*
X192803119Y-54574477D01*
X192803118Y-54574473D01*
X192702868Y-54377720D01*
X192702866Y-54377718D01*
X192702864Y-54377713D01*
X192573079Y-54199081D01*
X192573076Y-54199077D01*
X192573072Y-54199072D01*
X192416928Y-54042928D01*
X192416922Y-54042924D01*
X192416918Y-54042920D01*
X192238286Y-53913135D01*
X192127984Y-53856934D01*
X192041527Y-53812882D01*
X192041524Y-53812881D01*
X192041522Y-53812880D01*
X192041518Y-53812878D01*
X191831521Y-53744646D01*
X191831505Y-53744642D01*
X191613412Y-53710100D01*
X191613411Y-53710100D01*
X191392589Y-53710100D01*
X191392588Y-53710100D01*
X191174494Y-53744642D01*
X191174478Y-53744646D01*
X190964481Y-53812878D01*
X190964477Y-53812880D01*
X190767713Y-53913135D01*
X190589081Y-54042920D01*
X190589065Y-54042934D01*
X190432934Y-54199065D01*
X190432920Y-54199081D01*
X190303135Y-54377713D01*
X190202880Y-54574477D01*
X190202878Y-54574481D01*
X190134646Y-54784478D01*
X190134642Y-54784494D01*
X190100100Y-55002588D01*
X186426811Y-55002588D01*
X186396997Y-54814350D01*
X186396993Y-54814334D01*
X186334963Y-54623424D01*
X186334961Y-54623420D01*
X186243816Y-54444538D01*
X186125828Y-54282142D01*
X186125814Y-54282126D01*
X186108725Y-54265037D01*
X185664787Y-54708974D01*
X185657888Y-54698649D01*
X185567351Y-54608112D01*
X185557023Y-54601211D01*
X186000962Y-54157274D01*
X185983873Y-54140185D01*
X185983857Y-54140171D01*
X185821461Y-54022183D01*
X185642579Y-53931038D01*
X185642575Y-53931036D01*
X185451665Y-53869006D01*
X185451649Y-53869002D01*
X185253377Y-53837600D01*
X185052623Y-53837600D01*
X184854350Y-53869002D01*
X184854334Y-53869006D01*
X184663424Y-53931036D01*
X184663420Y-53931038D01*
X184484538Y-54022183D01*
X184322142Y-54140171D01*
X184322133Y-54140179D01*
X184305037Y-54157274D01*
X184748975Y-54601212D01*
X184738649Y-54608112D01*
X184648112Y-54698649D01*
X184641212Y-54708975D01*
X184197274Y-54265037D01*
X184180179Y-54282133D01*
X184180171Y-54282142D01*
X184062183Y-54444538D01*
X183971038Y-54623420D01*
X183971036Y-54623424D01*
X183909006Y-54814334D01*
X183909002Y-54814350D01*
X183877600Y-55012623D01*
X180205900Y-55012623D01*
X180205900Y-55002589D01*
X180204067Y-54991019D01*
X180176083Y-54814334D01*
X180171356Y-54784487D01*
X180144338Y-54701334D01*
X180103121Y-54574481D01*
X180103119Y-54574477D01*
X180103118Y-54574473D01*
X180002868Y-54377720D01*
X180002866Y-54377718D01*
X180002864Y-54377713D01*
X179873079Y-54199081D01*
X179873076Y-54199077D01*
X179873072Y-54199072D01*
X179716928Y-54042928D01*
X179716922Y-54042924D01*
X179716918Y-54042920D01*
X179538286Y-53913135D01*
X179427984Y-53856934D01*
X179341527Y-53812882D01*
X179341524Y-53812881D01*
X179341522Y-53812880D01*
X179341518Y-53812878D01*
X179131521Y-53744646D01*
X179131505Y-53744642D01*
X178913412Y-53710100D01*
X178913411Y-53710100D01*
X178692589Y-53710100D01*
X178692588Y-53710100D01*
X178474494Y-53744642D01*
X178474478Y-53744646D01*
X178264481Y-53812878D01*
X178264477Y-53812880D01*
X178067713Y-53913135D01*
X177889081Y-54042920D01*
X177889065Y-54042934D01*
X177732934Y-54199065D01*
X177732920Y-54199081D01*
X177603135Y-54377713D01*
X177502880Y-54574477D01*
X177502878Y-54574481D01*
X177434646Y-54784478D01*
X177434642Y-54784494D01*
X177400100Y-55002588D01*
X173698400Y-55002588D01*
X173698400Y-54939623D01*
X173666997Y-54741350D01*
X173666993Y-54741334D01*
X173604963Y-54550424D01*
X173604961Y-54550420D01*
X173513816Y-54371538D01*
X173395828Y-54209142D01*
X173395814Y-54209126D01*
X173378725Y-54192037D01*
X172934787Y-54635974D01*
X172927888Y-54625649D01*
X172837351Y-54535112D01*
X172827023Y-54528211D01*
X173270962Y-54084274D01*
X173253873Y-54067185D01*
X173253857Y-54067171D01*
X173091461Y-53949183D01*
X172912579Y-53858038D01*
X172912575Y-53858036D01*
X172721665Y-53796006D01*
X172721649Y-53796002D01*
X172523377Y-53764600D01*
X172322623Y-53764600D01*
X172124350Y-53796002D01*
X172124334Y-53796006D01*
X171933424Y-53858036D01*
X171933420Y-53858038D01*
X171754538Y-53949183D01*
X171592142Y-54067171D01*
X171592133Y-54067179D01*
X171575037Y-54084274D01*
X172018975Y-54528212D01*
X172008649Y-54535112D01*
X171918112Y-54625649D01*
X171911212Y-54635975D01*
X171467274Y-54192037D01*
X171450179Y-54209133D01*
X171450171Y-54209142D01*
X171332183Y-54371538D01*
X171241038Y-54550420D01*
X171241036Y-54550424D01*
X171179006Y-54741334D01*
X171179002Y-54741350D01*
X171147600Y-54939623D01*
X167402900Y-54939623D01*
X167402900Y-54889589D01*
X167396756Y-54850800D01*
X167371622Y-54692110D01*
X167368356Y-54671487D01*
X167347546Y-54607442D01*
X167300121Y-54461481D01*
X167300119Y-54461477D01*
X167300118Y-54461473D01*
X167199868Y-54264720D01*
X167199866Y-54264718D01*
X167199864Y-54264713D01*
X167070241Y-54086304D01*
X167070150Y-54086179D01*
X167070072Y-54086072D01*
X166913928Y-53929928D01*
X166913922Y-53929924D01*
X166913918Y-53929920D01*
X166735286Y-53800135D01*
X166648669Y-53756002D01*
X166538527Y-53699882D01*
X166538524Y-53699881D01*
X166538522Y-53699880D01*
X166538518Y-53699878D01*
X166328521Y-53631646D01*
X166328505Y-53631642D01*
X166110412Y-53597100D01*
X166110411Y-53597100D01*
X165889589Y-53597100D01*
X165889588Y-53597100D01*
X165671494Y-53631642D01*
X165671478Y-53631646D01*
X165461481Y-53699878D01*
X165461477Y-53699880D01*
X165264713Y-53800135D01*
X165086081Y-53929920D01*
X165086065Y-53929934D01*
X164929934Y-54086065D01*
X164929920Y-54086081D01*
X164800135Y-54264713D01*
X164699880Y-54461477D01*
X164699878Y-54461481D01*
X164631646Y-54671478D01*
X164631642Y-54671494D01*
X164597100Y-54889588D01*
X160923811Y-54889588D01*
X160893997Y-54701350D01*
X160893993Y-54701334D01*
X160831963Y-54510424D01*
X160831961Y-54510420D01*
X160740816Y-54331538D01*
X160622828Y-54169142D01*
X160622814Y-54169126D01*
X160605725Y-54152037D01*
X160161787Y-54595974D01*
X160154888Y-54585649D01*
X160064351Y-54495112D01*
X160054023Y-54488211D01*
X160497962Y-54044274D01*
X160480873Y-54027185D01*
X160480857Y-54027171D01*
X160318461Y-53909183D01*
X160139579Y-53818038D01*
X160139575Y-53818036D01*
X159948665Y-53756006D01*
X159948649Y-53756002D01*
X159750377Y-53724600D01*
X159549623Y-53724600D01*
X159351350Y-53756002D01*
X159351334Y-53756006D01*
X159160424Y-53818036D01*
X159160420Y-53818038D01*
X158981538Y-53909183D01*
X158819142Y-54027171D01*
X158819133Y-54027179D01*
X158802037Y-54044274D01*
X159245975Y-54488212D01*
X159235649Y-54495112D01*
X159145112Y-54585649D01*
X159138212Y-54595975D01*
X158694274Y-54152037D01*
X158677179Y-54169133D01*
X158677171Y-54169142D01*
X158559183Y-54331538D01*
X158468038Y-54510420D01*
X158468036Y-54510424D01*
X158406006Y-54701334D01*
X158406002Y-54701350D01*
X158374600Y-54899623D01*
X154702900Y-54899623D01*
X154702900Y-54889589D01*
X154696756Y-54850800D01*
X154671622Y-54692110D01*
X154668356Y-54671487D01*
X154647546Y-54607442D01*
X154600121Y-54461481D01*
X154600119Y-54461477D01*
X154600118Y-54461473D01*
X154499868Y-54264720D01*
X154499866Y-54264718D01*
X154499864Y-54264713D01*
X154370079Y-54086081D01*
X154370076Y-54086077D01*
X154370072Y-54086072D01*
X154213928Y-53929928D01*
X154213922Y-53929924D01*
X154213918Y-53929920D01*
X154035286Y-53800135D01*
X153948669Y-53756002D01*
X153838527Y-53699882D01*
X153838524Y-53699881D01*
X153838522Y-53699880D01*
X153838518Y-53699878D01*
X153628521Y-53631646D01*
X153628505Y-53631642D01*
X153410412Y-53597100D01*
X153410411Y-53597100D01*
X153189589Y-53597100D01*
X153189588Y-53597100D01*
X152971494Y-53631642D01*
X152971478Y-53631646D01*
X152761481Y-53699878D01*
X152761477Y-53699880D01*
X152564713Y-53800135D01*
X152386081Y-53929920D01*
X152386065Y-53929934D01*
X152229934Y-54086065D01*
X152229920Y-54086081D01*
X152100135Y-54264713D01*
X151999880Y-54461477D01*
X151999878Y-54461481D01*
X151931646Y-54671478D01*
X151931642Y-54671494D01*
X151897100Y-54889588D01*
X148195400Y-54889588D01*
X148195400Y-54826623D01*
X148163997Y-54628350D01*
X148163993Y-54628334D01*
X148101963Y-54437424D01*
X148101961Y-54437420D01*
X148010816Y-54258538D01*
X147892828Y-54096142D01*
X147892814Y-54096126D01*
X147875725Y-54079037D01*
X147431787Y-54522974D01*
X147424888Y-54512649D01*
X147334351Y-54422112D01*
X147324023Y-54415211D01*
X147767962Y-53971274D01*
X147750873Y-53954185D01*
X147750857Y-53954171D01*
X147588461Y-53836183D01*
X147409579Y-53745038D01*
X147409575Y-53745036D01*
X147218665Y-53683006D01*
X147218649Y-53683002D01*
X147020377Y-53651600D01*
X146819623Y-53651600D01*
X146621350Y-53683002D01*
X146621334Y-53683006D01*
X146430424Y-53745036D01*
X146430420Y-53745038D01*
X146251538Y-53836183D01*
X146089142Y-53954171D01*
X146089133Y-53954179D01*
X146072037Y-53971274D01*
X146515975Y-54415212D01*
X146505649Y-54422112D01*
X146415112Y-54512649D01*
X146408212Y-54522975D01*
X145964274Y-54079037D01*
X145947179Y-54096133D01*
X145947171Y-54096142D01*
X145829183Y-54258538D01*
X145738038Y-54437420D01*
X145738036Y-54437424D01*
X145676006Y-54628334D01*
X145676002Y-54628350D01*
X145644600Y-54826623D01*
X141972900Y-54826623D01*
X141972900Y-54816589D01*
X141972545Y-54814350D01*
X141938357Y-54598494D01*
X141938356Y-54598487D01*
X141917764Y-54535112D01*
X141870121Y-54388481D01*
X141870119Y-54388477D01*
X141870118Y-54388473D01*
X141769868Y-54191720D01*
X141769866Y-54191718D01*
X141769864Y-54191713D01*
X141640079Y-54013081D01*
X141640076Y-54013077D01*
X141640072Y-54013072D01*
X141483928Y-53856928D01*
X141483922Y-53856924D01*
X141483918Y-53856920D01*
X141305286Y-53727135D01*
X141271853Y-53710100D01*
X141108527Y-53626882D01*
X141108524Y-53626881D01*
X141108522Y-53626880D01*
X141108518Y-53626878D01*
X140898521Y-53558646D01*
X140898505Y-53558642D01*
X140680412Y-53524100D01*
X140680411Y-53524100D01*
X140459589Y-53524100D01*
X140459588Y-53524100D01*
X140241494Y-53558642D01*
X140241478Y-53558646D01*
X140031481Y-53626878D01*
X140031477Y-53626880D01*
X139834713Y-53727135D01*
X139656081Y-53856920D01*
X139656065Y-53856934D01*
X139499934Y-54013065D01*
X139499920Y-54013081D01*
X139370135Y-54191713D01*
X139269880Y-54388477D01*
X139269878Y-54388481D01*
X139201646Y-54598478D01*
X139201642Y-54598494D01*
X139167100Y-54816588D01*
X139167100Y-55037411D01*
X139201642Y-55255505D01*
X139201646Y-55255521D01*
X139269878Y-55465518D01*
X139269880Y-55465522D01*
X139269882Y-55465527D01*
X139370132Y-55662280D01*
X139374623Y-55668461D01*
X139423374Y-55735563D01*
X139425464Y-55744270D01*
X139422181Y-55750713D01*
X139175580Y-55997316D01*
X132431241Y-62741655D01*
X132422968Y-62745082D01*
X131453938Y-62745082D01*
X131445665Y-62741655D01*
X131443806Y-62739232D01*
X131417136Y-62693039D01*
X131417132Y-62693034D01*
X131331862Y-62607764D01*
X131331857Y-62607760D01*
X131227424Y-62547465D01*
X131227420Y-62547463D01*
X131110938Y-62516253D01*
X131110936Y-62516253D01*
X130990342Y-62516253D01*
X130990339Y-62516253D01*
X130873857Y-62547463D01*
X130873853Y-62547465D01*
X130769420Y-62607760D01*
X130769415Y-62607764D01*
X130684145Y-62693034D01*
X130684141Y-62693039D01*
X130623846Y-62797472D01*
X130623844Y-62797476D01*
X130592634Y-62913958D01*
X130592634Y-63034557D01*
X130623844Y-63151039D01*
X130623846Y-63151043D01*
X130684141Y-63255476D01*
X130684143Y-63255479D01*
X130684144Y-63255480D01*
X130769417Y-63340753D01*
X130806446Y-63362132D01*
X130811897Y-63369236D01*
X130810729Y-63378114D01*
X130803624Y-63383565D01*
X130800596Y-63383964D01*
X130214625Y-63383964D01*
X130206352Y-63380537D01*
X126037063Y-59211248D01*
X126033636Y-59202975D01*
X126037063Y-59194702D01*
X126045336Y-59191275D01*
X126051836Y-59193247D01*
X126109019Y-59231456D01*
X126109027Y-59231460D01*
X126259239Y-59293680D01*
X126418706Y-59325400D01*
X126581294Y-59325400D01*
X126740760Y-59293680D01*
X126890972Y-59231460D01*
X126890980Y-59231456D01*
X127026162Y-59141130D01*
X127026164Y-59141128D01*
X127029764Y-59137527D01*
X127029764Y-59137526D01*
X126724501Y-58832264D01*
X126745606Y-58820080D01*
X126820080Y-58745606D01*
X126832264Y-58724501D01*
X127137526Y-59029764D01*
X127137527Y-59029764D01*
X127141128Y-59026164D01*
X127141130Y-59026162D01*
X127231456Y-58890980D01*
X127231460Y-58890972D01*
X127293680Y-58740760D01*
X127325400Y-58581294D01*
X127325400Y-58418705D01*
X127293680Y-58259239D01*
X127231460Y-58109027D01*
X127231456Y-58109019D01*
X127141131Y-57973839D01*
X127137526Y-57970235D01*
X126832264Y-58275497D01*
X126820080Y-58254394D01*
X126745606Y-58179920D01*
X126724500Y-58167734D01*
X127029764Y-57862472D01*
X127026160Y-57858868D01*
X126890980Y-57768543D01*
X126890972Y-57768539D01*
X126740760Y-57706319D01*
X126581294Y-57674600D01*
X126418706Y-57674600D01*
X126259239Y-57706319D01*
X126109027Y-57768539D01*
X126109019Y-57768543D01*
X125973841Y-57858867D01*
X125973836Y-57858871D01*
X125970235Y-57862471D01*
X126275498Y-58167735D01*
X126254394Y-58179920D01*
X126179920Y-58254394D01*
X126167735Y-58275498D01*
X125862472Y-57970235D01*
X125862471Y-57970235D01*
X125858871Y-57973836D01*
X125858867Y-57973841D01*
X125768543Y-58109019D01*
X125768539Y-58109027D01*
X125706319Y-58259239D01*
X125674600Y-58418705D01*
X125674600Y-58581294D01*
X125706319Y-58740760D01*
X125768539Y-58890972D01*
X125768543Y-58890980D01*
X125806752Y-58948163D01*
X125808499Y-58956946D01*
X125803524Y-58964391D01*
X125794741Y-58966138D01*
X125788751Y-58962936D01*
X122612737Y-55786922D01*
X122609310Y-55778649D01*
X122609310Y-54834549D01*
X122609309Y-54834545D01*
X122574420Y-54750317D01*
X122574419Y-54750315D01*
X122323609Y-54499505D01*
X122320182Y-54491232D01*
X122322153Y-54484734D01*
X122344449Y-54451368D01*
X122416281Y-54277951D01*
X122452900Y-54093852D01*
X122452900Y-53918705D01*
X125674600Y-53918705D01*
X125674600Y-54081294D01*
X125706319Y-54240760D01*
X125768539Y-54390972D01*
X125768543Y-54390980D01*
X125858868Y-54526160D01*
X125862472Y-54529763D01*
X126167734Y-54224500D01*
X126179920Y-54245606D01*
X126254394Y-54320080D01*
X126275497Y-54332264D01*
X125970235Y-54637526D01*
X125973839Y-54641131D01*
X126109019Y-54731456D01*
X126109027Y-54731460D01*
X126259239Y-54793680D01*
X126418706Y-54825400D01*
X126581294Y-54825400D01*
X126740760Y-54793680D01*
X126890972Y-54731460D01*
X126890980Y-54731456D01*
X127026162Y-54641130D01*
X127026164Y-54641128D01*
X127029764Y-54637527D01*
X127029764Y-54637526D01*
X126724501Y-54332264D01*
X126745606Y-54320080D01*
X126820080Y-54245606D01*
X126832264Y-54224501D01*
X127137526Y-54529764D01*
X127137527Y-54529764D01*
X127141128Y-54526164D01*
X127141130Y-54526162D01*
X127231456Y-54390980D01*
X127231460Y-54390972D01*
X127293680Y-54240760D01*
X127325400Y-54081294D01*
X127325400Y-53918704D01*
X127321995Y-53901584D01*
X127321655Y-53899877D01*
X132944600Y-53899877D01*
X132944600Y-54850800D01*
X133572423Y-54850800D01*
X133570000Y-54862981D01*
X133570000Y-54991019D01*
X133572423Y-55003200D01*
X132944601Y-55003200D01*
X132944601Y-55954122D01*
X132960578Y-56034455D01*
X132960579Y-56034456D01*
X133021447Y-56125551D01*
X133021448Y-56125552D01*
X133112543Y-56186420D01*
X133192877Y-56202399D01*
X134143800Y-56202399D01*
X134143800Y-55574577D01*
X134155981Y-55577000D01*
X134284019Y-55577000D01*
X134296200Y-55574577D01*
X134296200Y-56202399D01*
X135247122Y-56202399D01*
X135327455Y-56186421D01*
X135327456Y-56186420D01*
X135418551Y-56125552D01*
X135418552Y-56125551D01*
X135479420Y-56034456D01*
X135495400Y-55954122D01*
X135495400Y-55003200D01*
X134867577Y-55003200D01*
X134870000Y-54991019D01*
X134870000Y-54862981D01*
X134867577Y-54850800D01*
X135495399Y-54850800D01*
X135495399Y-53899877D01*
X135479421Y-53819544D01*
X135479420Y-53819543D01*
X135418552Y-53728448D01*
X135418551Y-53728447D01*
X135327456Y-53667579D01*
X135247122Y-53651600D01*
X134296200Y-53651600D01*
X134296200Y-54279422D01*
X134284019Y-54277000D01*
X134155981Y-54277000D01*
X134143800Y-54279422D01*
X134143800Y-53651600D01*
X133192877Y-53651600D01*
X133112544Y-53667578D01*
X133112543Y-53667579D01*
X133021448Y-53728447D01*
X133021447Y-53728448D01*
X132960579Y-53819543D01*
X132944600Y-53899877D01*
X127321655Y-53899877D01*
X127293680Y-53759239D01*
X127231460Y-53609027D01*
X127231456Y-53609019D01*
X127141131Y-53473839D01*
X127137526Y-53470235D01*
X126832264Y-53775497D01*
X126820080Y-53754394D01*
X126745606Y-53679920D01*
X126724500Y-53667734D01*
X127029764Y-53362472D01*
X127026160Y-53358868D01*
X126890980Y-53268543D01*
X126890972Y-53268539D01*
X126740760Y-53206319D01*
X126581294Y-53174600D01*
X126418706Y-53174600D01*
X126259239Y-53206319D01*
X126109027Y-53268539D01*
X126109019Y-53268543D01*
X125973841Y-53358867D01*
X125973836Y-53358871D01*
X125970235Y-53362471D01*
X126275498Y-53667735D01*
X126254394Y-53679920D01*
X126179920Y-53754394D01*
X126167735Y-53775498D01*
X125862472Y-53470235D01*
X125862471Y-53470235D01*
X125858871Y-53473836D01*
X125858867Y-53473841D01*
X125768543Y-53609019D01*
X125768539Y-53609027D01*
X125706319Y-53759239D01*
X125674600Y-53918705D01*
X122452900Y-53918705D01*
X122452900Y-53906148D01*
X122416281Y-53722049D01*
X122344449Y-53548632D01*
X122344447Y-53548629D01*
X122344445Y-53548625D01*
X122240166Y-53392561D01*
X122240163Y-53392557D01*
X122107442Y-53259836D01*
X122107438Y-53259833D01*
X121951374Y-53155554D01*
X121951366Y-53155550D01*
X121777951Y-53083719D01*
X121593852Y-53047100D01*
X121406148Y-53047100D01*
X121314098Y-53065409D01*
X121222048Y-53083719D01*
X121048633Y-53155550D01*
X121048625Y-53155554D01*
X120892561Y-53259833D01*
X120892557Y-53259836D01*
X120759836Y-53392557D01*
X120759833Y-53392561D01*
X120655554Y-53548625D01*
X120655550Y-53548633D01*
X120583719Y-53722048D01*
X120554489Y-53869002D01*
X120547100Y-53906148D01*
X114311710Y-53906148D01*
X114311710Y-52401394D01*
X115247100Y-52401394D01*
X115247100Y-52598605D01*
X115277949Y-52793380D01*
X115277953Y-52793396D01*
X115338888Y-52980938D01*
X115338890Y-52980942D01*
X115338892Y-52980947D01*
X115372599Y-53047100D01*
X115428427Y-53156669D01*
X115544334Y-53316199D01*
X115544338Y-53316203D01*
X115544342Y-53316209D01*
X115683791Y-53455658D01*
X115683796Y-53455662D01*
X115683800Y-53455665D01*
X115843330Y-53571572D01*
X115843335Y-53571574D01*
X115843337Y-53571576D01*
X116019053Y-53661108D01*
X116019058Y-53661109D01*
X116019061Y-53661111D01*
X116138376Y-53699878D01*
X116206612Y-53722049D01*
X116285891Y-53734605D01*
X116401394Y-53752900D01*
X116401395Y-53752900D01*
X116598605Y-53752900D01*
X116793388Y-53722049D01*
X116980947Y-53661108D01*
X117156663Y-53571576D01*
X117174460Y-53558646D01*
X117291189Y-53473836D01*
X117316209Y-53455658D01*
X117455658Y-53316209D01*
X117504917Y-53248409D01*
X117571572Y-53156669D01*
X117571572Y-53156667D01*
X117571576Y-53156663D01*
X117661108Y-52980947D01*
X117686956Y-52901394D01*
X196747100Y-52901394D01*
X196747100Y-53098605D01*
X196777949Y-53293380D01*
X196777953Y-53293396D01*
X196838888Y-53480938D01*
X196838890Y-53480942D01*
X196838892Y-53480947D01*
X196873380Y-53548633D01*
X196928427Y-53656669D01*
X197044334Y-53816199D01*
X197044338Y-53816203D01*
X197044342Y-53816209D01*
X197183791Y-53955658D01*
X197183796Y-53955662D01*
X197183800Y-53955665D01*
X197343330Y-54071572D01*
X197343335Y-54071574D01*
X197343337Y-54071576D01*
X197519053Y-54161108D01*
X197519058Y-54161109D01*
X197519061Y-54161111D01*
X197635895Y-54199072D01*
X197706612Y-54222049D01*
X197785891Y-54234605D01*
X197901394Y-54252900D01*
X197901395Y-54252900D01*
X198098605Y-54252900D01*
X198293388Y-54222049D01*
X198480947Y-54161108D01*
X198656663Y-54071576D01*
X198696094Y-54042928D01*
X198755179Y-53999999D01*
X198816209Y-53955658D01*
X198955658Y-53816209D01*
X199020377Y-53727132D01*
X199071572Y-53656669D01*
X199071572Y-53656667D01*
X199071576Y-53656663D01*
X199161108Y-53480947D01*
X199163419Y-53473836D01*
X199222046Y-53293396D01*
X199222049Y-53293388D01*
X199252900Y-53098605D01*
X199252900Y-52901395D01*
X199222049Y-52706612D01*
X199161108Y-52519053D01*
X199071576Y-52343337D01*
X199071574Y-52343335D01*
X199071572Y-52343330D01*
X198955665Y-52183800D01*
X198955662Y-52183796D01*
X198955658Y-52183791D01*
X198816209Y-52044342D01*
X198816203Y-52044338D01*
X198816199Y-52044334D01*
X198656669Y-51928427D01*
X198640060Y-51919964D01*
X198480947Y-51838892D01*
X198480944Y-51838891D01*
X198480942Y-51838890D01*
X198480938Y-51838888D01*
X198293396Y-51777953D01*
X198293380Y-51777949D01*
X198098606Y-51747100D01*
X198098605Y-51747100D01*
X197901395Y-51747100D01*
X197901394Y-51747100D01*
X197706619Y-51777949D01*
X197706603Y-51777953D01*
X197519061Y-51838888D01*
X197519057Y-51838890D01*
X197343330Y-51928427D01*
X197183800Y-52044334D01*
X197183784Y-52044348D01*
X197044348Y-52183784D01*
X197044334Y-52183800D01*
X196928427Y-52343330D01*
X196838890Y-52519057D01*
X196838888Y-52519061D01*
X196777953Y-52706603D01*
X196777949Y-52706619D01*
X196747100Y-52901394D01*
X117686956Y-52901394D01*
X117722049Y-52793388D01*
X117752900Y-52598605D01*
X117752900Y-52401395D01*
X117722049Y-52206612D01*
X117669325Y-52044342D01*
X117661111Y-52019061D01*
X117661109Y-52019057D01*
X117661108Y-52019053D01*
X117571576Y-51843337D01*
X117571574Y-51843335D01*
X117571572Y-51843330D01*
X117455665Y-51683800D01*
X117455662Y-51683796D01*
X117455658Y-51683791D01*
X117316209Y-51544342D01*
X117316203Y-51544338D01*
X117316199Y-51544334D01*
X117156669Y-51428427D01*
X117101249Y-51400189D01*
X116980947Y-51338892D01*
X116980944Y-51338891D01*
X116980942Y-51338890D01*
X116980938Y-51338888D01*
X116793396Y-51277953D01*
X116793380Y-51277949D01*
X116598606Y-51247100D01*
X116598605Y-51247100D01*
X116401395Y-51247100D01*
X116401394Y-51247100D01*
X116206619Y-51277949D01*
X116206603Y-51277953D01*
X116019061Y-51338888D01*
X116019057Y-51338890D01*
X115843330Y-51428427D01*
X115683800Y-51544334D01*
X115683784Y-51544348D01*
X115544348Y-51683784D01*
X115544334Y-51683800D01*
X115428427Y-51843330D01*
X115338890Y-52019057D01*
X115338888Y-52019061D01*
X115277953Y-52206603D01*
X115277949Y-52206619D01*
X115247100Y-52401394D01*
X114311710Y-52401394D01*
X114311710Y-48397000D01*
X114315137Y-48388727D01*
X114323410Y-48385300D01*
X131527874Y-48385300D01*
X131536147Y-48388727D01*
G37*
%TD.AperFunction*%
%TD*%
M02*
